<svg xmlns="http://www.w3.org/2000/svg" xmlns:xlink="http://www.w3.org/1999/xlink" width="1000" zoomAndPan="magnify" viewBox="0 0 750 149.999998" height="200" preserveAspectRatio="xMidYMid meet" version="1.0"><defs><g/><clipPath id="id1"><path d="M 71 19 L 565 19 L 565 41 L 71 41 Z M 71 19 " clip-rule="nonzero"/></clipPath><clipPath id="id2"><path d="M 71.324219 34.511719 L 564.609375 19.980469 L 564.785156 25.976562 L 71.5 40.511719 Z M 71.324219 34.511719 " clip-rule="nonzero"/></clipPath><clipPath id="id3"><path d="M 71 95 L 573 95 L 573 118 L 71 118 Z M 71 95 " clip-rule="nonzero"/></clipPath><clipPath id="id4"><path d="M 71.195312 110.648438 L 571.976562 95.898438 L 572.175781 102.644531 L 71.394531 117.394531 Z M 71.195312 110.648438 " clip-rule="nonzero"/></clipPath></defs><g clip-path="url(#id1)"><g clip-path="url(#id2)"><path fill="rgb(100%, 100%, 100%)" d="M 71.324219 34.511719 L 564.609375 19.980469 L 564.785156 25.976562 L 71.5 40.511719 Z M 71.324219 34.511719 " fill-opacity="1" fill-rule="nonzero"/></g></g><g fill="rgb(100%, 100%, 100%)" fill-opacity="1"><g transform="translate(75.745314, 101.661781)"><g><path d="M 9.800781 -0.140625 L 10.390625 -0.230469 L 11.5 -0.339844 L 12.167969 -0.433594 L 12.910156 -0.378906 L 13.113281 -1.054688 L 13.320312 -1.582031 L 13.371094 -2.472656 L 13.429688 -2.996094 L 13.414062 -3.441406 L 13.476562 -3.960938 L 13.519531 -4.929688 L 13.507812 -5.375 L 13.640625 -5.898438 L 13.554688 -6.339844 L 13.746094 -7.386719 L 13.726562 -7.980469 L 13.863281 -8.429688 L 13.917969 -9.023438 L 14.171875 -10.59375 L 14.300781 -11.191406 L 14.253906 -12.75 L 14.535156 -13.351562 L 14.652344 -14.394531 L 14.640625 -14.839844 L 14.757812 -15.882812 L 15.101562 -16.859375 L 15.0625 -18.121094 L 15.238281 -19.683594 L 15.296875 -20.28125 L 15.488281 -21.324219 L 15.625 -21.777344 L 15.6875 -22.074219 L 16.210938 -22.015625 L 16.515625 -21.726562 L 16.832031 -21.144531 L 16.996094 -20.554688 L 17.3125 -19.96875 L 17.480469 -19.230469 L 17.734375 -18.199219 L 17.894531 -17.832031 L 18 -16.796875 L 18.324219 -15.839844 L 18.5 -14.878906 L 18.664062 -14.363281 L 18.988281 -13.480469 L 19.078125 -12.964844 L 19.5625 -11.640625 L 19.585938 -10.753906 L 19.90625 -10.019531 L 20.152344 -9.207031 L 20.242188 -8.691406 L 20.476562 -8.253906 L 20.492188 -7.734375 L 20.730469 -7.222656 L 20.90625 -6.261719 L 21.0625 -6.042969 L 21.304688 -5.457031 L 21.320312 -4.863281 L 21.796875 -3.761719 L 22.046875 -2.953125 L 22.203125 -2.585938 L 22.453125 -1.703125 L 22.613281 -1.335938 L 23.300781 -0.6875 L 23.746094 -0.625 L 24.414062 -0.71875 L 25.007812 -0.738281 L 25.820312 -0.835938 L 26.785156 -0.863281 L 28.707031 -1.144531 L 30.261719 -1.410156 L 31.226562 -1.441406 L 32.035156 -1.613281 L 32.40625 -1.699219 L 32.601562 -2.667969 L 32.039062 -4.0625 L 31.871094 -4.726562 L 31.78125 -5.242188 L 31.679688 -6.132812 L 31.125 -7.378906 L 30.945312 -8.414062 L 30.050781 -11.058594 L 29.875 -12.019531 L 29.46875 -13.121094 L 29.457031 -13.566406 L 29.132812 -14.523438 L 28.964844 -15.113281 L 28.726562 -15.625 L 28.546875 -16.660156 L 28.386719 -17.101562 L 28.136719 -18.058594 L 27.898438 -18.5 L 27.722656 -19.457031 L 27.632812 -20.050781 L 27.320312 -20.488281 L 27.144531 -21.445312 L 27.125 -22.113281 L 26.722656 -23.214844 L 26.480469 -23.804688 L 26.460938 -24.472656 L 26.980469 -24.5625 L 28.003906 -25.109375 L 29.457031 -26.121094 L 30.464844 -27.261719 L 30.824219 -27.644531 L 31.613281 -28.632812 L 31.820312 -29.085938 L 32.386719 -30.066406 L 32.664062 -30.746094 L 32.871094 -31.269531 L 33.511719 -32.253906 L 33.855469 -33.15625 L 34.0625 -33.683594 L 34.199219 -34.132812 L 34.332031 -34.65625 L 34.601562 -35.554688 L 34.804688 -36.304688 L 34.917969 -37.496094 L 35.105469 -38.6875 L 35.089844 -39.207031 L 34.980469 -40.320312 L 35.039062 -40.839844 L 35.234375 -41.886719 L 35.214844 -42.480469 L 34.949219 -43.882812 L 34.933594 -44.402344 L 34.746094 -45.808594 L 34.488281 -46.988281 L 33.9375 -48.011719 L 33.390625 -48.886719 L 33.085938 -49.25 L 32.699219 -49.683594 L 32.394531 -49.972656 L 31.488281 -50.464844 L 31.113281 -50.675781 L 30.660156 -50.886719 L 29.980469 -51.3125 L 29.453125 -51.445312 L 28.777344 -51.722656 L 27.949219 -52.070312 L 27.351562 -52.199219 L 26.164062 -52.164062 L 25.34375 -52.289062 L 24.230469 -52.332031 L 23.261719 -52.453125 L 22.59375 -52.429688 L 21.476562 -52.546875 L 20.878906 -52.679688 L 20.136719 -52.582031 L 19.621094 -52.492188 L 16.429688 -52.398438 L 11.976562 -52.339844 L 10.9375 -52.3125 L 10.199219 -52.140625 L 9.695312 -51.53125 L 9.410156 -51.152344 L 9.507812 -50.339844 L 9.230469 -49.734375 L 9.246094 -49.140625 L 9.1875 -48.621094 L 9.132812 -48.023438 L 8.894531 -45.9375 L 8.707031 -44.742188 L 8.511719 -43.847656 L 8.378906 -43.324219 L 8.390625 -42.878906 L 8.347656 -41.910156 L 8.359375 -41.464844 L 8.296875 -41.019531 L 8.105469 -39.972656 L 7.917969 -38.777344 L 7.726562 -37.734375 L 7.664062 -37.285156 L 7.621094 -36.246094 L 7.351562 -35.347656 L 7.289062 -34.898438 L 7.304688 -34.378906 L 7.246094 -33.933594 L 7.125 -32.960938 L 7.066406 -32.441406 L 7.003906 -31.992188 L 7.019531 -31.472656 L 6.695312 -29.90625 L 6.710938 -29.3125 L 6.59375 -28.269531 L 6.472656 -27.300781 L 6.414062 -26.851562 L 6.289062 -26.03125 L 6.15625 -25.507812 L 6.167969 -25.0625 L 5.960938 -24.609375 L 5.824219 -24.085938 L 5.777344 -23.195312 L 5.867188 -22.75 L 5.730469 -22.300781 L 5.375 -21.769531 L 5.394531 -21.101562 L 5.335938 -20.507812 L 5.277344 -19.984375 L 5.011719 -18.9375 L 5.03125 -18.34375 L 4.988281 -17.230469 L 4.863281 -16.484375 L 4.882812 -15.816406 L 4.550781 -14.46875 L 4.582031 -13.355469 L 4.304688 -12.753906 L 4.394531 -12.160156 L 4.335938 -11.640625 L 4.207031 -11.042969 L 4.160156 -10 L 3.957031 -9.398438 L 4.046875 -8.882812 L 3.839844 -8.28125 L 3.855469 -7.761719 L 3.664062 -6.71875 L 3.605469 -6.195312 L 3.617188 -5.75 L 3.410156 -5.226562 L 3.425781 -4.707031 L 3.292969 -4.257812 L 3.304688 -3.738281 L 3.257812 -2.917969 L 3.203125 -2.175781 L 3.003906 -1.425781 L 3.023438 -0.757812 L 3.183594 -0.316406 L 3.855469 -0.1875 L 6.160156 -0.105469 L 7.125 -0.136719 Z M 18.546875 -30.996094 L 17.28125 -31.109375 L 17.335938 -31.703125 L 17.246094 -32.222656 L 17.304688 -32.742188 L 17.492188 -33.9375 L 17.621094 -34.609375 L 17.527344 -35.273438 L 17.730469 -35.949219 L 17.847656 -37.066406 L 17.832031 -37.585938 L 18.019531 -38.78125 L 18.148438 -39.378906 L 18.195312 -40.34375 L 18.238281 -41.460938 L 18.351562 -42.652344 L 18.558594 -43.175781 L 18.757812 -44 L 19.417969 -44.242188 L 21.199219 -44.222656 L 22.839844 -44.046875 L 23.519531 -43.695312 L 24.054688 -43.191406 L 24.445312 -42.535156 L 24.710938 -40.980469 L 24.835938 -39.351562 L 24.796875 -38.164062 L 24.589844 -37.5625 L 24.609375 -36.96875 L 24.121094 -35.914062 L 24.058594 -35.46875 L 23.925781 -34.867188 L 23.585938 -33.894531 L 23.078125 -33.433594 L 22.792969 -32.980469 L 22.292969 -32.371094 L 21.78125 -32.058594 L 21.054688 -31.589844 L 20.617188 -31.28125 L 19.734375 -31.03125 Z M 18.546875 -30.996094 "/></g></g></g><g fill="rgb(100%, 100%, 100%)" fill-opacity="1"><g transform="translate(110.620918, 100.634365)"><g><path d="M 17.992188 0.660156 L 19.617188 0.386719 L 20.429688 0.140625 L 20.945312 0.0507812 L 21.976562 -0.203125 L 22.566406 -0.367188 L 23.085938 -0.457031 L 24.769531 -1.175781 L 25.0625 -1.40625 L 25.933594 -2.027344 L 26.804688 -2.71875 L 27.164062 -3.175781 L 27.597656 -3.5625 L 28.460938 -4.476562 L 28.597656 -4.925781 L 28.957031 -5.382812 L 29.238281 -5.835938 L 29.878906 -6.820312 L 30.234375 -7.351562 L 30.789062 -8.707031 L 31.277344 -9.757812 L 31.328125 -10.503906 L 31.683594 -11.035156 L 31.882812 -11.855469 L 31.867188 -12.375 L 32.066406 -13.273438 L 32.410156 -14.101562 L 32.460938 -14.917969 L 32.671875 -15.371094 L 33.015625 -16.273438 L 32.929688 -16.714844 L 33.59375 -19.335938 L 33.804688 -19.785156 L 33.921875 -20.828125 L 34.054688 -21.351562 L 34.035156 -22.019531 L 34.21875 -23.363281 L 34.429688 -23.816406 L 34.621094 -24.785156 L 34.671875 -25.679688 L 34.863281 -26.648438 L 34.984375 -27.621094 L 35.253906 -28.59375 L 35.152344 -29.480469 L 35.5 -30.308594 L 35.402344 -31.046875 L 35.515625 -32.238281 L 35.648438 -32.761719 L 35.6875 -33.953125 L 35.730469 -35.066406 L 35.847656 -36.113281 L 35.910156 -36.558594 L 35.886719 -37.300781 L 35.796875 -37.816406 L 35.859375 -38.265625 L 35.992188 -38.789062 L 36.039062 -39.757812 L 36.023438 -40.277344 L 35.921875 -41.238281 L 35.980469 -41.683594 L 36.027344 -42.652344 L 36.011719 -43.171875 L 35.917969 -43.761719 L 35.730469 -45.167969 L 35.472656 -46.273438 L 35.3125 -46.789062 L 35.148438 -47.230469 L 34.914062 -47.667969 L 34.441406 -48.621094 L 34.203125 -49.132812 L 33.816406 -49.570312 L 32.980469 -50.285156 L 32.144531 -50.929688 L 31.757812 -51.363281 L 31.15625 -51.71875 L 29.792969 -52.570312 L 28.664062 -53.054688 L 28.214844 -53.191406 L 27.621094 -53.25 L 27.019531 -53.453125 L 25.828125 -53.566406 L 25.007812 -53.617188 L 24.5625 -53.679688 L 23.222656 -53.710938 L 22.335938 -53.613281 L 21.296875 -53.507812 L 19.96875 -53.246094 L 19.230469 -53.148438 L 18.125 -52.820312 L 17.683594 -52.734375 L 16.578125 -52.402344 L 15.699219 -51.929688 L 14.824219 -51.386719 L 14.316406 -51 L 13.730469 -50.757812 L 12.785156 -50.0625 L 11.777344 -48.917969 L 11.421875 -48.464844 L 10.914062 -48.078125 L 10.34375 -47.167969 L 9.78125 -46.1875 L 9.496094 -45.734375 L 9.4375 -45.210938 L 8.796875 -44.226562 L 8.515625 -43.699219 L 8.097656 -42.796875 L 7.757812 -41.746094 L 7.484375 -40.847656 L 7.277344 -40.320312 L 6.863281 -39.34375 L 6.742188 -38.375 L 6.386719 -37.84375 L 6.144531 -35.980469 L 6.027344 -34.9375 L 5.964844 -34.488281 L 5.757812 -33.960938 L 5.636719 -33.066406 L 5.667969 -32.027344 L 5.535156 -31.503906 L 5.109375 -30.75 L 5.199219 -30.304688 L 5.0625 -29.78125 L 5.078125 -29.335938 L 4.945312 -28.8125 L 4.734375 -28.363281 L 4.75 -27.84375 L 4.554688 -26.945312 L 4.582031 -25.980469 L 4.386719 -25.082031 L 4.203125 -23.742188 L 4.070312 -23.21875 L 3.949219 -22.25 L 4.109375 -21.882812 L 3.84375 -20.835938 L 3.859375 -20.316406 L 3.738281 -19.273438 L 3.757812 -18.679688 L 3.492188 -17.628906 L 3.390625 -15.992188 L 3.40625 -15.472656 L 3.496094 -14.882812 L 3.296875 -14.132812 L 3.339844 -12.722656 L 3.207031 -12.199219 L 3.472656 -10.722656 L 3.558594 -10.28125 L 3.664062 -9.242188 L 3.824219 -8.800781 L 3.914062 -8.285156 L 4.078125 -7.84375 L 4.234375 -7.476562 L 4.324219 -7.035156 L 4.5625 -6.523438 L 4.574219 -6.078125 L 5.195312 -5.128906 L 5.582031 -4.621094 L 5.820312 -4.183594 L 6.199219 -3.820312 L 6.433594 -3.457031 L 7.507812 -2.300781 L 8.875 -1.226562 L 9.933594 -0.589844 L 10.464844 -0.308594 L 11.585938 -0.0429688 L 12.179688 0.0117188 L 13.902344 0.480469 L 14.574219 0.535156 L 15.09375 0.59375 L 16.058594 0.492188 Z M 17.101562 -9.417969 L 16.65625 -9.476562 L 16.054688 -9.609375 L 15.457031 -9.8125 L 15.074219 -10.171875 L 14.609375 -10.828125 L 14.453125 -11.121094 L 14.214844 -11.632812 L 14.152344 -13.710938 L 13.914062 -14.222656 L 14.191406 -14.976562 L 14.238281 -15.867188 L 14 -16.378906 L 14.207031 -16.90625 L 14.191406 -17.425781 L 14.382812 -18.546875 L 14.363281 -19.140625 L 14.496094 -19.664062 L 14.480469 -20.257812 L 14.609375 -20.929688 L 14.527344 -21.222656 L 14.660156 -21.746094 L 14.566406 -22.339844 L 14.90625 -23.386719 L 15.113281 -23.914062 L 15.023438 -24.507812 L 15.082031 -25.027344 L 15.066406 -25.546875 L 15.183594 -26.589844 L 15.316406 -27.113281 L 15.578125 -28.308594 L 15.785156 -28.910156 L 15.898438 -30.027344 L 16.035156 -30.550781 L 16.09375 -31.074219 L 16.28125 -32.265625 L 16.472656 -33.3125 L 16.738281 -34.359375 L 16.800781 -34.808594 L 16.992188 -35.851562 L 17.046875 -36.449219 L 17.042969 -36.597656 L 17.441406 -38.167969 L 17.574219 -38.765625 L 17.707031 -39.289062 L 18.125 -40.269531 L 18.40625 -40.796875 L 18.675781 -41.695312 L 19.171875 -42.527344 L 19.894531 -43.21875 L 21.066406 -43.695312 L 21.65625 -43.863281 L 23.066406 -43.980469 L 24.265625 -43.496094 L 24.804688 -42.839844 L 25.117188 -42.40625 L 25.457031 -40.929688 L 25.339844 -39.886719 L 25.292969 -38.917969 L 25.183594 -37.578125 L 25.210938 -36.613281 L 25.085938 -35.941406 L 24.890625 -34.898438 L 24.761719 -34.300781 L 24.714844 -33.332031 L 24.804688 -32.816406 L 24.671875 -32.292969 L 24.539062 -31.695312 L 24.417969 -30.796875 L 24.15625 -29.675781 L 24.265625 -28.417969 L 24.054688 -27.964844 L 23.949219 -26.550781 L 23.746094 -25.953125 L 23.542969 -25.277344 L 23.445312 -23.566406 L 23.253906 -22.445312 L 23.050781 -21.773438 L 23.132812 -21.550781 L 23.148438 -20.957031 L 22.9375 -20.503906 L 22.882812 -19.910156 L 22.6875 -18.9375 L 22.480469 -18.414062 L 22.4375 -17.371094 L 22.234375 -16.773438 L 22.113281 -15.726562 L 21.980469 -15.203125 L 21.792969 -14.085938 L 21.808594 -13.492188 L 21.675781 -12.96875 L 21.261719 -11.914062 L 20.773438 -10.859375 L 19.753906 -10.089844 L 19.097656 -9.773438 L 18.066406 -9.445312 Z M 17.101562 -9.417969 "/></g></g></g><g fill="rgb(100%, 100%, 100%)" fill-opacity="1"><g transform="translate(146.609578, 99.57416)"><g><path d="M 9.207031 -0.046875 L 10.09375 -0.296875 L 16.546875 -0.488281 L 17.425781 -0.882812 L 17.5625 -1.335938 L 17.753906 -2.378906 L 17.871094 -3.421875 L 18.257812 -5.515625 L 18.578125 -7.15625 L 18.488281 -7.75 L 18.679688 -8.792969 L 18.8125 -9.390625 L 19.136719 -10.960938 L 19.328125 -11.933594 L 19.390625 -12.453125 L 19.65625 -13.429688 L 19.84375 -14.621094 L 20.035156 -15.667969 L 19.949219 -16.183594 L 20.007812 -16.632812 L 20.066406 -17.152344 L 20.339844 -18.050781 L 20.398438 -18.574219 L 20.53125 -19.023438 L 20.59375 -19.472656 L 20.570312 -20.214844 L 20.699219 -20.886719 L 20.890625 -22.003906 L 21.082031 -23.050781 L 21.070312 -23.496094 L 21.203125 -23.945312 L 21.246094 -24.988281 L 21.527344 -25.515625 L 21.726562 -26.410156 L 21.769531 -27.378906 L 21.757812 -27.898438 L 21.964844 -28.351562 L 22.15625 -29.394531 L 22.289062 -29.917969 L 22.40625 -31.035156 L 22.75 -31.9375 L 22.734375 -32.457031 L 22.796875 -32.90625 L 22.84375 -33.796875 L 22.832031 -34.242188 L 23.101562 -35.214844 L 23.441406 -36.265625 L 23.28125 -36.632812 L 23.5625 -37.234375 L 23.816406 -38.578125 L 23.878906 -39.101562 L 23.996094 -40.070312 L 24.132812 -40.519531 L 24.121094 -40.964844 L 24.328125 -41.492188 L 24.238281 -41.933594 L 24.371094 -42.457031 L 25.039062 -42.550781 L 28.15625 -42.570312 L 28.898438 -42.589844 L 29.566406 -42.683594 L 30.453125 -42.710938 L 31.125 -42.65625 L 31.863281 -42.753906 L 32.140625 -43.429688 L 32.1875 -44.46875 L 32.320312 -44.992188 L 32.585938 -45.96875 L 32.636719 -46.859375 L 32.695312 -47.308594 L 32.828125 -47.832031 L 32.953125 -48.726562 L 32.9375 -49.171875 L 33.070312 -49.695312 L 33.132812 -50.144531 L 33.117188 -50.660156 L 33.25 -51.261719 L 33.308594 -51.78125 L 33.292969 -52.226562 L 33.128906 -52.816406 L 32.457031 -52.945312 L 31.414062 -52.988281 L 26.8125 -52.851562 L 26.144531 -52.90625 L 24.585938 -52.789062 L 23.472656 -52.828125 L 18.726562 -52.613281 L 17.09375 -52.566406 L 16.570312 -52.625 L 11.082031 -52.464844 L 10.5625 -52.375 L 10.042969 -52.359375 L 9.671875 -52.421875 L 7.742188 -52.367188 L 7.222656 -52.277344 L 6.570312 -51.738281 L 6.222656 -50.910156 L 6.164062 -50.460938 L 6.195312 -49.421875 L 5.984375 -48.972656 L 5.714844 -48 L 5.671875 -46.957031 L 5.535156 -46.507812 L 5.269531 -45.460938 L 5.359375 -44.941406 L 5.378906 -44.347656 L 5.171875 -43.75 L 5.050781 -42.855469 L 5.292969 -42.191406 L 5.96875 -41.988281 L 6.5625 -42.007812 L 7.304688 -41.953125 L 7.972656 -41.972656 L 8.488281 -42.0625 L 9.53125 -42.019531 L 13.539062 -42.136719 L 13.5 -40.949219 L 13.382812 -39.832031 L 13.25 -39.308594 L 13.054688 -38.335938 L 13.070312 -37.890625 L 13.011719 -37.371094 L 13.023438 -36.925781 L 12.960938 -36.476562 L 12.625 -35.277344 L 12.492188 -34.753906 L 12.433594 -34.234375 L 12.453125 -33.640625 L 12.3125 -33.265625 L 12.335938 -32.523438 L 11.988281 -31.695312 L 12.078125 -31.179688 L 11.890625 -30.058594 L 11.753906 -29.609375 L 11.769531 -29.089844 L 11.484375 -28.636719 L 11.351562 -28.109375 L 11.371094 -27.445312 L 11.171875 -26.695312 L 11.203125 -25.65625 L 11.066406 -25.207031 L 10.722656 -24.304688 L 10.886719 -23.789062 L 10.753906 -23.265625 L 10.488281 -22.144531 L 10.148438 -21.09375 L 10.015625 -20.570312 L 9.957031 -20.050781 L 10.125 -19.3125 L 9.777344 -18.558594 L 9.734375 -17.515625 L 9.597656 -17.066406 L 9.476562 -16.097656 L 9.417969 -15.578125 L 9.285156 -15.054688 L 9.097656 -13.933594 L 8.898438 -13.035156 L 8.917969 -12.441406 L 8.59375 -10.875 L 8.683594 -10.28125 L 8.625 -9.761719 L 8.285156 -8.710938 L 8.300781 -8.191406 L 8.257812 -7.148438 L 8.121094 -6.699219 L 8.078125 -5.585938 L 7.945312 -5.0625 L 7.472656 -3.488281 L 7.445312 -1.925781 L 7.328125 -0.808594 L 8.015625 -0.234375 L 8.535156 -0.25 Z M 9.207031 -0.046875 "/></g></g></g><g fill="rgb(100%, 100%, 100%)" fill-opacity="1"><g transform="translate(175.548909, 98.721624)"><g><path d="M 10.246094 -0.152344 L 12.175781 -0.210938 L 12.984375 -0.457031 L 13.1875 -1.132812 L 13.242188 -1.726562 L 13.4375 -2.699219 L 13.554688 -3.742188 L 13.75 -4.710938 L 13.992188 -6.503906 L 14.191406 -7.324219 L 14.175781 -7.84375 L 14.296875 -8.8125 L 14.414062 -9.855469 L 14.605469 -10.902344 L 14.589844 -11.496094 L 14.859375 -12.46875 L 14.914062 -13.066406 L 15.105469 -14.183594 L 15.007812 -15 L 15.355469 -15.75 L 15.324219 -16.789062 L 15.386719 -17.164062 L 15.507812 -18.207031 L 15.488281 -18.800781 L 15.753906 -19.847656 L 15.738281 -20.441406 L 16.003906 -21.488281 L 16.125 -22.382812 L 16.246094 -23.355469 L 16.441406 -24.324219 L 16.421875 -24.917969 L 16.628906 -25.445312 L 16.894531 -26.492188 L 17.203125 -28.730469 L 17.402344 -29.476562 L 17.523438 -30.445312 L 17.507812 -30.964844 L 17.5625 -31.5625 L 17.621094 -32.082031 L 17.601562 -32.75 L 17.804688 -33.425781 L 17.996094 -34.472656 L 18.0625 -34.84375 L 18.253906 -35.816406 L 18.453125 -36.714844 L 18.570312 -37.683594 L 18.628906 -38.203125 L 18.679688 -39.097656 L 18.738281 -39.617188 L 18.859375 -40.511719 L 18.996094 -40.960938 L 19.117188 -41.78125 L 19.433594 -43.722656 L 19.496094 -44.171875 L 19.480469 -44.691406 L 19.539062 -45.136719 L 19.523438 -45.730469 L 19.800781 -46.40625 L 19.917969 -47.449219 L 20.128906 -47.828125 L 20.109375 -48.496094 L 20.324219 -48.800781 L 20.234375 -49.242188 L 20.285156 -50.0625 L 20.429688 -50.289062 L 20.398438 -51.253906 L 20.460938 -51.699219 L 20.140625 -52.433594 L 19.320312 -52.632812 L 18.800781 -52.542969 L 14.871094 -52.425781 L 14.351562 -52.335938 L 13.3125 -52.308594 L 12.644531 -52.359375 L 11.53125 -52.253906 L 11.015625 -52.164062 L 10.578125 -51.855469 L 10.066406 -51.617188 L 9.566406 -50.859375 L 9.507812 -50.339844 L 9.375 -49.886719 L 9.257812 -48.769531 L 8.984375 -47.945312 L 8.859375 -47.125 L 8.8125 -46.234375 L 8.675781 -45.78125 L 8.617188 -45.335938 L 8.421875 -44.363281 L 8.304688 -43.320312 L 8.167969 -42.945312 L 8.121094 -41.980469 L 8.066406 -41.382812 L 8.152344 -40.867188 L 7.886719 -39.890625 L 7.828125 -39.371094 L 7.632812 -38.398438 L 7.570312 -37.953125 L 7.300781 -37.054688 L 7.390625 -36.535156 L 7.328125 -36.089844 L 7.210938 -35.046875 L 7.003906 -34.519531 L 7.035156 -33.480469 L 6.859375 -31.914062 L 6.519531 -30.867188 L 6.324219 -29.894531 L 6.203125 -29 L 6.230469 -28.035156 L 5.949219 -27.433594 L 5.832031 -26.390625 L 5.847656 -25.871094 L 5.582031 -24.820312 L 5.613281 -23.78125 L 5.496094 -22.738281 L 5.433594 -22.292969 L 5.375 -21.769531 L 5.242188 -21.246094 L 5.253906 -20.800781 L 5.140625 -19.683594 L 4.667969 -18.035156 L 4.757812 -17.519531 L 4.625 -16.996094 L 4.5625 -16.546875 L 4.429688 -16.023438 L 4.445312 -15.503906 L 4.324219 -14.609375 L 4.195312 -13.9375 L 3.992188 -13.261719 L 3.863281 -12.589844 L 3.664062 -11.769531 L 3.480469 -10.425781 L 3.566406 -9.984375 L 3.300781 -9.007812 L 3.242188 -8.488281 L 3.109375 -7.890625 L 3.050781 -7.367188 L 2.859375 -6.25 L 2.804688 -5.652344 L 2.6875 -4.609375 L 2.554688 -4.085938 L 2.511719 -2.96875 L 2.171875 -1.921875 L 2.277344 -0.808594 L 2.886719 -0.308594 L 3.484375 -0.175781 L 4.078125 -0.269531 L 4.597656 -0.210938 L 5.417969 -0.160156 L 5.933594 -0.25 L 6.527344 -0.265625 L 7.570312 -0.148438 L 9.722656 -0.210938 Z M 10.246094 -0.152344 "/></g></g></g><g fill="rgb(100%, 100%, 100%)" fill-opacity="1"><g transform="translate(195.064412, 98.146708)"><g><path d="M 3.789062 0.0351562 L 11.65625 -0.195312 L 12.460938 -0.515625 L 12.664062 -1.265625 L 12.933594 -2.164062 L 13.117188 -3.503906 L 13.253906 -3.957031 L 13.222656 -4.921875 L 13.28125 -5.441406 L 13.476562 -6.414062 L 13.710938 -8.574219 L 13.84375 -9.097656 L 13.90625 -9.542969 L 14.023438 -10.589844 L 14.273438 -12.082031 L 14.539062 -13.203125 L 14.65625 -14.246094 L 14.71875 -14.695312 L 14.628906 -15.210938 L 14.761719 -15.734375 L 14.957031 -16.632812 L 14.792969 -17.148438 L 14.988281 -18.117188 L 15.125 -18.566406 L 15.335938 -21.46875 L 15.75 -25.046875 L 15.769531 -26.90625 L 15.878906 -28.171875 L 15.929688 -28.988281 L 15.960938 -30.476562 L 15.972656 -32.554688 L 16.195312 -32.5625 L 16.726562 -29.753906 L 17.25 -27.097656 L 17.53125 -25.027344 L 17.972656 -22.660156 L 18.332031 -20.59375 L 18.523438 -19.1875 L 18.863281 -17.710938 L 18.894531 -16.597656 L 18.984375 -16.15625 L 19.234375 -15.125 L 19.324219 -14.679688 L 19.578125 -13.648438 L 19.589844 -13.203125 L 19.84375 -12.097656 L 20.089844 -11.285156 L 20.199219 -10.175781 L 20.378906 -9.140625 L 20.464844 -8.699219 L 20.808594 -7.148438 L 20.894531 -6.707031 L 21.089844 -5.152344 L 21.175781 -4.707031 L 21.277344 -3.820312 L 21.363281 -3.453125 L 21.765625 -2.421875 L 22.390625 -1.253906 L 23 -0.75 L 24.261719 -0.789062 L 25.230469 -0.742188 L 26.714844 -0.785156 L 27.15625 -0.875 L 27.902344 -0.820312 L 28.417969 -0.910156 L 29.832031 -0.878906 L 30.128906 -0.886719 L 30.9375 -1.058594 L 31.976562 -1.164062 L 32.703125 -1.707031 L 33.34375 -2.617188 L 33.644531 -5 L 33.839844 -5.972656 L 33.972656 -6.496094 L 33.960938 -6.941406 L 34.300781 -7.917969 L 34.265625 -9.105469 L 34.535156 -10.152344 L 34.738281 -10.753906 L 34.859375 -11.722656 L 34.90625 -12.6875 L 34.953125 -13.507812 L 35.226562 -14.40625 L 35.503906 -15.082031 L 35.628906 -15.828125 L 35.746094 -16.871094 L 36.011719 -17.921875 L 36 -18.367188 L 36.0625 -18.8125 L 36.121094 -19.335938 L 36.179688 -19.78125 L 36.234375 -20.453125 L 36.363281 -21.125 L 36.554688 -22.167969 L 36.765625 -22.621094 L 36.738281 -23.585938 L 36.796875 -24.035156 L 36.855469 -24.554688 L 36.992188 -25.003906 L 37.050781 -25.527344 L 37.1875 -25.976562 L 37.09375 -26.640625 L 37.222656 -27.238281 L 37.339844 -28.28125 L 37.535156 -29.253906 L 37.667969 -29.777344 L 37.863281 -30.75 L 37.992188 -31.347656 L 38.054688 -31.867188 L 38.101562 -32.6875 L 38.304688 -33.363281 L 38.539062 -35.597656 L 38.671875 -36.121094 L 38.640625 -37.085938 L 38.773438 -37.609375 L 38.90625 -38.207031 L 39.109375 -38.882812 L 39.222656 -40.074219 L 39.484375 -41.269531 L 39.660156 -42.832031 L 39.792969 -43.433594 L 39.976562 -44.773438 L 40.171875 -45.597656 L 40.566406 -47.390625 L 40.683594 -48.433594 L 40.859375 -50.074219 L 40.765625 -50.664062 L 40.957031 -51.710938 L 40.941406 -52.304688 L 40.851562 -52.894531 L 40.398438 -53.105469 L 39.351562 -53.296875 L 38.316406 -53.191406 L 37.574219 -53.171875 L 35.863281 -53.195312 L 35.121094 -53.171875 L 34.605469 -53.082031 L 33.042969 -53.183594 L 31.640625 -52.847656 L 31.351562 -52.617188 L 30.789062 -51.558594 L 30.539062 -49.992188 L 30.351562 -48.796875 L 30.289062 -48.351562 L 30.308594 -47.683594 L 30.101562 -47.082031 L 29.96875 -46.558594 L 29.777344 -45.511719 L 29.722656 -44.917969 L 29.605469 -43.875 L 29.46875 -43.425781 L 29.410156 -42.902344 L 29.214844 -41.933594 L 29.226562 -41.488281 L 29.046875 -40.144531 L 29.132812 -39.628906 L 28.714844 -38.722656 L 28.730469 -38.203125 L 28.683594 -37.3125 L 28.710938 -36.421875 L 28.441406 -35.449219 L 28.453125 -35.003906 L 28.335938 -33.960938 L 28.199219 -33.507812 L 28.15625 -32.46875 L 28.101562 -31.871094 L 28.042969 -31.351562 L 27.980469 -30.902344 L 27.789062 -29.859375 L 27.863281 -27.335938 L 27.6875 -25.769531 L 27.570312 -22.203125 L 27.597656 -21.164062 L 27.503906 -19.378906 L 27.472656 -17.890625 L 27.25 -17.886719 L 26.980469 -19.511719 L 26.699219 -21.507812 L 26.523438 -22.394531 L 26.359375 -22.910156 L 26.34375 -23.429688 L 26.148438 -25.054688 L 25.800781 -26.753906 L 25.519531 -28.75 L 25.351562 -29.339844 L 25.175781 -30.375 L 25.066406 -31.558594 L 24.804688 -32.816406 L 24.621094 -34.074219 L 24.363281 -35.179688 L 24.265625 -35.992188 L 24.25 -36.511719 L 24.003906 -37.320312 L 23.992188 -37.765625 L 23.738281 -38.726562 L 23.558594 -39.835938 L 23.46875 -40.351562 L 23.304688 -40.941406 L 22.960938 -42.417969 L 22.710938 -43.449219 L 22.449219 -44.703125 L 22.191406 -45.882812 L 21.84375 -47.65625 L 21.515625 -48.6875 L 21.417969 -49.5 L 21.242188 -50.386719 L 20.921875 -51.121094 L 20.835938 -51.636719 L 20.367188 -52.292969 L 19.546875 -52.492188 L 18.507812 -52.460938 L 17.390625 -52.5 L 16.503906 -52.402344 L 15.089844 -52.433594 L 14.128906 -52.332031 L 13.460938 -52.3125 L 12.199219 -52.347656 L 11.160156 -52.242188 L 10.421875 -52.074219 L 10.003906 -51.242188 L 9.789062 -50.867188 L 9.65625 -50.417969 L 9.460938 -49.445312 L 9.476562 -48.851562 L 9.285156 -47.878906 L 9.164062 -46.984375 L 9.042969 -46.015625 L 8.984375 -45.496094 L 8.847656 -45.046875 L 8.789062 -44.523438 L 8.726562 -44.078125 L 8.667969 -43.554688 L 8.625 -42.585938 L 8.496094 -41.914062 L 8.21875 -41.238281 L 8.234375 -40.71875 L 7.921875 -38.628906 L 7.789062 -38.179688 L 7.730469 -37.660156 L 7.753906 -36.769531 L 7.550781 -36.09375 L 7.351562 -35.273438 L 7.234375 -34.304688 L 7.101562 -33.777344 L 7.117188 -33.257812 L 6.910156 -32.734375 L 6.925781 -32.140625 L 6.71875 -31.539062 L 6.664062 -30.945312 L 6.695312 -29.90625 L 6.566406 -29.160156 L 6.4375 -28.5625 L 6.09375 -27.660156 L 6.039062 -26.914062 L 5.996094 -25.875 L 5.9375 -25.351562 L 5.875 -24.90625 L 5.53125 -24.003906 L 5.542969 -23.558594 L 5.484375 -23.109375 L 5.4375 -22.144531 L 5.300781 -21.695312 L 5.242188 -21.171875 L 5.121094 -20.277344 L 4.921875 -19.457031 L 4.792969 -18.78125 L 4.671875 -17.886719 L 4.410156 -16.691406 L 4.289062 -15.722656 L 4.378906 -15.207031 L 4.320312 -14.757812 L 4.121094 -13.863281 L 4.0625 -13.339844 L 4.015625 -12.445312 L 3.734375 -11.917969 L 3.761719 -10.953125 L 3.632812 -10.355469 L 3.648438 -9.835938 L 3.457031 -8.644531 L 3.332031 -7.96875 L 3.136719 -6.925781 L 3 -6.550781 L 2.808594 -5.503906 L 2.75 -4.984375 L 2.484375 -3.933594 L 2.371094 -2.742188 L 2.40625 -1.554688 L 2.273438 -0.957031 L 2.671875 -0.078125 Z M 3.789062 0.0351562 "/></g></g></g><g fill="rgb(100%, 100%, 100%)" fill-opacity="1"><g transform="translate(235.060057, 96.968459)"><g><path d="M 6.015625 -0.0273438 L 6.605469 -0.121094 L 8.6875 -0.105469 L 9.121094 -0.417969 L 9.40625 -0.945312 L 9.617188 -1.324219 L 9.816406 -2.144531 L 10.226562 -3.273438 L 10.925781 -4.703125 L 11.199219 -5.601562 L 11.40625 -6.128906 L 11.539062 -6.652344 L 12.03125 -7.632812 L 12.375 -8.460938 L 14.378906 -8.519531 L 17.648438 -8.539062 L 18.839844 -8.425781 L 20.472656 -8.402344 L 20.566406 -7.808594 L 20.667969 -4.324219 L 20.617188 -3.578125 L 20.710938 -2.839844 L 20.824219 -1.503906 L 20.996094 -0.765625 L 21.300781 -0.554688 L 22.414062 -0.585938 L 23.378906 -0.539062 L 24.117188 -0.636719 L 24.636719 -0.726562 L 25.527344 -0.679688 L 26.121094 -0.695312 L 27.753906 -0.816406 L 28.792969 -0.847656 L 29.386719 -0.792969 L 29.90625 -0.882812 C 30.203125 -0.890625 30.425781 -0.820312 30.722656 -0.90625 C 31.085938 -1.136719 30.992188 -1.804688 30.910156 -2.097656 L 30.863281 -3.65625 L 30.742188 -5.289062 L 30.722656 -5.957031 L 30.628906 -6.546875 L 30.671875 -7.585938 L 30.640625 -8.699219 L 30.550781 -9.21875 L 30.449219 -10.179688 L 30.433594 -10.625 L 30.203125 -13.441406 L 30.261719 -13.964844 L 30.15625 -15 L 30.199219 -16.113281 L 30.089844 -17.226562 L 30.078125 -17.746094 L 29.902344 -21.15625 L 29.835938 -23.382812 L 29.746094 -23.972656 L 29.644531 -24.863281 L 29.558594 -27.757812 L 29.386719 -28.566406 L 29.277344 -29.753906 L 29.265625 -30.199219 L 29.160156 -31.160156 L 29.222656 -31.609375 L 29.117188 -32.644531 L 29.074219 -34.128906 L 28.894531 -35.164062 L 28.847656 -36.796875 L 28.90625 -37.316406 L 28.796875 -38.429688 L 28.769531 -39.46875 L 28.574219 -40.949219 L 28.472656 -41.910156 L 28.441406 -42.949219 L 28.289062 -45.617188 L 28.25 -46.953125 L 28.089844 -47.394531 L 28.039062 -49.027344 L 27.722656 -52.210938 L 27.195312 -52.566406 L 26.820312 -52.703125 L 25.632812 -52.667969 L 24.964844 -52.574219 L 24.441406 -52.707031 L 23.773438 -52.6875 L 22.367188 -52.574219 L 21.179688 -52.539062 L 20.4375 -52.441406 L 19.027344 -52.476562 L 18.285156 -52.453125 L 17.765625 -52.363281 L 17.496094 -51.539062 L 17.285156 -51.085938 L 17.078125 -50.5625 L 16.449219 -49.207031 L 15.957031 -48.226562 L 15.550781 -46.875 L 15.414062 -46.5 L 15.132812 -46.046875 L 14.710938 -45.21875 L 14.578125 -44.695312 L 14.441406 -44.246094 L 14.230469 -43.792969 L 14.097656 -43.269531 L 13.46875 -41.914062 L 13.261719 -41.386719 L 13.0625 -40.640625 L 12.636719 -39.957031 L 12.425781 -39.507812 L 12.085938 -38.53125 L 11.539062 -36.953125 L 11.253906 -36.5 L 10.898438 -35.96875 L 10.707031 -34.925781 L 10.289062 -33.949219 L 10.152344 -33.570312 L 9.957031 -32.601562 L 9.601562 -32.070312 L 9.40625 -31.097656 L 9.199219 -30.648438 L 8.777344 -29.816406 L 8.441406 -28.546875 L 7.953125 -27.566406 L 7.746094 -26.964844 L 7.214844 -24.871094 L 7.003906 -24.417969 L 6.664062 -23.367188 L 6.453125 -22.917969 L 6.246094 -22.390625 L 6.1875 -21.941406 L 5.773438 -20.890625 L 5.636719 -20.367188 L 5.21875 -19.464844 L 4.867188 -18.859375 L 4.738281 -18.1875 L 4.605469 -17.664062 L 4.117188 -16.609375 L 3.90625 -16.082031 L 3.566406 -15.109375 L 3.355469 -14.65625 L 3.296875 -14.132812 L 3.160156 -13.683594 L 2.816406 -12.78125 L 2.460938 -12.253906 L 2.324219 -11.804688 L 1.773438 -10.449219 L 1.503906 -9.476562 L 0.738281 -7.671875 L 0.394531 -6.769531 L -0.0234375 -5.867188 L -0.699219 -3.617188 L -1.265625 -2.636719 L -1.683594 -1.734375 L -1.746094 -1.285156 L -1.878906 -0.761719 L -1.714844 -0.171875 L -1.042969 -0.0429688 L 4.378906 -0.128906 L 4.898438 -0.0703125 Z M 17.730469 -18.273438 L 17.0625 -18.328125 L 16.242188 -18.378906 L 15.648438 -18.359375 L 15.117188 -18.789062 L 15.324219 -19.316406 L 15.453125 -19.988281 L 15.585938 -20.511719 L 15.921875 -21.785156 L 16.203125 -22.3125 L 16.539062 -23.4375 L 16.597656 -23.957031 L 16.996094 -25.605469 L 17.199219 -26.277344 L 17.40625 -26.804688 L 17.609375 -27.480469 L 17.890625 -28.007812 L 17.949219 -28.527344 L 18.226562 -29.277344 L 18.503906 -29.882812 L 18.839844 -31.078125 L 19.039062 -31.828125 L 19.378906 -33.027344 L 19.644531 -34 L 20.234375 -34.238281 L 20.355469 -32.535156 L 20.363281 -29.863281 L 20.371094 -27.039062 L 20.496094 -25.261719 L 20.367188 -24.664062 L 20.402344 -23.402344 L 20.34375 -22.878906 L 20.402344 -20.949219 L 20.34375 -20.355469 L 20.4375 -19.761719 L 20.390625 -18.722656 L 19.957031 -18.339844 Z M 17.730469 -18.273438 "/></g></g></g><g fill="rgb(100%, 100%, 100%)" fill-opacity="1"><g transform="translate(268.15479, 95.993507)"><g/></g></g><g fill="rgb(100%, 87.059021%, 34.899902%)" fill-opacity="1"><g transform="translate(284.770282, 95.504024)"><g><path d="M 10.910156 -0.246094 L 11.5 -0.339844 L 12.6875 -0.449219 L 14.246094 -0.492188 L 14.6875 -0.582031 L 15.65625 -0.535156 L 16.839844 -0.644531 L 23.890625 -0.851562 L 24.089844 -1.675781 L 24.21875 -2.347656 L 24.253906 -3.609375 L 24.445312 -4.730469 L 24.503906 -5.253906 L 24.636719 -5.703125 L 24.769531 -6.226562 L 24.742188 -7.191406 L 24.992188 -8.832031 L 25.046875 -9.425781 L 25.171875 -10.25 L 25.238281 -10.546875 L 25.292969 -11.144531 L 24.769531 -11.351562 L 22.691406 -11.214844 L 21.058594 -11.242188 L 20.015625 -11.285156 L 15.640625 -11.15625 L 14.597656 -11.273438 L 14.289062 -11.5625 L 14.273438 -12.15625 L 14.511719 -14.09375 L 14.695312 -15.433594 L 14.828125 -15.960938 L 14.882812 -16.703125 L 15.011719 -17.375 L 15.210938 -18.125 L 15.445312 -20.210938 L 15.640625 -21.183594 L 15.914062 -22.007812 L 16.582031 -22.027344 L 17.542969 -22.128906 L 18.359375 -22.152344 L 19.625 -22.117188 L 21.476562 -22.246094 L 22.144531 -22.265625 L 23.253906 -22.371094 L 23.996094 -22.394531 L 24.140625 -22.546875 L 24.257812 -23.589844 L 24.449219 -24.785156 L 24.566406 -25.828125 L 24.769531 -26.425781 L 24.753906 -26.945312 L 24.945312 -28.066406 L 25.078125 -28.589844 L 25.269531 -29.636719 L 25.394531 -30.457031 L 25.375 -31.050781 L 25.5 -31.945312 L 25.035156 -32.523438 L 24.4375 -32.65625 L 22.507812 -32.597656 L 21.101562 -32.410156 L 18.503906 -32.40625 L 17.167969 -32.367188 L 17.277344 -33.707031 L 17.476562 -34.457031 L 17.386719 -35.046875 L 17.519531 -35.570312 L 17.710938 -36.617188 L 17.828125 -37.660156 L 18.011719 -39.078125 L 17.992188 -39.671875 L 18.203125 -40.121094 L 18.171875 -41.160156 L 18.230469 -41.683594 L 18.425781 -42.578125 L 20.207031 -42.707031 L 25.027344 -42.847656 L 25.917969 -42.949219 L 29.035156 -43.039062 L 29.773438 -43.136719 L 29.96875 -44.109375 L 30.027344 -44.554688 L 30.296875 -45.601562 L 30.277344 -46.195312 L 30.46875 -47.316406 L 30.527344 -47.761719 L 30.585938 -48.285156 L 30.796875 -48.8125 L 30.78125 -49.257812 L 30.875 -51.117188 L 30.863281 -51.5625 L 31.0625 -52.382812 L 30.675781 -52.890625 L 30.003906 -52.945312 L 29.261719 -53 L 28.59375 -52.90625 L 26.960938 -52.855469 L 24.8125 -52.71875 L 24.21875 -52.777344 L 22.507812 -52.800781 L 16.945312 -52.5625 L 15.3125 -52.441406 L 14.574219 -52.417969 L 13.976562 -52.476562 L 13.457031 -52.460938 L 12.570312 -52.359375 L 12.046875 -52.417969 L 11.605469 -52.332031 L 10.34375 -52.292969 L 9.761719 -51.832031 L 9.699219 -51.382812 L 9.492188 -50.929688 L 9.296875 -50.035156 L 9.457031 -49.519531 L 9.398438 -49.070312 L 9.351562 -48.105469 L 9.289062 -47.65625 L 9.15625 -47.207031 L 9.109375 -46.242188 L 8.976562 -45.71875 L 9.0625 -45.273438 L 8.855469 -44.75 L 8.871094 -44.230469 L 8.664062 -43.777344 L 8.542969 -42.734375 L 8.277344 -41.761719 L 8.21875 -41.238281 L 8.304688 -40.796875 L 8.246094 -40.273438 L 8.113281 -39.675781 L 7.832031 -39.222656 L 7.804688 -37.660156 L 7.59375 -37.136719 L 7.582031 -35.054688 L 7.320312 -33.933594 L 7.125 -32.886719 L 7.214844 -32.445312 L 7.082031 -31.921875 L 6.875 -31.320312 L 6.496094 -29.082031 L 6.210938 -28.628906 L 6.226562 -28.109375 L 6.167969 -27.585938 L 6.113281 -26.992188 L 5.90625 -26.464844 L 5.789062 -25.347656 L 5.523438 -24.300781 L 5.554688 -23.1875 L 5.304688 -21.621094 L 5.171875 -21.097656 L 4.980469 -19.976562 L 4.921875 -19.457031 L 4.714844 -18.929688 L 4.519531 -17.957031 L 4.609375 -17.515625 L 4.339844 -16.617188 L 4.347656 -16.246094 L 4.230469 -15.277344 L 4.097656 -14.675781 L 4.113281 -14.15625 L 4 -12.964844 L 3.71875 -12.363281 L 3.601562 -11.394531 L 3.558594 -10.355469 L 3.5 -9.832031 L 3.367188 -9.234375 L 3.382812 -8.714844 L 3.25 -8.191406 L 3.269531 -7.523438 L 3.0625 -6.921875 L 3.023438 -5.734375 L 2.761719 -4.613281 L 2.648438 -3.421875 L 2.53125 -2.300781 L 2.402344 -1.628906 L 2.199219 -0.957031 L 2.441406 -0.292969 L 3.113281 -0.167969 L 7.046875 -0.28125 L 7.570312 -0.222656 L 9.5 -0.28125 Z M 10.910156 -0.246094 "/></g></g></g><g fill="rgb(100%, 87.059021%, 34.899902%)" fill-opacity="1"><g transform="translate(312.744974, 94.679906)"><g><path d="M 21.527344 -0.410156 L 22.710938 -0.59375 L 24.414062 -0.644531 L 27.234375 -0.800781 L 28.496094 -0.765625 L 29.015625 -0.855469 L 29.980469 -0.882812 L 30.9375 -1.058594 L 31.449219 -1.445312 L 31.113281 -2.699219 L 30.949219 -3.214844 L 30.5625 -3.722656 L 30.398438 -4.238281 L 30.214844 -5.421875 L 29.890625 -6.449219 L 29.652344 -6.890625 L 29.484375 -7.554688 L 29.386719 -8.367188 L 29.300781 -8.808594 L 28.824219 -9.761719 L 28.8125 -10.207031 L 28.648438 -10.722656 L 28.324219 -11.679688 L 28.164062 -12.117188 L 28 -12.632812 L 27.667969 -13.738281 L 27.179688 -15.285156 L 27.015625 -15.722656 L 26.847656 -16.386719 L 26.519531 -17.417969 L 26.269531 -18.449219 L 26.027344 -19.039062 L 25.777344 -19.996094 L 25.609375 -20.585938 L 25.371094 -21.171875 L 25.28125 -21.6875 L 25.191406 -22.28125 L 24.863281 -23.234375 L 24.773438 -23.753906 L 24.519531 -24.859375 L 24.183594 -26.113281 L 24.011719 -26.925781 L 24.070312 -27.519531 L 24.710938 -28.429688 L 25.269531 -29.636719 L 25.554688 -30.089844 L 26.328125 -31.523438 L 27.179688 -32.886719 L 27.601562 -33.640625 L 27.949219 -34.46875 L 28.160156 -34.84375 L 28.65625 -35.675781 L 29.433594 -37.035156 L 29.78125 -37.863281 L 30.277344 -38.695312 L 30.40625 -39.367188 L 30.898438 -40.199219 L 31.183594 -40.726562 L 31.46875 -41.105469 L 31.894531 -41.714844 L 32.246094 -42.464844 L 32.667969 -43.222656 L 32.941406 -43.972656 L 33.148438 -44.5 L 33.660156 -44.886719 L 33.863281 -45.558594 L 34.070312 -46.011719 L 34.285156 -46.316406 L 34.777344 -47.21875 L 35.125 -48.121094 L 35.335938 -48.5 L 35.765625 -49.03125 L 35.972656 -49.484375 L 36.109375 -49.933594 L 36.390625 -50.460938 L 36.527344 -50.910156 L 36.660156 -51.433594 L 37.082031 -52.265625 L 36.992188 -52.78125 L 36.535156 -53.066406 L 34.980469 -53.019531 L 34.613281 -52.859375 L 34.089844 -52.992188 L 32.683594 -52.804688 L 32.164062 -52.789062 L 31.34375 -52.914062 L 30.53125 -52.738281 L 29.933594 -52.871094 L 27.855469 -52.808594 L 26.824219 -52.480469 L 26.539062 -52.101562 L 26.328125 -51.726562 L 25.984375 -50.824219 L 25.625 -50.292969 L 25.566406 -49.769531 L 25.359375 -49.320312 L 25.074219 -48.867188 L 24.941406 -48.339844 L 24.65625 -47.886719 L 24.316406 -46.910156 L 24.105469 -46.460938 L 23.820312 -46.007812 L 23.683594 -45.632812 L 23.402344 -45.175781 L 21.65625 -41.410156 L 21.378906 -40.660156 L 21.09375 -40.28125 L 20.957031 -39.832031 L 20.390625 -39 L 19.976562 -37.945312 L 19.628906 -37.042969 L 19.488281 -36.816406 L 19.265625 -36.8125 L 19.085938 -37.917969 L 18.84375 -38.582031 L 18.660156 -39.691406 L 18.421875 -40.277344 L 18.25 -41.089844 L 18.078125 -41.828125 L 17.90625 -42.636719 L 17.59375 -43.148438 L 17.425781 -43.738281 L 17.339844 -44.253906 L 17.15625 -45.363281 L 16.84375 -45.949219 L 16.753906 -46.390625 L 16.425781 -47.496094 L 16.414062 -47.941406 L 16.25 -48.457031 L 16.160156 -48.898438 L 15.832031 -50.003906 L 15.59375 -50.515625 L 15.417969 -51.402344 L 15.25 -52.066406 L 14.875 -52.277344 L 13.984375 -52.253906 L 13.460938 -52.3125 L 12.421875 -52.28125 L 11.757812 -52.1875 L 11.011719 -52.3125 L 9.972656 -52.28125 L 9.082031 -52.183594 L 5.742188 -52.082031 L 5.152344 -51.992188 L 4.578125 -51.308594 L 4.589844 -50.863281 L 4.679688 -50.34375 L 4.921875 -49.757812 L 5.160156 -49.246094 L 5.488281 -48.140625 L 5.652344 -47.625 L 6.128906 -46.597656 L 6.457031 -45.570312 L 6.78125 -44.613281 L 6.941406 -44.171875 L 7.195312 -43.214844 L 7.355469 -42.773438 L 7.832031 -41.746094 L 7.996094 -41.15625 L 8.234375 -40.644531 L 8.402344 -40.054688 L 8.726562 -39.027344 L 8.964844 -38.511719 L 9.132812 -37.921875 L 9.460938 -36.894531 L 9.773438 -36.308594 L 10.011719 -35.796875 L 10.265625 -34.761719 L 10.351562 -34.320312 L 10.753906 -33.292969 L 10.933594 -32.183594 L 11.171875 -31.671875 L 11.578125 -30.570312 L 11.667969 -30.050781 L 11.902344 -29.539062 L 12.308594 -28.4375 L 11.671875 -27.378906 L 11.328125 -26.402344 L 11.117188 -26.023438 L 10.90625 -25.574219 L 10.695312 -25.195312 L 10.125 -24.363281 L 9.992188 -23.910156 L 9.707031 -23.457031 L 9.496094 -23.082031 L 8.867188 -21.726562 L 8.660156 -21.199219 L 8.375 -20.746094 L 8.164062 -20.292969 L 7.75 -19.316406 L 7.46875 -18.789062 L 7.183594 -18.40625 L 6.613281 -17.5 L 6.121094 -16.59375 L 5.835938 -16.214844 L 5.625 -15.761719 L 5.492188 -15.3125 L 5.132812 -14.855469 L 5 -14.332031 L 4.65625 -13.429688 L 4.445312 -12.980469 L 3.816406 -11.699219 L 3.382812 -11.238281 L 3.246094 -10.863281 L 2.960938 -10.410156 L 2.6875 -9.585938 L 2.480469 -9.132812 L 2.34375 -8.683594 L 1.851562 -7.777344 L 1.640625 -7.328125 L 1.355469 -6.871094 L 1.148438 -6.421875 L 0.726562 -5.589844 L 0.515625 -5.140625 L -0.324219 -3.480469 L -0.671875 -2.578125 L -1.234375 -1.597656 L -1.34375 -0.257812 L -0.519531 0.015625 L 0.816406 -0.0234375 L 2 -0.132812 L 3.117188 -0.09375 L 4.304688 -0.125 L 5.046875 -0.0742188 L 6.753906 -0.125 L 7.792969 -0.230469 L 8.605469 -0.328125 L 9.03125 -1.007812 L 9.308594 -1.683594 L 9.59375 -2.140625 L 10.007812 -3.117188 L 10.214844 -3.71875 L 10.425781 -4.09375 L 10.84375 -5 L 10.980469 -5.449219 L 11.398438 -6.351562 L 11.605469 -6.878906 L 12.097656 -7.785156 L 12.308594 -8.308594 L 12.800781 -9.214844 L 13.007812 -9.667969 L 13.21875 -10.191406 L 14.277344 -12.007812 L 14.488281 -12.382812 L 14.773438 -12.839844 L 14.835938 -13.210938 L 15.121094 -13.664062 L 15.613281 -14.570312 L 16.171875 -15.777344 L 16.457031 -16.230469 L 16.675781 -16.3125 L 17 -15.429688 L 17.167969 -14.765625 L 17.421875 -13.734375 L 17.65625 -13.21875 L 17.753906 -12.554688 L 18 -11.671875 L 18.164062 -11.230469 L 18.339844 -10.269531 L 18.832031 -8.722656 L 19.082031 -7.765625 L 19.335938 -6.734375 L 19.664062 -5.628906 L 19.925781 -4.375 L 20.160156 -3.863281 L 20.253906 -3.269531 L 20.355469 -2.382812 L 20.519531 -1.792969 L 20.753906 -1.429688 L 20.839844 -1.058594 L 21.078125 -0.546875 Z M 21.527344 -0.410156 "/></g></g></g><g fill="rgb(100%, 87.059021%, 34.899902%)" fill-opacity="1"><g transform="translate(346.359125, 93.689652)"><g><path d="M 16.277344 0.410156 L 17.015625 0.242188 L 17.976562 0.140625 L 19.089844 0.105469 L 20.046875 -0.144531 L 20.933594 -0.320312 L 21.820312 -0.570312 L 23.734375 -1.070312 L 24.246094 -1.308594 L 25.414062 -2.085938 L 26.496094 -3.082031 L 27.570312 -4.453125 L 27.707031 -4.902344 L 27.917969 -5.351562 L 28.273438 -5.808594 L 28.558594 -6.261719 L 28.765625 -6.789062 L 29.109375 -7.691406 L 29.519531 -8.890625 L 29.730469 -9.34375 L 29.863281 -9.867188 L 29.921875 -10.386719 L 30.117188 -11.285156 L 30.507812 -13.152344 L 30.644531 -13.601562 L 30.820312 -15.167969 L 30.886719 -15.464844 L 30.945312 -15.988281 L 31.082031 -16.363281 L 31.132812 -17.183594 L 31.253906 -18.152344 L 31.238281 -18.671875 L 31.371094 -19.121094 L 31.347656 -19.9375 L 31.035156 -20.445312 L 30.5 -20.953125 L 29.609375 -21 L 25.964844 -21.113281 L 24.410156 -21.070312 L 22.476562 -21.085938 L 21.886719 -20.996094 L 21.382812 -20.386719 L 21.257812 -19.640625 L 20.914062 -18.664062 L 20.855469 -18.140625 L 20.726562 -17.46875 L 20.535156 -16.351562 L 20.339844 -15.453125 L 20.277344 -15.078125 L 20.214844 -14.632812 L 19.949219 -13.660156 L 19.605469 -12.609375 L 19.054688 -11.257812 L 18.765625 -10.875 L 17.746094 -10.179688 L 16.632812 -10.144531 L 15.453125 -9.960938 L 14.328125 -10.300781 L 13.71875 -10.800781 L 13.390625 -11.90625 L 13.375 -12.425781 L 13.285156 -12.867188 L 13.265625 -13.609375 L 13.308594 -14.652344 L 13.5 -15.699219 L 13.484375 -16.289062 L 13.660156 -17.855469 L 13.570312 -18.371094 L 13.703125 -18.898438 L 13.761719 -19.417969 L 13.746094 -20.011719 L 13.804688 -20.535156 L 14.011719 -21.058594 L 13.964844 -22.617188 L 14.15625 -23.738281 L 14.285156 -24.335938 L 14.40625 -25.304688 L 14.464844 -25.828125 L 14.726562 -27.023438 L 14.78125 -27.617188 L 15.289062 -30.605469 L 15.628906 -31.726562 L 15.746094 -32.769531 L 15.878906 -33.296875 L 15.941406 -33.742188 L 16 -34.265625 L 16.203125 -34.9375 L 16.398438 -35.835938 L 16.585938 -36.957031 L 16.859375 -37.855469 L 16.84375 -38.300781 L 17.253906 -39.574219 L 17.59375 -40.550781 L 17.855469 -41.820312 L 18.0625 -42.347656 L 18.273438 -42.796875 L 18.914062 -43.632812 L 19.722656 -43.953125 L 20.609375 -44.128906 L 21.425781 -44.152344 L 22.472656 -43.886719 L 23.304688 -43.464844 L 23.789062 -42.144531 L 23.820312 -41.03125 L 23.703125 -39.988281 L 23.65625 -39.019531 L 23.257812 -37.375 L 23.140625 -36.332031 L 22.882812 -34.988281 L 22.75 -34.464844 L 22.78125 -33.425781 L 23.324219 -32.625 L 25.484375 -32.390625 L 30.164062 -32.453125 L 31.199219 -32.558594 L 32.089844 -32.660156 L 32.375 -32.964844 L 32.691406 -34.902344 L 32.820312 -35.503906 L 33.179688 -38.410156 L 33.292969 -39.601562 L 33.410156 -40.71875 L 33.542969 -41.316406 L 33.59375 -42.0625 L 33.546875 -43.691406 L 33.4375 -44.804688 L 33.34375 -45.46875 L 33.242188 -46.433594 L 33.140625 -47.320312 L 32.96875 -48.132812 L 32.574219 -48.863281 L 32.414062 -49.378906 L 32.179688 -49.742188 L 31.789062 -50.398438 L 31.628906 -50.765625 L 30.789062 -51.484375 L 29.804688 -52.199219 L 28.753906 -52.539062 L 27.933594 -52.664062 L 27.628906 -52.878906 L 27.109375 -52.9375 L 26.585938 -53.070312 L 26.136719 -53.128906 L 25.09375 -53.246094 L 24.351562 -53.226562 L 23.675781 -53.429688 L 21.816406 -53.597656 L 20.628906 -53.5625 L 19.222656 -53.445312 L 18.109375 -53.414062 L 17.589844 -53.324219 L 16.632812 -53.074219 L 15.378906 -52.8125 L 13.839844 -52.097656 L 13.398438 -51.863281 L 12.449219 -51.390625 L 12.015625 -51.007812 L 11.007812 -49.9375 L 10.433594 -49.175781 L 9.9375 -48.417969 L 9.429688 -47.957031 L 9.15625 -47.132812 L 8.742188 -46.082031 L 8.398438 -45.179688 L 7.992188 -43.90625 L 7.722656 -42.859375 L 7.324219 -41.359375 L 6.847656 -39.863281 L 6.652344 -38.890625 L 6.445312 -38.363281 L 6.386719 -37.84375 L 6.324219 -37.394531 L 6.191406 -36.871094 L 6.132812 -36.351562 L 5.921875 -35.898438 L 5.871094 -35.152344 L 5.746094 -34.332031 L 5.613281 -33.808594 L 5.285156 -32.316406 L 5.316406 -31.277344 L 5.109375 -30.824219 L 5.121094 -30.378906 L 5.074219 -29.484375 L 4.871094 -28.738281 L 4.746094 -27.917969 L 4.550781 -27.09375 L 4.558594 -26.796875 L 4.492188 -26.574219 L 4.519531 -25.535156 L 4.238281 -25.078125 L 4.054688 -23.738281 L 4.140625 -23.367188 L 3.941406 -22.546875 L 3.808594 -21.949219 L 3.902344 -21.28125 L 3.636719 -20.234375 L 3.535156 -18.671875 L 3.472656 -18.222656 L 3.488281 -17.703125 L 3.371094 -16.660156 L 3.328125 -15.621094 L 3.269531 -15.023438 L 3.242188 -13.464844 L 3.300781 -11.535156 L 3.242188 -11.011719 L 3.261719 -10.34375 L 3.351562 -9.753906 L 3.394531 -8.34375 L 3.558594 -7.828125 L 3.734375 -6.867188 L 3.894531 -6.425781 L 4.148438 -5.46875 L 4.84375 -4.523438 L 5.394531 -3.5 L 5.773438 -3.140625 L 6.082031 -2.777344 L 7.070312 -2.066406 L 7.523438 -1.78125 L 7.902344 -1.496094 L 8.65625 -1.070312 L 9.113281 -0.714844 L 10.011719 -0.445312 L 10.988281 -0.101562 L 11.4375 -0.0390625 L 11.960938 0.09375 L 12.703125 0.144531 L 13.152344 0.207031 L 13.746094 0.261719 L 14.566406 0.3125 L 15.085938 0.371094 L 15.605469 0.355469 Z M 16.277344 0.410156 "/></g></g></g><g fill="rgb(100%, 87.059021%, 34.899902%)" fill-opacity="1"><g transform="translate(378.711812, 92.73656)"><g><path d="M 3.265625 -0.0234375 L 4.230469 -0.125 L 4.75 -0.0664062 L 6.828125 -0.125 L 7.570312 -0.222656 L 13.652344 -0.402344 L 15.136719 -0.519531 L 16.179688 -0.402344 L 17.289062 -0.507812 L 18.628906 -0.472656 L 20.253906 -0.746094 L 21.214844 -0.921875 L 22.625 -0.964844 L 23.203125 -1.5 L 23.464844 -2.695312 L 23.578125 -3.8125 L 23.640625 -4.261719 L 23.625 -4.78125 L 23.832031 -5.308594 L 24.128906 -7.914062 L 24.332031 -8.515625 L 24.242188 -9.03125 L 24.375 -9.554688 L 24.417969 -10.671875 L 23.964844 -10.882812 L 22.035156 -10.824219 L 20.40625 -10.703125 L 16.546875 -10.589844 L 15.878906 -10.644531 L 15.136719 -10.621094 L 14.753906 -10.980469 L 14.730469 -11.722656 L 14.859375 -12.46875 L 14.90625 -13.289062 L 15.042969 -13.8125 L 15.101562 -14.257812 L 15.160156 -14.78125 L 15.140625 -15.523438 L 15.269531 -16.195312 L 15.3125 -17.160156 L 15.582031 -18.136719 L 15.625 -19.175781 L 15.757812 -19.773438 L 15.742188 -20.292969 L 16.003906 -21.488281 L 16.0625 -22.011719 L 16.117188 -22.605469 L 16.3125 -23.652344 L 16.351562 -24.769531 L 16.613281 -25.964844 L 16.671875 -26.484375 L 16.863281 -27.605469 L 16.996094 -28.128906 L 16.964844 -29.167969 L 17.097656 -29.691406 L 17.273438 -31.257812 L 17.257812 -31.851562 L 17.390625 -32.375 L 17.300781 -32.964844 L 17.582031 -33.492188 L 17.773438 -34.464844 L 17.96875 -35.511719 L 18.101562 -36.035156 L 18.160156 -36.554688 L 18.289062 -37.152344 L 18.125 -37.742188 L 18.40625 -38.269531 L 18.523438 -39.316406 L 18.789062 -40.363281 L 18.773438 -40.957031 L 18.964844 -42 L 19.480469 -44.617188 L 19.609375 -45.363281 L 19.730469 -46.183594 L 19.910156 -47.746094 L 20.042969 -48.199219 L 20.027344 -48.71875 L 20.421875 -50.511719 L 20.40625 -51.03125 L 20.464844 -51.550781 L 20.214844 -52.4375 L 18.730469 -52.464844 L 15.835938 -52.382812 L 13.089844 -52.375 L 11.308594 -52.320312 L 10.125 -52.136719 L 9.914062 -51.6875 L 9.585938 -50.191406 L 9.453125 -49.742188 L 9.46875 -49.222656 L 9.417969 -48.328125 L 9.148438 -47.429688 L 8.960938 -46.238281 L 8.921875 -45.046875 L 8.640625 -44.519531 L 8.652344 -44.074219 L 8.59375 -43.550781 L 8.609375 -43.03125 L 8.328125 -42.578125 L 8.203125 -41.757812 L 8.15625 -40.792969 L 8.023438 -40.195312 L 8.1875 -39.679688 L 8.058594 -39.082031 L 7.792969 -38.03125 L 7.585938 -37.433594 L 7.679688 -36.839844 L 7.5 -35.277344 L 7.378906 -34.382812 L 7.394531 -33.863281 L 7.050781 -32.886719 L 7.082031 -31.847656 L 7.027344 -31.25 L 6.683594 -30.277344 L 6.5625 -29.382812 L 6.441406 -28.414062 L 6.058594 -26.320312 L 6.066406 -25.949219 L 5.800781 -24.902344 L 5.570312 -22.667969 L 5.230469 -21.617188 L 5.246094 -21.097656 L 4.980469 -20.050781 L 4.992188 -19.605469 L 4.933594 -19.085938 L 4.871094 -18.636719 L 4.902344 -17.597656 L 4.769531 -17.148438 L 4.648438 -16.105469 L 4.589844 -15.65625 L 4.601562 -15.210938 L 4.394531 -14.6875 L 4.199219 -13.714844 L 4.289062 -13.273438 L 4.082031 -12.746094 L 3.945312 -12.296875 L 3.605469 -11.246094 L 3.632812 -10.355469 L 3.503906 -9.683594 L 3.382812 -8.714844 L 3.320312 -8.265625 L 3.335938 -7.75 L 3.066406 -6.773438 L 3.101562 -5.660156 L 2.832031 -4.6875 L 2.773438 -4.242188 L 2.710938 -3.71875 L 2.511719 -2.96875 L 2.238281 -2.21875 L 2.175781 -1.773438 L 2.261719 -1.328125 L 2.351562 -0.8125 L 2.664062 -0.375 Z M 3.265625 -0.0234375 "/></g></g></g><g fill="rgb(100%, 87.059021%, 34.899902%)" fill-opacity="1"><g transform="translate(404.831414, 91.967092)"><g><path d="M 16.117188 -0.0273438 L 17.601562 -0.0742188 L 18.710938 -0.179688 L 20.417969 -0.230469 L 21.898438 -0.421875 L 22.339844 -0.582031 L 23 -0.75 L 23.886719 -1 L 24.328125 -1.164062 L 25.5 -1.640625 L 25.863281 -1.949219 L 26.742188 -2.347656 L 27.324219 -2.734375 L 27.980469 -3.125 L 28.554688 -3.886719 L 29.207031 -4.425781 L 29.632812 -5.105469 L 29.910156 -5.78125 L 30.265625 -6.3125 L 30.546875 -6.839844 L 30.960938 -7.894531 L 31.246094 -8.347656 L 31.734375 -9.328125 L 31.929688 -10.296875 L 32.289062 -10.753906 L 32.472656 -12.023438 L 32.742188 -12.996094 L 33.011719 -13.894531 L 33.144531 -14.417969 L 33.28125 -14.867188 L 33.265625 -15.386719 L 33.394531 -16.058594 L 33.59375 -16.882812 L 33.726562 -17.40625 L 33.710938 -17.851562 L 33.90625 -18.824219 L 34.175781 -19.722656 L 34.171875 -19.871094 L 34.363281 -20.917969 L 34.421875 -21.4375 L 34.691406 -22.484375 L 34.882812 -23.457031 L 35.007812 -24.351562 L 35.050781 -25.320312 L 35.332031 -25.921875 L 35.449219 -26.964844 L 35.433594 -27.484375 L 35.699219 -28.53125 L 35.742188 -29.574219 L 35.863281 -30.617188 L 35.921875 -31.0625 L 36.113281 -32.109375 L 36.101562 -32.554688 L 36.292969 -33.671875 L 36.761719 -35.320312 L 36.671875 -35.839844 L 36.804688 -36.363281 L 36.867188 -36.808594 L 37 -37.332031 L 36.984375 -37.851562 L 37.179688 -38.75 L 37.308594 -39.421875 L 37.511719 -40.097656 L 37.640625 -40.769531 L 37.839844 -41.589844 L 37.828125 -42.035156 L 38.097656 -42.9375 L 38.011719 -43.378906 L 38.277344 -44.351562 L 38.339844 -44.875 L 38.46875 -45.472656 L 38.527344 -45.992188 L 38.792969 -47.042969 L 38.851562 -47.636719 L 38.96875 -48.679688 L 39.097656 -49.277344 L 39.140625 -50.394531 L 39.554688 -51.445312 L 39.449219 -52.558594 L 38.835938 -53.132812 L 38.242188 -53.191406 L 37.574219 -53.097656 L 37.058594 -53.007812 L 36.316406 -53.058594 L 35.796875 -52.96875 L 35.203125 -52.953125 L 34.683594 -53.011719 L 34.164062 -52.996094 L 32.011719 -52.859375 L 31.492188 -52.917969 L 30.972656 -52.902344 L 28.746094 -52.761719 L 28.539062 -52.234375 L 28.484375 -51.640625 L 28.289062 -50.667969 L 28.097656 -49.621094 L 27.902344 -48.652344 L 27.84375 -48.203125 L 27.792969 -47.3125 L 27.734375 -46.863281 L 27.386719 -46.035156 L 27.476562 -45.519531 L 27.355469 -44.550781 L 27.238281 -43.507812 L 27.046875 -42.460938 L 26.988281 -41.867188 L 26.871094 -40.824219 L 26.816406 -40.226562 L 26.546875 -39.179688 L 26.648438 -38.367188 L 26.222656 -37.609375 L 26.253906 -36.570312 L 26.191406 -36.199219 L 26.074219 -35.15625 L 26.089844 -34.5625 L 25.824219 -33.515625 L 25.765625 -32.917969 L 25.5 -31.871094 L 25.378906 -30.976562 L 25.183594 -30.003906 L 25.066406 -29.035156 L 25.082031 -28.441406 L 24.742188 -27.390625 L 24.609375 -26.867188 L 24.5625 -25.976562 L 24.304688 -24.628906 L 24.175781 -23.882812 L 24.058594 -22.914062 L 23.996094 -22.394531 L 23.867188 -21.796875 L 23.734375 -21.273438 L 23.679688 -20.601562 L 23.550781 -19.929688 L 23.414062 -19.480469 L 23.363281 -18.734375 L 23.230469 -18.210938 L 23.039062 -17.167969 L 22.710938 -15.671875 L 22.574219 -15.222656 L 22.445312 -14.550781 L 22.097656 -13.796875 L 21.613281 -12.59375 L 21.402344 -12.140625 L 20.976562 -11.535156 L 20.25 -10.921875 L 18.550781 -10.648438 L 16.984375 -10.824219 L 16.164062 -11.023438 L 15.320312 -11.964844 L 15.21875 -12.851562 L 15.195312 -13.667969 L 15.085938 -14.851562 L 15.144531 -15.375 L 15.203125 -15.820312 L 15.257812 -16.492188 L 15.429688 -18.277344 L 15.625 -19.25 L 15.667969 -20.292969 L 15.847656 -21.78125 L 16.136719 -24.464844 L 16.261719 -25.359375 L 16.527344 -26.332031 L 16.5 -27.296875 L 16.695312 -28.195312 L 16.832031 -28.644531 L 16.964844 -29.167969 L 17.023438 -29.765625 L 17.078125 -30.433594 L 17.355469 -31.109375 L 17.175781 -32.070312 L 17.238281 -32.519531 L 17.578125 -33.566406 L 17.5625 -34.085938 L 17.695312 -34.683594 L 17.753906 -35.207031 L 17.804688 -35.953125 L 18.011719 -36.476562 L 18.074219 -36.925781 L 18.1875 -38.042969 L 18.378906 -39.160156 L 18.4375 -39.757812 L 18.777344 -40.808594 L 18.835938 -41.328125 L 18.8125 -42.070312 L 18.871094 -42.667969 L 18.988281 -43.636719 L 19.261719 -44.535156 L 19.246094 -45.054688 L 19.378906 -45.503906 L 19.441406 -46.027344 L 19.570312 -46.625 L 19.699219 -47.296875 L 19.832031 -47.820312 L 19.726562 -48.855469 L 19.859375 -49.378906 L 19.996094 -49.828125 L 19.964844 -50.867188 L 19.859375 -51.980469 L 19.175781 -52.480469 L 17.984375 -52.519531 L 17.316406 -52.574219 L 15.539062 -52.371094 L 12.421875 -52.355469 L 11.753906 -52.261719 L 11.382812 -52.25 L 10.125 -52.136719 L 9.683594 -51.976562 L 9.550781 -51.378906 L 9.285156 -50.332031 L 9.167969 -49.289062 L 9.042969 -48.542969 L 8.90625 -48.167969 L 8.5625 -47.191406 L 8.402344 -45.105469 L 8.265625 -44.65625 L 8.28125 -44.136719 L 8.089844 -43.09375 L 8.105469 -42.5 L 8.050781 -41.902344 L 7.855469 -40.855469 L 7.800781 -40.261719 L 7.742188 -39.738281 L 7.398438 -38.765625 L 7.339844 -38.316406 L 7.351562 -37.796875 L 7.234375 -36.828125 L 7.097656 -36.378906 L 6.9375 -34.292969 L 6.726562 -33.84375 L 6.683594 -32.800781 L 6.699219 -32.207031 L 6.433594 -31.160156 L 6.242188 -30.1875 L 6.195312 -29.148438 L 5.929688 -28.175781 L 5.957031 -27.210938 L 5.824219 -26.6875 L 5.628906 -25.789062 L 5.570312 -25.265625 L 5.65625 -24.75 L 5.460938 -23.851562 L 5.402344 -23.40625 L 5.339844 -22.882812 L 5.070312 -21.984375 L 5.097656 -21.019531 L 4.972656 -20.273438 L 4.851562 -19.378906 L 4.808594 -18.261719 L 4.761719 -17.296875 L 4.527344 -15.285156 L 4.398438 -14.613281 L 4.398438 -12.085938 L 4.335938 -11.640625 L 4.707031 -9.125 L 4.8125 -8.089844 L 5.144531 -6.910156 L 5.769531 -5.890625 L 6.398438 -4.71875 L 6.476562 -4.5 L 6.867188 -3.914062 L 7.25 -3.480469 L 7.710938 -2.976562 L 8.472656 -2.253906 L 9.984375 -1.40625 L 10.4375 -1.199219 L 10.960938 -0.992188 L 12.238281 -0.582031 L 12.539062 -0.445312 L 13.0625 -0.308594 Z M 16.117188 -0.0273438 "/></g></g></g><g fill="rgb(100%, 87.059021%, 34.899902%)" fill-opacity="1"><g transform="translate(442.526747, 90.856609)"><g><path d="M 14.722656 0.53125 L 15.535156 0.433594 L 16.050781 0.34375 L 16.867188 0.320312 L 17.386719 0.230469 L 18.054688 0.285156 L 18.574219 0.195312 L 19.527344 -0.128906 L 20.121094 -0.222656 L 21.222656 -0.625 L 21.660156 -0.933594 L 22.542969 -1.183594 L 23.195312 -1.722656 L 23.925781 -2.191406 L 24.503906 -2.726562 L 24.863281 -3.035156 L 25.4375 -3.71875 L 25.800781 -4.027344 L 26.152344 -4.78125 L 26.585938 -5.089844 L 27.21875 -6.371094 L 27.558594 -7.421875 L 27.6875 -8.09375 L 27.816406 -8.691406 L 28.085938 -9.664062 L 28.054688 -10.777344 L 28.113281 -11.226562 L 28.304688 -12.269531 L 28.246094 -14.347656 L 28.304688 -14.871094 L 28.214844 -15.386719 L 28.277344 -15.835938 L 28.320312 -16.875 L 28.15625 -17.316406 L 27.75 -18.566406 L 27.660156 -19.085938 L 27.570312 -19.675781 L 27.480469 -20.195312 L 26.988281 -21.738281 L 26.515625 -22.691406 L 25.875 -24.15625 L 25.792969 -24.527344 L 25.101562 -25.324219 L 24.542969 -26.570312 L 23.625 -27.433594 L 23.234375 -28.089844 L 22.546875 -28.8125 L 22.3125 -29.175781 L 21.933594 -29.386719 L 21.699219 -29.828125 L 20.941406 -30.398438 L 20.484375 -30.683594 L 20.179688 -31.046875 L 19.863281 -31.628906 L 19.480469 -31.988281 L 19.171875 -32.425781 L 18.171875 -33.585938 L 17.324219 -34.601562 L 16.777344 -35.550781 L 16.464844 -36.132812 L 15.839844 -37.15625 L 15.277344 -38.550781 L 15.1875 -39.066406 L 15.160156 -40.03125 L 15.203125 -41.074219 L 15.40625 -41.820312 L 15.464844 -42.34375 L 15.738281 -43.09375 L 15.945312 -43.621094 L 16.300781 -44.152344 L 17.105469 -44.546875 L 17.988281 -44.867188 L 18.957031 -44.75 L 19.71875 -44.175781 L 20.40625 -43.527344 L 20.640625 -43.089844 L 20.816406 -42.203125 L 20.863281 -40.496094 L 20.710938 -38.191406 L 20.578125 -37.59375 L 20.683594 -36.628906 L 21.289062 -36.128906 L 22.328125 -36.160156 L 23.371094 -36.113281 L 27.527344 -36.238281 L 28.859375 -36.351562 L 29.738281 -36.824219 L 29.984375 -38.464844 L 30.222656 -40.550781 L 30.257812 -41.8125 L 30.140625 -43.296875 L 30.09375 -44.929688 L 29.59375 -46.695312 L 29.355469 -47.210938 L 29.183594 -48.019531 L 28.875 -48.457031 L 28.332031 -49.257812 L 28.097656 -49.621094 L 27.332031 -50.417969 L 27.101562 -50.707031 L 26.261719 -51.425781 L 25.660156 -51.628906 L 25.128906 -52.0625 L 24.226562 -52.480469 L 23.921875 -52.695312 L 23.402344 -52.753906 L 22.128906 -53.085938 L 21.011719 -53.128906 L 20.339844 -53.257812 L 19.820312 -53.242188 L 17.964844 -53.261719 L 15.664062 -53.191406 L 14.414062 -52.785156 L 13.011719 -52.445312 L 12.207031 -51.976562 L 11.035156 -51.496094 L 9.726562 -50.492188 L 8.859375 -49.722656 L 8.425781 -49.265625 L 8.003906 -48.511719 L 7.789062 -48.207031 L 7.214844 -47.523438 L 7.003906 -47.144531 L 6.796875 -46.617188 L 6.515625 -46.015625 L 6.101562 -45.039062 L 6.046875 -44.292969 L 5.847656 -43.546875 L 5.566406 -43.019531 L 5.523438 -41.976562 L 5.316406 -41.449219 L 5.210938 -39.960938 L 5.273438 -37.808594 L 5.214844 -37.289062 L 5.304688 -36.695312 L 5.410156 -35.734375 L 5.734375 -34.777344 L 5.898438 -34.1875 L 6.136719 -33.675781 L 6.523438 -33.167969 L 6.839844 -32.507812 L 7.320312 -31.410156 L 7.785156 -30.679688 L 8.171875 -30.171875 L 8.929688 -29.601562 L 9.699219 -28.804688 L 10.394531 -27.859375 L 11.3125 -26.921875 L 12.15625 -25.980469 L 12.46875 -25.542969 L 12.847656 -25.183594 L 13.695312 -24.242188 L 14.082031 -23.660156 L 14.617188 -23.15625 L 14.851562 -22.792969 L 15.011719 -22.425781 L 15.320312 -21.988281 L 15.871094 -20.964844 L 16.488281 -20.09375 L 17.113281 -19.070312 L 17.371094 -17.964844 L 17.382812 -17.519531 L 17.71875 -16.191406 L 17.753906 -15.003906 L 17.859375 -13.96875 L 17.875 -13.449219 L 17.820312 -12.707031 L 17.699219 -11.808594 L 17.429688 -10.910156 L 17.148438 -10.382812 L 16.796875 -9.703125 L 16.4375 -9.324219 L 15.625 -9.074219 L 15.035156 -8.910156 L 14.371094 -8.890625 L 13.398438 -9.085938 L 12.632812 -9.804688 L 12.082031 -10.902344 L 11.835938 -11.636719 L 11.640625 -13.265625 L 11.59375 -14.824219 L 11.652344 -15.347656 L 11.574219 -18.089844 L 10.949219 -19.113281 L 9.980469 -19.160156 L 5.828125 -19.035156 L 4.933594 -19.085938 L 3.15625 -18.882812 L 2.132812 -18.332031 L 1.945312 -17.140625 L 1.8125 -16.617188 L 1.757812 -16.019531 L 1.640625 -14.902344 L 1.730469 -14.386719 L 1.691406 -13.121094 L 1.757812 -10.894531 L 1.941406 -9.710938 L 2.027344 -9.269531 L 2.28125 -8.238281 L 2.371094 -7.792969 L 2.929688 -6.472656 L 3.09375 -5.882812 L 3.652344 -4.636719 L 4.347656 -3.617188 L 5.117188 -2.75 L 5.886719 -1.808594 L 6.796875 -1.238281 L 7.554688 -0.742188 L 8.378906 -0.46875 L 9.582031 0.015625 L 10.105469 0.148438 L 10.851562 0.273438 L 11.671875 0.398438 L 12.414062 0.378906 L 12.9375 0.4375 Z M 14.722656 0.53125 "/></g></g></g><g fill="rgb(100%, 87.059021%, 34.899902%)" fill-opacity="1"><g transform="translate(472.059705, 89.986585)"><g><path d="M 10.246094 -0.152344 L 12.175781 -0.210938 L 12.984375 -0.457031 L 13.1875 -1.132812 L 13.242188 -1.726562 L 13.4375 -2.699219 L 13.554688 -3.742188 L 13.75 -4.710938 L 13.992188 -6.503906 L 14.191406 -7.324219 L 14.175781 -7.84375 L 14.296875 -8.8125 L 14.414062 -9.855469 L 14.605469 -10.902344 L 14.589844 -11.496094 L 14.859375 -12.46875 L 14.914062 -13.066406 L 15.105469 -14.183594 L 15.007812 -15 L 15.355469 -15.75 L 15.324219 -16.789062 L 15.386719 -17.164062 L 15.507812 -18.207031 L 15.488281 -18.800781 L 15.753906 -19.847656 L 15.738281 -20.441406 L 16.003906 -21.488281 L 16.125 -22.382812 L 16.246094 -23.355469 L 16.441406 -24.324219 L 16.421875 -24.917969 L 16.628906 -25.445312 L 16.894531 -26.492188 L 17.203125 -28.730469 L 17.402344 -29.476562 L 17.523438 -30.445312 L 17.507812 -30.964844 L 17.5625 -31.5625 L 17.621094 -32.082031 L 17.601562 -32.75 L 17.804688 -33.425781 L 17.996094 -34.472656 L 18.0625 -34.84375 L 18.253906 -35.816406 L 18.453125 -36.714844 L 18.570312 -37.683594 L 18.628906 -38.203125 L 18.679688 -39.097656 L 18.738281 -39.617188 L 18.859375 -40.511719 L 18.996094 -40.960938 L 19.117188 -41.78125 L 19.433594 -43.722656 L 19.496094 -44.171875 L 19.480469 -44.691406 L 19.539062 -45.136719 L 19.523438 -45.730469 L 19.800781 -46.40625 L 19.917969 -47.449219 L 20.128906 -47.828125 L 20.109375 -48.496094 L 20.324219 -48.800781 L 20.234375 -49.242188 L 20.285156 -50.0625 L 20.429688 -50.289062 L 20.398438 -51.253906 L 20.460938 -51.699219 L 20.140625 -52.433594 L 19.320312 -52.632812 L 18.800781 -52.542969 L 14.871094 -52.425781 L 14.351562 -52.335938 L 13.3125 -52.308594 L 12.644531 -52.359375 L 11.53125 -52.253906 L 11.015625 -52.164062 L 10.578125 -51.855469 L 10.066406 -51.617188 L 9.566406 -50.859375 L 9.507812 -50.339844 L 9.375 -49.886719 L 9.257812 -48.769531 L 8.984375 -47.945312 L 8.859375 -47.125 L 8.8125 -46.234375 L 8.675781 -45.78125 L 8.617188 -45.335938 L 8.421875 -44.363281 L 8.304688 -43.320312 L 8.167969 -42.945312 L 8.121094 -41.980469 L 8.066406 -41.382812 L 8.152344 -40.867188 L 7.886719 -39.890625 L 7.828125 -39.371094 L 7.632812 -38.398438 L 7.570312 -37.953125 L 7.300781 -37.054688 L 7.390625 -36.535156 L 7.328125 -36.089844 L 7.210938 -35.046875 L 7.003906 -34.519531 L 7.035156 -33.480469 L 6.859375 -31.914062 L 6.519531 -30.867188 L 6.324219 -29.894531 L 6.203125 -29 L 6.230469 -28.035156 L 5.949219 -27.433594 L 5.832031 -26.390625 L 5.847656 -25.871094 L 5.582031 -24.820312 L 5.613281 -23.78125 L 5.496094 -22.738281 L 5.433594 -22.292969 L 5.375 -21.769531 L 5.242188 -21.246094 L 5.253906 -20.800781 L 5.140625 -19.683594 L 4.667969 -18.035156 L 4.757812 -17.519531 L 4.625 -16.996094 L 4.5625 -16.546875 L 4.429688 -16.023438 L 4.445312 -15.503906 L 4.324219 -14.609375 L 4.195312 -13.9375 L 3.992188 -13.261719 L 3.863281 -12.589844 L 3.664062 -11.769531 L 3.480469 -10.425781 L 3.566406 -9.984375 L 3.300781 -9.007812 L 3.242188 -8.488281 L 3.109375 -7.890625 L 3.050781 -7.367188 L 2.859375 -6.25 L 2.804688 -5.652344 L 2.6875 -4.609375 L 2.554688 -4.085938 L 2.511719 -2.96875 L 2.171875 -1.921875 L 2.277344 -0.808594 L 2.886719 -0.308594 L 3.484375 -0.175781 L 4.078125 -0.269531 L 4.597656 -0.210938 L 5.417969 -0.160156 L 5.933594 -0.25 L 6.527344 -0.265625 L 7.570312 -0.148438 L 9.722656 -0.210938 Z M 10.246094 -0.152344 "/></g></g></g><g fill="rgb(100%, 87.059021%, 34.899902%)" fill-opacity="1"><g transform="translate(491.575208, 89.411669)"><g><path d="M 14.988281 -0.441406 L 16.621094 -0.488281 L 17.214844 -0.582031 L 17.730469 -0.671875 L 18.402344 -0.542969 L 18.996094 -0.558594 L 19.359375 -0.792969 L 19.5625 -1.46875 L 19.984375 -2.296875 L 20.265625 -2.824219 L 20.6875 -3.65625 L 20.972656 -4.109375 L 21.105469 -4.558594 L 21.316406 -5.011719 L 21.453125 -5.460938 L 21.660156 -5.984375 L 21.996094 -7.109375 L 22.355469 -7.566406 L 22.5625 -8.089844 L 22.695312 -8.617188 L 22.902344 -9.140625 L 23.113281 -9.59375 L 23.816406 -10.949219 L 24.304688 -11.929688 L 24.363281 -12.453125 L 24.648438 -12.980469 L 25.199219 -14.332031 L 25.546875 -15.234375 L 25.8125 -16.28125 L 26.453125 -17.265625 L 26.585938 -17.789062 L 26.792969 -18.316406 L 27.355469 -19.300781 L 27.34375 -19.746094 L 27.628906 -20.199219 L 27.835938 -20.648438 L 28.242188 -22 L 28.304688 -22.445312 L 28.515625 -22.824219 L 28.800781 -23.277344 L 29.007812 -23.730469 L 29.355469 -24.558594 L 29.417969 -25.003906 L 29.625 -25.457031 L 29.824219 -26.351562 L 30.105469 -26.808594 L 30.242188 -27.257812 L 30.585938 -28.15625 L 31.082031 -28.988281 L 31.503906 -29.820312 L 31.636719 -30.34375 L 31.980469 -31.320312 L 32.113281 -31.84375 L 32.457031 -32.742188 L 32.667969 -33.121094 L 33.160156 -34.101562 L 33.214844 -34.695312 L 33.421875 -35.222656 L 33.765625 -36.199219 L 33.902344 -36.648438 L 34.109375 -37.101562 L 34.324219 -37.476562 L 34.515625 -38.449219 L 34.648438 -38.972656 L 35.003906 -39.503906 L 35.351562 -40.332031 L 35.5625 -40.78125 L 35.625 -41.230469 L 35.835938 -41.605469 L 35.960938 -42.351562 L 36.171875 -42.804688 L 36.308594 -43.179688 L 36.519531 -43.632812 L 36.875 -44.089844 L 37.074219 -44.910156 L 37.210938 -45.359375 L 37.550781 -46.335938 L 37.757812 -46.863281 L 38.042969 -47.316406 L 38.253906 -47.769531 L 38.308594 -48.4375 L 38.515625 -48.964844 L 38.722656 -49.417969 L 38.78125 -49.9375 L 38.988281 -50.539062 L 39.410156 -51.367188 L 39.46875 -51.816406 L 39.449219 -52.558594 L 38.699219 -52.757812 L 37.734375 -52.730469 L 36.917969 -52.777344 L 35.878906 -52.75 L 35.578125 -52.8125 L 35.0625 -52.726562 L 33.28125 -52.671875 L 32.835938 -52.585938 L 32.316406 -52.644531 L 31.796875 -52.628906 L 31.347656 -52.765625 L 30.757812 -52.597656 L 29.933594 -52.796875 L 29.273438 -52.628906 L 28.46875 -52.160156 L 27.976562 -51.179688 L 26.953125 -48.105469 L 26.535156 -47.125 L 26.328125 -46.601562 L 26.0625 -45.550781 L 26.003906 -45.03125 L 25.871094 -44.582031 L 25.808594 -44.058594 L 25.246094 -43.078125 L 25.109375 -42.628906 L 24.902344 -42.175781 L 24.691406 -41.648438 L 24.632812 -41.203125 L 24.441406 -40.15625 L 24.234375 -39.632812 L 24.171875 -39.183594 L 23.550781 -37.605469 L 23.417969 -37.082031 L 23.222656 -36.109375 L 22.945312 -35.433594 L 22.660156 -35.054688 L 22.523438 -34.679688 L 22.101562 -33.777344 L 22.042969 -33.328125 L 21.910156 -32.804688 L 21.765625 -32.578125 L 21.707031 -32.128906 L 21.570312 -31.679688 L 21.296875 -30.855469 L 21.089844 -30.328125 L 20.875 -30.027344 L 20.742188 -29.503906 L 20.476562 -28.527344 L 20.34375 -28.003906 L 20.132812 -27.480469 L 19.859375 -26.726562 L 19.796875 -26.28125 L 19.664062 -25.757812 L 19.316406 -25.003906 L 19.179688 -24.554688 L 18.824219 -24.023438 L 18.632812 -23.050781 L 18.496094 -22.601562 L 18.289062 -22.003906 L 17.800781 -21.023438 L 17.738281 -20.574219 L 17.601562 -20.125 L 17.394531 -19.675781 L 17.105469 -19.367188 L 16.886719 -19.289062 L 16.800781 -19.65625 L 16.855469 -20.328125 L 16.832031 -21.144531 L 16.730469 -21.957031 L 16.855469 -22.851562 L 16.910156 -23.449219 L 16.894531 -23.96875 L 16.9375 -25.082031 L 16.851562 -25.523438 L 16.914062 -25.824219 L 16.972656 -26.347656 L 16.957031 -26.941406 L 17.007812 -27.757812 L 16.992188 -28.277344 L 16.902344 -28.792969 L 16.886719 -29.3125 L 16.945312 -29.910156 L 16.898438 -31.46875 L 16.957031 -31.988281 L 16.945312 -32.359375 L 16.992188 -33.328125 L 16.753906 -33.765625 L 16.816406 -34.214844 L 16.800781 -34.808594 L 16.855469 -35.476562 L 16.824219 -36.515625 L 17.007812 -37.859375 L 16.960938 -39.417969 L 17.019531 -39.9375 L 17.003906 -40.457031 L 16.839844 -40.972656 L 16.824219 -41.492188 L 16.882812 -42.089844 L 16.867188 -42.609375 L 16.925781 -43.128906 L 16.910156 -43.648438 L 16.96875 -44.171875 L 16.9375 -45.210938 L 16.847656 -45.726562 L 16.980469 -46.25 L 16.949219 -47.363281 L 17.082031 -47.960938 L 17.035156 -49.445312 L 16.9375 -50.332031 L 16.933594 -50.480469 L 16.976562 -51.449219 L 16.738281 -51.960938 L 16.210938 -52.316406 L 15.6875 -52.375 L 11.160156 -52.242188 L 10.269531 -52.292969 L 9.082031 -52.183594 L 8.566406 -52.09375 L 7.671875 -52.140625 L 6.792969 -51.816406 L 6.578125 -51.515625 L 6.371094 -50.914062 L 6.394531 -50.171875 L 6.332031 -49.722656 L 6.421875 -49.207031 L 6.363281 -48.6875 L 6.453125 -48.167969 L 6.390625 -47.722656 L 6.40625 -47.203125 L 6.347656 -46.679688 L 6.4375 -46.238281 L 6.542969 -45.199219 L 6.480469 -44.679688 L 6.570312 -44.160156 L 6.527344 -43.121094 L 6.46875 -42.671875 L 6.5625 -39.480469 L 6.503906 -38.960938 L 6.589844 -38.441406 L 6.683594 -37.851562 L 6.753906 -35.476562 L 6.921875 -34.738281 L 6.730469 -33.769531 L 6.757812 -32.804688 L 6.921875 -32.289062 L 6.875 -31.320312 L 6.816406 -30.875 L 6.84375 -29.910156 L 6.933594 -29.316406 L 6.980469 -27.757812 L 7.144531 -27.246094 L 7.085938 -26.722656 L 7.101562 -26.128906 L 6.984375 -25.085938 L 7.011719 -24.121094 L 7.101562 -23.605469 L 7.132812 -22.640625 L 7.074219 -22.117188 L 7.308594 -21.679688 L 7.25 -21.15625 L 7.265625 -20.636719 L 7.207031 -20.117188 L 7.367188 -19.675781 L 7.398438 -18.636719 L 7.339844 -18.113281 L 7.355469 -17.523438 L 7.296875 -17 L 7.328125 -15.960938 L 7.492188 -15.445312 L 7.433594 -14.851562 L 7.523438 -14.332031 L 7.554688 -13.292969 L 7.496094 -12.773438 L 7.527344 -11.734375 L 7.691406 -11.21875 L 7.707031 -10.699219 L 7.648438 -10.175781 L 7.6875 -8.839844 L 7.777344 -8.25 L 7.8125 -7.136719 L 7.753906 -6.617188 L 7.785156 -5.503906 L 7.960938 -4.542969 L 7.976562 -4.023438 L 8.066406 -3.503906 L 8.152344 -3.0625 L 8.105469 -2.242188 L 8.273438 -1.507812 L 8.519531 -0.695312 L 9.421875 -0.351562 L 9.570312 -0.355469 L 10.308594 -0.453125 L 11.941406 -0.5 L 12.539062 -0.445312 L 14.171875 -0.492188 Z M 14.988281 -0.441406 "/></g></g></g><g fill="rgb(100%, 87.059021%, 34.899902%)" fill-opacity="1"><g transform="translate(526.896033, 88.371138)"><g><path d="M 6.015625 -0.0273438 L 6.605469 -0.121094 L 8.6875 -0.105469 L 9.121094 -0.417969 L 9.40625 -0.945312 L 9.617188 -1.324219 L 9.816406 -2.144531 L 10.226562 -3.273438 L 10.925781 -4.703125 L 11.199219 -5.601562 L 11.40625 -6.128906 L 11.539062 -6.652344 L 12.03125 -7.632812 L 12.375 -8.460938 L 14.378906 -8.519531 L 17.648438 -8.539062 L 18.839844 -8.425781 L 20.472656 -8.402344 L 20.566406 -7.808594 L 20.667969 -4.324219 L 20.617188 -3.578125 L 20.710938 -2.839844 L 20.824219 -1.503906 L 20.996094 -0.765625 L 21.300781 -0.554688 L 22.414062 -0.585938 L 23.378906 -0.539062 L 24.117188 -0.636719 L 24.636719 -0.726562 L 25.527344 -0.679688 L 26.121094 -0.695312 L 27.753906 -0.816406 L 28.792969 -0.847656 L 29.386719 -0.792969 L 29.90625 -0.882812 C 30.203125 -0.890625 30.425781 -0.820312 30.722656 -0.90625 C 31.085938 -1.136719 30.992188 -1.804688 30.910156 -2.097656 L 30.863281 -3.65625 L 30.742188 -5.289062 L 30.722656 -5.957031 L 30.628906 -6.546875 L 30.671875 -7.585938 L 30.640625 -8.699219 L 30.550781 -9.21875 L 30.449219 -10.179688 L 30.433594 -10.625 L 30.203125 -13.441406 L 30.261719 -13.964844 L 30.15625 -15 L 30.199219 -16.113281 L 30.089844 -17.226562 L 30.078125 -17.746094 L 29.902344 -21.15625 L 29.835938 -23.382812 L 29.746094 -23.972656 L 29.644531 -24.863281 L 29.558594 -27.757812 L 29.386719 -28.566406 L 29.277344 -29.753906 L 29.265625 -30.199219 L 29.160156 -31.160156 L 29.222656 -31.609375 L 29.117188 -32.644531 L 29.074219 -34.128906 L 28.894531 -35.164062 L 28.847656 -36.796875 L 28.90625 -37.316406 L 28.796875 -38.429688 L 28.769531 -39.46875 L 28.574219 -40.949219 L 28.472656 -41.910156 L 28.441406 -42.949219 L 28.289062 -45.617188 L 28.25 -46.953125 L 28.089844 -47.394531 L 28.039062 -49.027344 L 27.722656 -52.210938 L 27.195312 -52.566406 L 26.820312 -52.703125 L 25.632812 -52.667969 L 24.964844 -52.574219 L 24.441406 -52.707031 L 23.773438 -52.6875 L 22.367188 -52.574219 L 21.179688 -52.539062 L 20.4375 -52.441406 L 19.027344 -52.476562 L 18.285156 -52.453125 L 17.765625 -52.363281 L 17.496094 -51.539062 L 17.285156 -51.085938 L 17.078125 -50.5625 L 16.449219 -49.207031 L 15.957031 -48.226562 L 15.550781 -46.875 L 15.414062 -46.5 L 15.132812 -46.046875 L 14.710938 -45.21875 L 14.578125 -44.695312 L 14.441406 -44.246094 L 14.230469 -43.792969 L 14.097656 -43.269531 L 13.46875 -41.914062 L 13.261719 -41.386719 L 13.0625 -40.640625 L 12.636719 -39.957031 L 12.425781 -39.507812 L 12.085938 -38.53125 L 11.539062 -36.953125 L 11.253906 -36.5 L 10.898438 -35.96875 L 10.707031 -34.925781 L 10.289062 -33.949219 L 10.152344 -33.570312 L 9.957031 -32.601562 L 9.601562 -32.070312 L 9.40625 -31.097656 L 9.199219 -30.648438 L 8.777344 -29.816406 L 8.441406 -28.546875 L 7.953125 -27.566406 L 7.746094 -26.964844 L 7.214844 -24.871094 L 7.003906 -24.417969 L 6.664062 -23.367188 L 6.453125 -22.917969 L 6.246094 -22.390625 L 6.1875 -21.941406 L 5.773438 -20.890625 L 5.636719 -20.367188 L 5.21875 -19.464844 L 4.867188 -18.859375 L 4.738281 -18.1875 L 4.605469 -17.664062 L 4.117188 -16.609375 L 3.90625 -16.082031 L 3.566406 -15.109375 L 3.355469 -14.65625 L 3.296875 -14.132812 L 3.160156 -13.683594 L 2.816406 -12.78125 L 2.460938 -12.253906 L 2.324219 -11.804688 L 1.773438 -10.449219 L 1.503906 -9.476562 L 0.738281 -7.671875 L 0.394531 -6.769531 L -0.0234375 -5.867188 L -0.699219 -3.617188 L -1.265625 -2.636719 L -1.683594 -1.734375 L -1.746094 -1.285156 L -1.878906 -0.761719 L -1.714844 -0.171875 L -1.042969 -0.0429688 L 4.378906 -0.128906 L 4.898438 -0.0703125 Z M 17.730469 -18.273438 L 17.0625 -18.328125 L 16.242188 -18.378906 L 15.648438 -18.359375 L 15.117188 -18.789062 L 15.324219 -19.316406 L 15.453125 -19.988281 L 15.585938 -20.511719 L 15.921875 -21.785156 L 16.203125 -22.3125 L 16.539062 -23.4375 L 16.597656 -23.957031 L 16.996094 -25.605469 L 17.199219 -26.277344 L 17.40625 -26.804688 L 17.609375 -27.480469 L 17.890625 -28.007812 L 17.949219 -28.527344 L 18.226562 -29.277344 L 18.503906 -29.882812 L 18.839844 -31.078125 L 19.039062 -31.828125 L 19.378906 -33.027344 L 19.644531 -34 L 20.234375 -34.238281 L 20.355469 -32.535156 L 20.363281 -29.863281 L 20.371094 -27.039062 L 20.496094 -25.261719 L 20.367188 -24.664062 L 20.402344 -23.402344 L 20.34375 -22.878906 L 20.402344 -20.949219 L 20.34375 -20.355469 L 20.4375 -19.761719 L 20.390625 -18.722656 L 19.957031 -18.339844 Z M 17.730469 -18.273438 "/></g></g></g><g clip-path="url(#id3)"><g clip-path="url(#id4)"><path fill="rgb(100%, 100%, 100%)" d="M 71.195312 110.648438 L 571.976562 95.898438 L 572.175781 102.644531 L 71.394531 117.394531 Z M 71.195312 110.648438 " fill-opacity="1" fill-rule="nonzero"/></g></g></svg>