<svg xmlns="http://www.w3.org/2000/svg" xmlns:xlink="http://www.w3.org/1999/xlink" width="1000" zoomAndPan="magnify" viewBox="0 0 750 149.999998" height="200" preserveAspectRatio="xMidYMid meet" version="1.0"><defs><g/><clipPath id="id1"><path d="M 71 15 L 709 15 L 709 42 L 71 42 Z M 71 15 " clip-rule="nonzero"/></clipPath><clipPath id="id2"><path d="M 71.324219 34.511719 L 708.546875 15.742188 L 708.746094 22.488281 L 71.523438 41.261719 Z M 71.324219 34.511719 " clip-rule="nonzero"/></clipPath><clipPath id="id3"><path d="M 71 91 L 709 91 L 709 119 L 71 119 Z M 71 91 " clip-rule="nonzero"/></clipPath><clipPath id="id4"><path d="M 71.195312 110.648438 L 708.417969 91.875 L 708.640625 99.375 L 71.417969 118.144531 Z M 71.195312 110.648438 " clip-rule="nonzero"/></clipPath></defs><g clip-path="url(#id1)"><g clip-path="url(#id2)"><path fill="rgb(100%, 100%, 100%)" d="M 71.324219 34.511719 L 708.546875 15.742188 L 708.746094 22.488281 L 71.523438 41.261719 Z M 71.324219 34.511719 " fill-opacity="1" fill-rule="nonzero"/></g></g><g fill="rgb(100%, 100%, 100%)" fill-opacity="1"><g transform="translate(91.762708, 102.386777)"><g><path d="M 10.246094 -0.152344 L 12.175781 -0.210938 L 12.984375 -0.457031 L 13.1875 -1.132812 L 13.242188 -1.726562 L 13.4375 -2.699219 L 13.554688 -3.742188 L 13.75 -4.710938 L 13.992188 -6.503906 L 14.191406 -7.324219 L 14.175781 -7.84375 L 14.296875 -8.8125 L 14.414062 -9.855469 L 14.605469 -10.902344 L 14.589844 -11.496094 L 14.859375 -12.46875 L 14.914062 -13.066406 L 15.105469 -14.183594 L 15.007812 -15 L 15.355469 -15.75 L 15.324219 -16.789062 L 15.386719 -17.164062 L 15.507812 -18.207031 L 15.488281 -18.800781 L 15.753906 -19.847656 L 15.738281 -20.441406 L 16.003906 -21.488281 L 16.125 -22.382812 L 16.246094 -23.355469 L 16.441406 -24.324219 L 16.421875 -24.917969 L 16.628906 -25.445312 L 16.894531 -26.492188 L 17.203125 -28.730469 L 17.402344 -29.476562 L 17.523438 -30.445312 L 17.507812 -30.964844 L 17.5625 -31.5625 L 17.621094 -32.082031 L 17.601562 -32.75 L 17.804688 -33.425781 L 17.996094 -34.472656 L 18.0625 -34.84375 L 18.253906 -35.816406 L 18.453125 -36.714844 L 18.570312 -37.683594 L 18.628906 -38.203125 L 18.679688 -39.097656 L 18.738281 -39.617188 L 18.859375 -40.511719 L 18.996094 -40.960938 L 19.117188 -41.78125 L 19.433594 -43.722656 L 19.496094 -44.171875 L 19.480469 -44.691406 L 19.539062 -45.136719 L 19.523438 -45.730469 L 19.800781 -46.40625 L 19.917969 -47.449219 L 20.128906 -47.828125 L 20.109375 -48.496094 L 20.324219 -48.800781 L 20.234375 -49.242188 L 20.285156 -50.0625 L 20.429688 -50.289062 L 20.398438 -51.253906 L 20.460938 -51.699219 L 20.140625 -52.433594 L 19.320312 -52.632812 L 18.800781 -52.542969 L 14.871094 -52.425781 L 14.351562 -52.335938 L 13.3125 -52.308594 L 12.644531 -52.359375 L 11.53125 -52.253906 L 11.015625 -52.164062 L 10.578125 -51.855469 L 10.066406 -51.617188 L 9.566406 -50.859375 L 9.507812 -50.339844 L 9.375 -49.886719 L 9.257812 -48.769531 L 8.984375 -47.945312 L 8.859375 -47.125 L 8.8125 -46.234375 L 8.675781 -45.78125 L 8.617188 -45.335938 L 8.421875 -44.363281 L 8.304688 -43.320312 L 8.167969 -42.945312 L 8.121094 -41.980469 L 8.066406 -41.382812 L 8.152344 -40.867188 L 7.886719 -39.890625 L 7.828125 -39.371094 L 7.632812 -38.398438 L 7.570312 -37.953125 L 7.300781 -37.054688 L 7.390625 -36.535156 L 7.328125 -36.089844 L 7.210938 -35.046875 L 7.003906 -34.519531 L 7.035156 -33.480469 L 6.859375 -31.914062 L 6.519531 -30.867188 L 6.324219 -29.894531 L 6.203125 -29 L 6.230469 -28.035156 L 5.949219 -27.433594 L 5.832031 -26.390625 L 5.847656 -25.871094 L 5.582031 -24.820312 L 5.613281 -23.78125 L 5.496094 -22.738281 L 5.433594 -22.292969 L 5.375 -21.769531 L 5.242188 -21.246094 L 5.253906 -20.800781 L 5.140625 -19.683594 L 4.667969 -18.035156 L 4.757812 -17.519531 L 4.625 -16.996094 L 4.5625 -16.546875 L 4.429688 -16.023438 L 4.445312 -15.503906 L 4.324219 -14.609375 L 4.195312 -13.9375 L 3.992188 -13.261719 L 3.863281 -12.589844 L 3.664062 -11.769531 L 3.480469 -10.425781 L 3.566406 -9.984375 L 3.300781 -9.007812 L 3.242188 -8.488281 L 3.109375 -7.890625 L 3.050781 -7.367188 L 2.859375 -6.25 L 2.804688 -5.652344 L 2.6875 -4.609375 L 2.554688 -4.085938 L 2.511719 -2.96875 L 2.171875 -1.921875 L 2.277344 -0.808594 L 2.886719 -0.308594 L 3.484375 -0.175781 L 4.078125 -0.269531 L 4.597656 -0.210938 L 5.417969 -0.160156 L 5.933594 -0.25 L 6.527344 -0.265625 L 7.570312 -0.148438 L 9.722656 -0.210938 Z M 10.246094 -0.152344 "/></g></g></g><g fill="rgb(100%, 100%, 100%)" fill-opacity="1"><g transform="translate(111.278211, 101.811862)"><g><path d="M 3.789062 0.0351562 L 11.65625 -0.195312 L 12.460938 -0.515625 L 12.664062 -1.265625 L 12.933594 -2.164062 L 13.117188 -3.503906 L 13.253906 -3.957031 L 13.222656 -4.921875 L 13.28125 -5.441406 L 13.476562 -6.414062 L 13.710938 -8.574219 L 13.84375 -9.097656 L 13.90625 -9.542969 L 14.023438 -10.589844 L 14.273438 -12.082031 L 14.539062 -13.203125 L 14.65625 -14.246094 L 14.71875 -14.695312 L 14.628906 -15.210938 L 14.761719 -15.734375 L 14.957031 -16.632812 L 14.792969 -17.148438 L 14.988281 -18.117188 L 15.125 -18.566406 L 15.335938 -21.46875 L 15.75 -25.046875 L 15.769531 -26.90625 L 15.878906 -28.171875 L 15.929688 -28.988281 L 15.960938 -30.476562 L 15.972656 -32.554688 L 16.195312 -32.5625 L 16.726562 -29.753906 L 17.25 -27.097656 L 17.53125 -25.027344 L 17.972656 -22.660156 L 18.332031 -20.59375 L 18.523438 -19.1875 L 18.863281 -17.710938 L 18.894531 -16.597656 L 18.984375 -16.15625 L 19.234375 -15.125 L 19.324219 -14.679688 L 19.578125 -13.648438 L 19.589844 -13.203125 L 19.84375 -12.097656 L 20.089844 -11.285156 L 20.199219 -10.175781 L 20.378906 -9.140625 L 20.464844 -8.699219 L 20.808594 -7.148438 L 20.894531 -6.707031 L 21.089844 -5.152344 L 21.175781 -4.707031 L 21.277344 -3.820312 L 21.363281 -3.453125 L 21.765625 -2.421875 L 22.390625 -1.253906 L 23 -0.75 L 24.261719 -0.789062 L 25.230469 -0.742188 L 26.714844 -0.785156 L 27.15625 -0.875 L 27.902344 -0.820312 L 28.417969 -0.910156 L 29.832031 -0.878906 L 30.128906 -0.886719 L 30.9375 -1.058594 L 31.976562 -1.164062 L 32.703125 -1.707031 L 33.34375 -2.617188 L 33.644531 -5 L 33.839844 -5.972656 L 33.972656 -6.496094 L 33.960938 -6.941406 L 34.300781 -7.917969 L 34.265625 -9.105469 L 34.535156 -10.152344 L 34.738281 -10.753906 L 34.859375 -11.722656 L 34.90625 -12.6875 L 34.953125 -13.507812 L 35.226562 -14.40625 L 35.503906 -15.082031 L 35.628906 -15.828125 L 35.746094 -16.871094 L 36.011719 -17.921875 L 36 -18.367188 L 36.0625 -18.8125 L 36.121094 -19.335938 L 36.179688 -19.78125 L 36.234375 -20.453125 L 36.363281 -21.125 L 36.554688 -22.167969 L 36.765625 -22.621094 L 36.738281 -23.585938 L 36.796875 -24.035156 L 36.855469 -24.554688 L 36.992188 -25.003906 L 37.050781 -25.527344 L 37.1875 -25.976562 L 37.09375 -26.640625 L 37.222656 -27.238281 L 37.339844 -28.28125 L 37.535156 -29.253906 L 37.667969 -29.777344 L 37.863281 -30.75 L 37.992188 -31.347656 L 38.054688 -31.867188 L 38.101562 -32.6875 L 38.304688 -33.363281 L 38.539062 -35.597656 L 38.671875 -36.121094 L 38.640625 -37.085938 L 38.773438 -37.609375 L 38.90625 -38.207031 L 39.109375 -38.882812 L 39.222656 -40.074219 L 39.484375 -41.269531 L 39.660156 -42.832031 L 39.792969 -43.433594 L 39.976562 -44.773438 L 40.171875 -45.597656 L 40.566406 -47.390625 L 40.683594 -48.433594 L 40.859375 -50.074219 L 40.765625 -50.664062 L 40.957031 -51.710938 L 40.941406 -52.304688 L 40.851562 -52.894531 L 40.398438 -53.105469 L 39.351562 -53.296875 L 38.316406 -53.191406 L 37.574219 -53.171875 L 35.863281 -53.195312 L 35.121094 -53.171875 L 34.605469 -53.082031 L 33.042969 -53.183594 L 31.640625 -52.847656 L 31.351562 -52.617188 L 30.789062 -51.558594 L 30.539062 -49.992188 L 30.351562 -48.796875 L 30.289062 -48.351562 L 30.308594 -47.683594 L 30.101562 -47.082031 L 29.96875 -46.558594 L 29.777344 -45.511719 L 29.722656 -44.917969 L 29.605469 -43.875 L 29.46875 -43.425781 L 29.410156 -42.902344 L 29.214844 -41.933594 L 29.226562 -41.488281 L 29.046875 -40.144531 L 29.132812 -39.628906 L 28.714844 -38.722656 L 28.730469 -38.203125 L 28.683594 -37.3125 L 28.710938 -36.421875 L 28.441406 -35.449219 L 28.453125 -35.003906 L 28.335938 -33.960938 L 28.199219 -33.507812 L 28.15625 -32.46875 L 28.101562 -31.871094 L 28.042969 -31.351562 L 27.980469 -30.902344 L 27.789062 -29.859375 L 27.863281 -27.335938 L 27.6875 -25.769531 L 27.570312 -22.203125 L 27.597656 -21.164062 L 27.503906 -19.378906 L 27.472656 -17.890625 L 27.25 -17.886719 L 26.980469 -19.511719 L 26.699219 -21.507812 L 26.523438 -22.394531 L 26.359375 -22.910156 L 26.34375 -23.429688 L 26.148438 -25.054688 L 25.800781 -26.753906 L 25.519531 -28.75 L 25.351562 -29.339844 L 25.175781 -30.375 L 25.066406 -31.558594 L 24.804688 -32.816406 L 24.621094 -34.074219 L 24.363281 -35.179688 L 24.265625 -35.992188 L 24.25 -36.511719 L 24.003906 -37.320312 L 23.992188 -37.765625 L 23.738281 -38.726562 L 23.558594 -39.835938 L 23.46875 -40.351562 L 23.304688 -40.941406 L 22.960938 -42.417969 L 22.710938 -43.449219 L 22.449219 -44.703125 L 22.191406 -45.882812 L 21.84375 -47.65625 L 21.515625 -48.6875 L 21.417969 -49.5 L 21.242188 -50.386719 L 20.921875 -51.121094 L 20.835938 -51.636719 L 20.367188 -52.292969 L 19.546875 -52.492188 L 18.507812 -52.460938 L 17.390625 -52.5 L 16.503906 -52.402344 L 15.089844 -52.433594 L 14.128906 -52.332031 L 13.460938 -52.3125 L 12.199219 -52.347656 L 11.160156 -52.242188 L 10.421875 -52.074219 L 10.003906 -51.242188 L 9.789062 -50.867188 L 9.65625 -50.417969 L 9.460938 -49.445312 L 9.476562 -48.851562 L 9.285156 -47.878906 L 9.164062 -46.984375 L 9.042969 -46.015625 L 8.984375 -45.496094 L 8.847656 -45.046875 L 8.789062 -44.523438 L 8.726562 -44.078125 L 8.667969 -43.554688 L 8.625 -42.585938 L 8.496094 -41.914062 L 8.21875 -41.238281 L 8.234375 -40.71875 L 7.921875 -38.628906 L 7.789062 -38.179688 L 7.730469 -37.660156 L 7.753906 -36.769531 L 7.550781 -36.09375 L 7.351562 -35.273438 L 7.234375 -34.304688 L 7.101562 -33.777344 L 7.117188 -33.257812 L 6.910156 -32.734375 L 6.925781 -32.140625 L 6.71875 -31.539062 L 6.664062 -30.945312 L 6.695312 -29.90625 L 6.566406 -29.160156 L 6.4375 -28.5625 L 6.09375 -27.660156 L 6.039062 -26.914062 L 5.996094 -25.875 L 5.9375 -25.351562 L 5.875 -24.90625 L 5.53125 -24.003906 L 5.542969 -23.558594 L 5.484375 -23.109375 L 5.4375 -22.144531 L 5.300781 -21.695312 L 5.242188 -21.171875 L 5.121094 -20.277344 L 4.921875 -19.457031 L 4.792969 -18.78125 L 4.671875 -17.886719 L 4.410156 -16.691406 L 4.289062 -15.722656 L 4.378906 -15.207031 L 4.320312 -14.757812 L 4.121094 -13.863281 L 4.0625 -13.339844 L 4.015625 -12.445312 L 3.734375 -11.917969 L 3.761719 -10.953125 L 3.632812 -10.355469 L 3.648438 -9.835938 L 3.457031 -8.644531 L 3.332031 -7.96875 L 3.136719 -6.925781 L 3 -6.550781 L 2.808594 -5.503906 L 2.75 -4.984375 L 2.484375 -3.933594 L 2.371094 -2.742188 L 2.40625 -1.554688 L 2.273438 -0.957031 L 2.671875 -0.078125 Z M 3.789062 0.0351562 "/></g></g></g><g fill="rgb(100%, 100%, 100%)" fill-opacity="1"><g transform="translate(151.273855, 100.633613)"><g><path d="M 16.125 0.269531 L 16.863281 0.171875 L 18.496094 0.125 L 19.675781 -0.132812 L 20.710938 -0.386719 L 21.078125 -0.472656 L 22.628906 -0.742188 L 23.730469 -1.21875 L 24.683594 -1.691406 L 25.261719 -2.15625 L 25.699219 -2.390625 L 26.574219 -3.011719 L 27.433594 -4.148438 L 28.070312 -5.132812 L 28.351562 -5.664062 L 28.839844 -6.792969 L 28.972656 -7.316406 L 29.109375 -7.765625 L 29.390625 -8.292969 L 29.730469 -9.269531 L 29.933594 -9.941406 L 30.066406 -10.539062 L 30.277344 -10.917969 L 30.382812 -12.332031 L 30.589844 -12.859375 L 30.859375 -13.90625 L 30.972656 -15.097656 L 31.09375 -15.917969 L 31.21875 -16.8125 L 31.277344 -17.335938 L 31.472656 -18.230469 L 31.53125 -18.753906 L 31.652344 -19.722656 L 31.789062 -20.171875 L 31.699219 -20.691406 L 31.832031 -21.140625 L 32.027344 -22.109375 L 32.015625 -22.554688 L 32.074219 -23.078125 L 32.132812 -23.523438 L 32.191406 -24.121094 L 32.3125 -25.015625 L 32.296875 -25.609375 L 32.414062 -26.578125 L 32.359375 -28.433594 L 31.460938 -28.777344 L 29.902344 -28.730469 L 28.859375 -28.777344 L 28.34375 -28.6875 L 25.671875 -28.605469 L 24.480469 -28.648438 L 23.296875 -28.539062 L 22.699219 -28.59375 L 20.921875 -28.46875 L 20.566406 -28.011719 L 20.5 -27.710938 L 20.175781 -26.070312 L 20.121094 -25.472656 L 19.992188 -24.726562 L 19.824219 -22.9375 L 19.511719 -20.925781 L 19.535156 -20.035156 L 19.996094 -19.601562 L 21.703125 -19.652344 L 22.222656 -19.59375 L 22.382812 -19.226562 L 22.097656 -16.320312 L 21.703125 -14.601562 L 21.5 -13.851562 L 21.296875 -13.179688 L 20.953125 -12.277344 L 20.675781 -11.601562 L 20.175781 -10.917969 L 19.375 -10.375 L 18.492188 -10.050781 L 17.085938 -10.011719 L 15.667969 -10.191406 L 14.914062 -10.539062 L 14.6875 -10.757812 L 14.375 -11.265625 L 13.910156 -11.921875 L 13.886719 -12.664062 L 13.789062 -13.402344 L 13.757812 -14.515625 L 13.800781 -15.558594 L 13.847656 -16.523438 L 13.910156 -16.972656 L 13.96875 -17.492188 L 14.011719 -18.460938 L 14.054688 -19.5 L 14.03125 -20.316406 L 14.230469 -21.140625 L 14.433594 -21.890625 L 14.417969 -22.410156 L 14.460938 -23.449219 L 14.59375 -23.898438 L 14.640625 -24.867188 L 14.773438 -25.390625 L 14.96875 -26.359375 L 15.222656 -27.78125 L 15.273438 -28.597656 L 15.46875 -29.570312 L 15.671875 -30.242188 L 15.726562 -30.914062 L 15.851562 -31.660156 L 16.058594 -32.1875 L 16.179688 -33.15625 L 16.238281 -33.675781 L 16.519531 -34.28125 L 16.640625 -35.175781 L 16.773438 -35.699219 L 16.835938 -36.144531 L 17.109375 -36.820312 L 17.097656 -37.339844 L 17.304688 -37.867188 L 17.359375 -38.464844 L 17.554688 -39.359375 L 17.972656 -40.339844 L 18.394531 -41.167969 L 18.457031 -41.613281 L 18.664062 -42.140625 L 18.945312 -42.667969 L 19.152344 -43.121094 L 19.730469 -43.730469 L 20.386719 -44.121094 L 20.902344 -44.285156 L 22.535156 -44.335938 L 23.285156 -44.058594 L 23.742188 -43.628906 L 24.128906 -43.117188 L 24.21875 -42.675781 L 24.316406 -41.863281 L 24.40625 -41.34375 L 24.222656 -40.003906 L 24.316406 -39.335938 L 24.183594 -38.8125 L 24.0625 -37.84375 L 23.949219 -36.652344 L 23.898438 -35.832031 L 23.992188 -35.242188 L 24.742188 -34.96875 L 25.558594 -34.917969 L 27.636719 -34.976562 L 28.382812 -34.925781 L 29.566406 -35.035156 L 30.832031 -35 L 32.3125 -35.117188 L 32.96875 -35.582031 L 33.382812 -36.558594 L 33.5 -37.675781 L 33.554688 -38.347656 L 33.601562 -39.238281 L 33.722656 -40.132812 L 33.710938 -40.652344 L 33.757812 -41.546875 L 33.734375 -42.363281 L 33.777344 -43.328125 L 33.695312 -46.222656 L 33.589844 -47.183594 L 33.492188 -48 L 33.171875 -48.808594 L 33.003906 -49.46875 L 32.773438 -49.761719 L 32.535156 -50.199219 L 31.46875 -51.207031 L 30.554688 -51.921875 L 29.503906 -52.265625 L 28.226562 -52.746094 L 27.703125 -52.953125 L 26.433594 -53.140625 L 25.46875 -53.109375 L 24.871094 -53.242188 L 23.902344 -53.363281 L 22.9375 -53.40625 L 20.933594 -53.273438 L 18.707031 -53.207031 L 17.675781 -52.957031 L 16.492188 -52.773438 L 15.535156 -52.445312 L 14.582031 -52.046875 L 13.632812 -51.5 L 12.683594 -51.027344 L 11.738281 -50.253906 L 10.949219 -49.339844 L 10.664062 -48.960938 L 10.453125 -48.507812 L 10.167969 -48.128906 L 9.820312 -47.300781 L 9.46875 -46.625 L 9.335938 -46.097656 L 9.128906 -45.648438 L 8.710938 -44.667969 L 8.503906 -44.070312 L 8.296875 -43.617188 L 8.03125 -42.570312 L 7.757812 -41.671875 L 7.695312 -41.296875 L 7.351562 -40.394531 L 7.140625 -39.945312 L 7.007812 -39.421875 L 6.800781 -38.96875 L 6.738281 -38.449219 L 6.53125 -37.996094 L 6.46875 -37.546875 L 6.335938 -37.023438 L 6.285156 -36.207031 L 6.007812 -35.53125 L 5.953125 -34.933594 L 5.832031 -33.964844 L 5.632812 -33.140625 L 5.367188 -32.09375 L 5.308594 -31.574219 L 5.109375 -30.824219 L 5.203125 -30.160156 L 5.007812 -29.1875 L 4.683594 -27.617188 L 4.566406 -26.574219 L 4.296875 -25.527344 L 4.242188 -24.929688 L 4.203125 -23.742188 L 3.9375 -22.695312 L 3.894531 -21.578125 L 3.703125 -20.535156 L 3.730469 -19.570312 L 3.460938 -18.59375 L 3.625 -18.082031 L 3.507812 -17.109375 L 3.449219 -16.589844 L 3.402344 -15.621094 L 3.339844 -15.175781 L 3.28125 -14.652344 L 3.308594 -13.6875 L 3.246094 -13.390625 L 3.273438 -12.351562 L 3.148438 -11.605469 L 3.113281 -10.265625 L 3.457031 -8.71875 L 3.46875 -8.273438 L 3.707031 -7.757812 L 4.027344 -7.027344 L 4.117188 -6.433594 L 4.363281 -5.699219 L 4.605469 -5.039062 L 5.140625 -4.535156 L 5.683594 -3.65625 L 5.917969 -3.292969 L 6.226562 -2.929688 L 6.992188 -2.136719 L 7.59375 -1.859375 L 8.65625 -1.070312 L 9.710938 -0.582031 L 10.980469 -0.324219 L 11.730469 -0.121094 L 13 0.136719 L 13.445312 0.125 L 14.636719 0.238281 L 15.15625 0.222656 Z M 16.125 0.269531 "/></g></g></g><g fill="rgb(100%, 100%, 100%)" fill-opacity="1"><g transform="translate(185.555832, 99.623685)"><g><path d="M 9.800781 -0.140625 L 10.390625 -0.230469 L 11.5 -0.339844 L 12.167969 -0.433594 L 12.910156 -0.378906 L 13.113281 -1.054688 L 13.320312 -1.582031 L 13.371094 -2.472656 L 13.429688 -2.996094 L 13.414062 -3.441406 L 13.476562 -3.960938 L 13.519531 -4.929688 L 13.507812 -5.375 L 13.640625 -5.898438 L 13.554688 -6.339844 L 13.746094 -7.386719 L 13.726562 -7.980469 L 13.863281 -8.429688 L 13.917969 -9.023438 L 14.171875 -10.59375 L 14.300781 -11.191406 L 14.253906 -12.75 L 14.535156 -13.351562 L 14.652344 -14.394531 L 14.640625 -14.839844 L 14.757812 -15.882812 L 15.101562 -16.859375 L 15.0625 -18.121094 L 15.238281 -19.683594 L 15.296875 -20.28125 L 15.488281 -21.324219 L 15.625 -21.777344 L 15.6875 -22.074219 L 16.210938 -22.015625 L 16.515625 -21.726562 L 16.832031 -21.144531 L 16.996094 -20.554688 L 17.3125 -19.96875 L 17.480469 -19.230469 L 17.734375 -18.199219 L 17.894531 -17.832031 L 18 -16.796875 L 18.324219 -15.839844 L 18.5 -14.878906 L 18.664062 -14.363281 L 18.988281 -13.480469 L 19.078125 -12.964844 L 19.5625 -11.640625 L 19.585938 -10.753906 L 19.90625 -10.019531 L 20.152344 -9.207031 L 20.242188 -8.691406 L 20.476562 -8.253906 L 20.492188 -7.734375 L 20.730469 -7.222656 L 20.90625 -6.261719 L 21.0625 -6.042969 L 21.304688 -5.457031 L 21.320312 -4.863281 L 21.796875 -3.761719 L 22.046875 -2.953125 L 22.203125 -2.585938 L 22.453125 -1.703125 L 22.613281 -1.335938 L 23.300781 -0.6875 L 23.746094 -0.625 L 24.414062 -0.71875 L 25.007812 -0.738281 L 25.820312 -0.835938 L 26.785156 -0.863281 L 28.707031 -1.144531 L 30.261719 -1.410156 L 31.226562 -1.441406 L 32.035156 -1.613281 L 32.40625 -1.699219 L 32.601562 -2.667969 L 32.039062 -4.0625 L 31.871094 -4.726562 L 31.78125 -5.242188 L 31.679688 -6.132812 L 31.125 -7.378906 L 30.945312 -8.414062 L 30.050781 -11.058594 L 29.875 -12.019531 L 29.46875 -13.121094 L 29.457031 -13.566406 L 29.132812 -14.523438 L 28.964844 -15.113281 L 28.726562 -15.625 L 28.546875 -16.660156 L 28.386719 -17.101562 L 28.136719 -18.058594 L 27.898438 -18.5 L 27.722656 -19.457031 L 27.632812 -20.050781 L 27.320312 -20.488281 L 27.144531 -21.445312 L 27.125 -22.113281 L 26.722656 -23.214844 L 26.480469 -23.804688 L 26.460938 -24.472656 L 26.980469 -24.5625 L 28.003906 -25.109375 L 29.457031 -26.121094 L 30.464844 -27.261719 L 30.824219 -27.644531 L 31.613281 -28.632812 L 31.820312 -29.085938 L 32.386719 -30.066406 L 32.664062 -30.746094 L 32.871094 -31.269531 L 33.511719 -32.253906 L 33.855469 -33.15625 L 34.0625 -33.683594 L 34.199219 -34.132812 L 34.332031 -34.65625 L 34.601562 -35.554688 L 34.804688 -36.304688 L 34.917969 -37.496094 L 35.105469 -38.6875 L 35.089844 -39.207031 L 34.980469 -40.320312 L 35.039062 -40.839844 L 35.234375 -41.886719 L 35.214844 -42.480469 L 34.949219 -43.882812 L 34.933594 -44.402344 L 34.746094 -45.808594 L 34.488281 -46.988281 L 33.9375 -48.011719 L 33.390625 -48.886719 L 33.085938 -49.25 L 32.699219 -49.683594 L 32.394531 -49.972656 L 31.488281 -50.464844 L 31.113281 -50.675781 L 30.660156 -50.886719 L 29.980469 -51.3125 L 29.453125 -51.445312 L 28.777344 -51.722656 L 27.949219 -52.070312 L 27.351562 -52.199219 L 26.164062 -52.164062 L 25.34375 -52.289062 L 24.230469 -52.332031 L 23.261719 -52.453125 L 22.59375 -52.429688 L 21.476562 -52.546875 L 20.878906 -52.679688 L 20.136719 -52.582031 L 19.621094 -52.492188 L 16.429688 -52.398438 L 11.976562 -52.339844 L 10.9375 -52.3125 L 10.199219 -52.140625 L 9.695312 -51.53125 L 9.410156 -51.152344 L 9.507812 -50.339844 L 9.230469 -49.734375 L 9.246094 -49.140625 L 9.1875 -48.621094 L 9.132812 -48.023438 L 8.894531 -45.9375 L 8.707031 -44.742188 L 8.511719 -43.847656 L 8.378906 -43.324219 L 8.390625 -42.878906 L 8.347656 -41.910156 L 8.359375 -41.464844 L 8.296875 -41.019531 L 8.105469 -39.972656 L 7.917969 -38.777344 L 7.726562 -37.734375 L 7.664062 -37.285156 L 7.621094 -36.246094 L 7.351562 -35.347656 L 7.289062 -34.898438 L 7.304688 -34.378906 L 7.246094 -33.933594 L 7.125 -32.960938 L 7.066406 -32.441406 L 7.003906 -31.992188 L 7.019531 -31.472656 L 6.695312 -29.90625 L 6.710938 -29.3125 L 6.59375 -28.269531 L 6.472656 -27.300781 L 6.414062 -26.851562 L 6.289062 -26.03125 L 6.15625 -25.507812 L 6.167969 -25.0625 L 5.960938 -24.609375 L 5.824219 -24.085938 L 5.777344 -23.195312 L 5.867188 -22.75 L 5.730469 -22.300781 L 5.375 -21.769531 L 5.394531 -21.101562 L 5.335938 -20.507812 L 5.277344 -19.984375 L 5.011719 -18.9375 L 5.03125 -18.34375 L 4.988281 -17.230469 L 4.863281 -16.484375 L 4.882812 -15.816406 L 4.550781 -14.46875 L 4.582031 -13.355469 L 4.304688 -12.753906 L 4.394531 -12.160156 L 4.335938 -11.640625 L 4.207031 -11.042969 L 4.160156 -10 L 3.957031 -9.398438 L 4.046875 -8.882812 L 3.839844 -8.28125 L 3.855469 -7.761719 L 3.664062 -6.71875 L 3.605469 -6.195312 L 3.617188 -5.75 L 3.410156 -5.226562 L 3.425781 -4.707031 L 3.292969 -4.257812 L 3.304688 -3.738281 L 3.257812 -2.917969 L 3.203125 -2.175781 L 3.003906 -1.425781 L 3.023438 -0.757812 L 3.183594 -0.316406 L 3.855469 -0.1875 L 6.160156 -0.105469 L 7.125 -0.136719 Z M 18.546875 -30.996094 L 17.28125 -31.109375 L 17.335938 -31.703125 L 17.246094 -32.222656 L 17.304688 -32.742188 L 17.492188 -33.9375 L 17.621094 -34.609375 L 17.527344 -35.273438 L 17.730469 -35.949219 L 17.847656 -37.066406 L 17.832031 -37.585938 L 18.019531 -38.78125 L 18.148438 -39.378906 L 18.195312 -40.34375 L 18.238281 -41.460938 L 18.351562 -42.652344 L 18.558594 -43.175781 L 18.757812 -44 L 19.417969 -44.242188 L 21.199219 -44.222656 L 22.839844 -44.046875 L 23.519531 -43.695312 L 24.054688 -43.191406 L 24.445312 -42.535156 L 24.710938 -40.980469 L 24.835938 -39.351562 L 24.796875 -38.164062 L 24.589844 -37.5625 L 24.609375 -36.96875 L 24.121094 -35.914062 L 24.058594 -35.46875 L 23.925781 -34.867188 L 23.585938 -33.894531 L 23.078125 -33.433594 L 22.792969 -32.980469 L 22.292969 -32.371094 L 21.78125 -32.058594 L 21.054688 -31.589844 L 20.617188 -31.28125 L 19.734375 -31.03125 Z M 18.546875 -30.996094 "/></g></g></g><g fill="rgb(100%, 100%, 100%)" fill-opacity="1"><g transform="translate(220.431435, 98.59627)"><g><path d="M 10.910156 -0.246094 L 11.5 -0.339844 L 12.6875 -0.449219 L 14.246094 -0.492188 L 14.6875 -0.582031 L 15.65625 -0.535156 L 16.839844 -0.644531 L 23.890625 -0.851562 L 24.089844 -1.675781 L 24.21875 -2.347656 L 24.253906 -3.609375 L 24.445312 -4.730469 L 24.503906 -5.253906 L 24.636719 -5.703125 L 24.769531 -6.226562 L 24.742188 -7.191406 L 24.992188 -8.832031 L 25.046875 -9.425781 L 25.171875 -10.25 L 25.238281 -10.546875 L 25.292969 -11.144531 L 24.769531 -11.351562 L 22.691406 -11.214844 L 21.058594 -11.242188 L 20.015625 -11.285156 L 15.640625 -11.15625 L 14.597656 -11.273438 L 14.289062 -11.5625 L 14.273438 -12.15625 L 14.511719 -14.09375 L 14.695312 -15.433594 L 14.828125 -15.960938 L 14.882812 -16.703125 L 15.011719 -17.375 L 15.210938 -18.125 L 15.445312 -20.210938 L 15.640625 -21.183594 L 15.914062 -22.007812 L 16.582031 -22.027344 L 17.542969 -22.128906 L 18.359375 -22.152344 L 19.625 -22.117188 L 21.476562 -22.246094 L 22.144531 -22.265625 L 23.253906 -22.371094 L 23.996094 -22.394531 L 24.140625 -22.546875 L 24.257812 -23.589844 L 24.449219 -24.785156 L 24.566406 -25.828125 L 24.769531 -26.425781 L 24.753906 -26.945312 L 24.945312 -28.066406 L 25.078125 -28.589844 L 25.269531 -29.636719 L 25.394531 -30.457031 L 25.375 -31.050781 L 25.5 -31.945312 L 25.035156 -32.523438 L 24.4375 -32.65625 L 22.507812 -32.597656 L 21.101562 -32.410156 L 18.503906 -32.40625 L 17.167969 -32.367188 L 17.277344 -33.707031 L 17.476562 -34.457031 L 17.386719 -35.046875 L 17.519531 -35.570312 L 17.710938 -36.617188 L 17.828125 -37.660156 L 18.011719 -39.078125 L 17.992188 -39.671875 L 18.203125 -40.121094 L 18.171875 -41.160156 L 18.230469 -41.683594 L 18.425781 -42.578125 L 20.207031 -42.707031 L 25.027344 -42.847656 L 25.917969 -42.949219 L 29.035156 -43.039062 L 29.773438 -43.136719 L 29.96875 -44.109375 L 30.027344 -44.554688 L 30.296875 -45.601562 L 30.277344 -46.195312 L 30.46875 -47.316406 L 30.527344 -47.761719 L 30.585938 -48.285156 L 30.796875 -48.8125 L 30.78125 -49.257812 L 30.875 -51.117188 L 30.863281 -51.5625 L 31.0625 -52.382812 L 30.675781 -52.890625 L 30.003906 -52.945312 L 29.261719 -53 L 28.59375 -52.90625 L 26.960938 -52.855469 L 24.8125 -52.71875 L 24.21875 -52.777344 L 22.507812 -52.800781 L 16.945312 -52.5625 L 15.3125 -52.441406 L 14.574219 -52.417969 L 13.976562 -52.476562 L 13.457031 -52.460938 L 12.570312 -52.359375 L 12.046875 -52.417969 L 11.605469 -52.332031 L 10.34375 -52.292969 L 9.761719 -51.832031 L 9.699219 -51.382812 L 9.492188 -50.929688 L 9.296875 -50.035156 L 9.457031 -49.519531 L 9.398438 -49.070312 L 9.351562 -48.105469 L 9.289062 -47.65625 L 9.15625 -47.207031 L 9.109375 -46.242188 L 8.976562 -45.71875 L 9.0625 -45.273438 L 8.855469 -44.75 L 8.871094 -44.230469 L 8.664062 -43.777344 L 8.542969 -42.734375 L 8.277344 -41.761719 L 8.21875 -41.238281 L 8.304688 -40.796875 L 8.246094 -40.273438 L 8.113281 -39.675781 L 7.832031 -39.222656 L 7.804688 -37.660156 L 7.59375 -37.136719 L 7.582031 -35.054688 L 7.320312 -33.933594 L 7.125 -32.886719 L 7.214844 -32.445312 L 7.082031 -31.921875 L 6.875 -31.320312 L 6.496094 -29.082031 L 6.210938 -28.628906 L 6.226562 -28.109375 L 6.167969 -27.585938 L 6.113281 -26.992188 L 5.90625 -26.464844 L 5.789062 -25.347656 L 5.523438 -24.300781 L 5.554688 -23.1875 L 5.304688 -21.621094 L 5.171875 -21.097656 L 4.980469 -19.976562 L 4.921875 -19.457031 L 4.714844 -18.929688 L 4.519531 -17.957031 L 4.609375 -17.515625 L 4.339844 -16.617188 L 4.347656 -16.246094 L 4.230469 -15.277344 L 4.097656 -14.675781 L 4.113281 -14.15625 L 4 -12.964844 L 3.71875 -12.363281 L 3.601562 -11.394531 L 3.558594 -10.355469 L 3.5 -9.832031 L 3.367188 -9.234375 L 3.382812 -8.714844 L 3.25 -8.191406 L 3.269531 -7.523438 L 3.0625 -6.921875 L 3.023438 -5.734375 L 2.761719 -4.613281 L 2.648438 -3.421875 L 2.53125 -2.300781 L 2.402344 -1.628906 L 2.199219 -0.957031 L 2.441406 -0.292969 L 3.113281 -0.167969 L 7.046875 -0.28125 L 7.570312 -0.222656 L 9.5 -0.28125 Z M 10.910156 -0.246094 "/></g></g></g><g fill="rgb(100%, 100%, 100%)" fill-opacity="1"><g transform="translate(248.406127, 97.772151)"><g><path d="M 15.734375 -0.316406 L 16.253906 -0.40625 L 16.625 -0.414062 L 17.140625 -0.503906 L 19.441406 -0.574219 L 20.25 -0.894531 L 21.433594 -1.078125 L 22.167969 -1.246094 L 23.199219 -1.574219 L 23.925781 -2.117188 L 24.738281 -2.363281 L 25.6875 -2.835938 L 26.125 -3.144531 L 26.773438 -3.757812 L 27.789062 -4.605469 L 28.792969 -5.898438 L 29.285156 -6.804688 L 29.640625 -7.261719 L 30 -7.789062 L 30.058594 -8.238281 L 30.636719 -8.847656 L 30.984375 -9.601562 L 31.460938 -11.101562 L 31.949219 -12.15625 L 32.214844 -13.203125 L 32.277344 -13.652344 L 32.691406 -14.628906 L 32.742188 -15.445312 L 32.878906 -15.898438 L 33.371094 -16.875 L 33.578125 -17.402344 L 33.699219 -18.296875 L 33.746094 -19.265625 L 34.144531 -20.835938 L 34.195312 -21.582031 L 34.402344 -22.179688 L 34.53125 -22.777344 L 34.632812 -24.488281 L 34.746094 -25.605469 L 35 -27.027344 L 34.988281 -27.546875 L 35.324219 -28.742188 L 35.261719 -30.820312 L 35.320312 -31.34375 L 35.429688 -32.609375 L 35.417969 -33.128906 L 35.605469 -34.320312 L 35.589844 -34.765625 L 35.648438 -35.289062 L 35.484375 -35.804688 L 35.542969 -36.324219 L 35.457031 -36.769531 L 35.203125 -37.800781 L 35.414062 -38.253906 L 35.3125 -39.214844 L 35.117188 -40.695312 L 35.179688 -41.214844 L 34.777344 -42.246094 L 34.761719 -42.761719 L 34.5 -44.019531 L 34.1875 -44.527344 L 33.710938 -45.628906 L 33.382812 -46.660156 L 32.992188 -47.316406 L 32.683594 -47.679688 L 32.066406 -48.550781 L 30.910156 -50.003906 L 30.453125 -50.359375 L 29.921875 -50.714844 L 29.167969 -51.140625 L 28.867188 -51.28125 L 28.488281 -51.492188 L 27.214844 -51.824219 L 26.765625 -51.960938 L 26.617188 -51.957031 L 25.570312 -52.222656 L 24.96875 -52.425781 L 24.449219 -52.410156 L 23.332031 -52.527344 L 22.664062 -52.582031 L 22.066406 -52.640625 L 20.878906 -52.605469 L 20.4375 -52.515625 L 19.617188 -52.566406 L 17.761719 -52.511719 L 16.28125 -52.394531 L 14.648438 -52.421875 L 14.054688 -52.402344 L 12.871094 -52.21875 L 12.347656 -52.277344 L 11.457031 -52.328125 L 10.9375 -52.3125 L 10.199219 -52.066406 L 10.003906 -51.242188 L 9.859375 -51.015625 L 9.660156 -50.269531 L 9.527344 -49.746094 L 9.476562 -48.851562 L 9.417969 -48.328125 L 9.210938 -47.878906 L 9.089844 -46.984375 L 8.96875 -45.941406 L 8.777344 -44.96875 L 8.71875 -44.449219 L 8.730469 -44.003906 L 8.597656 -43.476562 L 8.265625 -42.132812 L 8.144531 -41.238281 L 8.039062 -39.675781 L 7.984375 -39.078125 L 8.015625 -38.039062 L 7.742188 -37.140625 L 7.621094 -36.246094 L 7.636719 -35.800781 L 7.4375 -34.902344 L 7.378906 -34.382812 L 7.257812 -33.488281 L 7.199219 -32.964844 L 7.210938 -32.519531 L 7.152344 -32 L 7.019531 -31.472656 L 6.8125 -30.949219 L 6.503906 -28.859375 L 6.367188 -28.410156 L 6.175781 -27.363281 L 6.039062 -26.914062 L 5.90625 -26.390625 L 5.949219 -24.90625 L 5.679688 -24.007812 L 5.617188 -23.558594 L 5.421875 -22.664062 L 5.289062 -22.140625 L 5.167969 -21.171875 L 5.109375 -20.648438 L 4.917969 -19.605469 L 4.863281 -19.007812 L 4.667969 -17.960938 L 4.71875 -16.328125 L 4.4375 -15.800781 L 4.375 -15.355469 L 4.328125 -14.386719 L 4.199219 -13.789062 L 4.007812 -12.742188 L 4.023438 -12.148438 L 3.898438 -11.402344 L 3.617188 -10.800781 L 3.492188 -9.980469 L 3.4375 -9.386719 L 3.320312 -8.339844 L 3.335938 -7.75 L 3.207031 -7.148438 L 3.078125 -6.402344 L 2.886719 -5.359375 L 2.824219 -4.910156 L 2.707031 -3.867188 L 2.363281 -2.964844 L 2.308594 -2.296875 L 2.359375 -0.589844 L 2.957031 -0.457031 L 4 -0.339844 L 6.226562 -0.40625 L 6.742188 -0.496094 L 7.335938 -0.511719 L 7.785156 -0.453125 L 8.828125 -0.335938 L 9.496094 -0.355469 L 10.09375 -0.296875 L 10.980469 -0.398438 L 12.097656 -0.28125 L 13.058594 -0.382812 L 14.027344 -0.339844 Z M 15.140625 -10.398438 L 14.09375 -10.664062 L 14.222656 -11.335938 L 14.410156 -12.605469 L 14.449219 -13.71875 L 14.566406 -14.835938 L 14.832031 -15.886719 L 14.890625 -16.40625 L 15.148438 -17.75 L 15.335938 -18.871094 L 15.324219 -19.316406 L 15.664062 -20.367188 L 15.726562 -20.8125 L 15.699219 -21.777344 L 15.9375 -23.714844 L 16.070312 -24.238281 L 15.984375 -24.683594 L 16.117188 -25.207031 L 16.308594 -26.253906 L 16.296875 -26.699219 L 16.488281 -27.742188 L 16.621094 -28.191406 L 16.816406 -29.238281 L 16.800781 -29.757812 L 16.914062 -30.949219 L 17.105469 -31.996094 L 17.09375 -32.441406 L 17.300781 -32.890625 L 17.359375 -33.488281 L 17.34375 -34.007812 L 17.476562 -34.53125 L 17.535156 -34.976562 L 17.636719 -36.613281 L 17.753906 -37.65625 L 17.875 -38.628906 L 18.140625 -39.675781 L 18.332031 -40.792969 L 18.464844 -41.316406 L 18.449219 -41.761719 L 18.660156 -42.289062 L 18.863281 -42.890625 L 19.527344 -42.984375 L 20.496094 -42.9375 L 21.6875 -42.824219 L 22.960938 -42.492188 L 23.339844 -42.203125 L 23.796875 -41.847656 L 24.34375 -40.898438 L 24.828125 -39.648438 L 24.917969 -39.058594 L 25.125 -37.058594 L 25.113281 -34.902344 L 25.234375 -33.347656 L 25.132812 -31.785156 L 25.070312 -31.335938 L 24.894531 -29.773438 L 24.925781 -28.734375 L 24.585938 -27.683594 L 24.453125 -27.085938 L 24.394531 -26.566406 L 24.277344 -25.445312 L 24.160156 -24.402344 L 24.042969 -23.433594 L 23.984375 -22.914062 L 23.785156 -22.015625 L 23.652344 -21.566406 L 23.511719 -21.191406 L 23.453125 -20.742188 L 23.183594 -19.769531 L 22.992188 -18.726562 L 22.792969 -17.902344 L 22.390625 -16.480469 L 22.046875 -15.503906 L 21.699219 -14.75 L 21.421875 -14 L 21.140625 -13.472656 L 20.933594 -13.019531 L 20.429688 -12.410156 L 19.855469 -11.800781 L 19.492188 -11.492188 L 18.6875 -11.023438 L 18.101562 -10.707031 L 17.367188 -10.464844 Z M 15.140625 -10.398438 "/></g></g></g><g fill="rgb(100%, 100%, 100%)" fill-opacity="1"><g transform="translate(284.468974, 96.709761)"><g><path d="M 10.246094 -0.152344 L 12.175781 -0.210938 L 12.984375 -0.457031 L 13.1875 -1.132812 L 13.242188 -1.726562 L 13.4375 -2.699219 L 13.554688 -3.742188 L 13.75 -4.710938 L 13.992188 -6.503906 L 14.191406 -7.324219 L 14.175781 -7.84375 L 14.296875 -8.8125 L 14.414062 -9.855469 L 14.605469 -10.902344 L 14.589844 -11.496094 L 14.859375 -12.46875 L 14.914062 -13.066406 L 15.105469 -14.183594 L 15.007812 -15 L 15.355469 -15.75 L 15.324219 -16.789062 L 15.386719 -17.164062 L 15.507812 -18.207031 L 15.488281 -18.800781 L 15.753906 -19.847656 L 15.738281 -20.441406 L 16.003906 -21.488281 L 16.125 -22.382812 L 16.246094 -23.355469 L 16.441406 -24.324219 L 16.421875 -24.917969 L 16.628906 -25.445312 L 16.894531 -26.492188 L 17.203125 -28.730469 L 17.402344 -29.476562 L 17.523438 -30.445312 L 17.507812 -30.964844 L 17.5625 -31.5625 L 17.621094 -32.082031 L 17.601562 -32.75 L 17.804688 -33.425781 L 17.996094 -34.472656 L 18.0625 -34.84375 L 18.253906 -35.816406 L 18.453125 -36.714844 L 18.570312 -37.683594 L 18.628906 -38.203125 L 18.679688 -39.097656 L 18.738281 -39.617188 L 18.859375 -40.511719 L 18.996094 -40.960938 L 19.117188 -41.78125 L 19.433594 -43.722656 L 19.496094 -44.171875 L 19.480469 -44.691406 L 19.539062 -45.136719 L 19.523438 -45.730469 L 19.800781 -46.40625 L 19.917969 -47.449219 L 20.128906 -47.828125 L 20.109375 -48.496094 L 20.324219 -48.800781 L 20.234375 -49.242188 L 20.285156 -50.0625 L 20.429688 -50.289062 L 20.398438 -51.253906 L 20.460938 -51.699219 L 20.140625 -52.433594 L 19.320312 -52.632812 L 18.800781 -52.542969 L 14.871094 -52.425781 L 14.351562 -52.335938 L 13.3125 -52.308594 L 12.644531 -52.359375 L 11.53125 -52.253906 L 11.015625 -52.164062 L 10.578125 -51.855469 L 10.066406 -51.617188 L 9.566406 -50.859375 L 9.507812 -50.339844 L 9.375 -49.886719 L 9.257812 -48.769531 L 8.984375 -47.945312 L 8.859375 -47.125 L 8.8125 -46.234375 L 8.675781 -45.78125 L 8.617188 -45.335938 L 8.421875 -44.363281 L 8.304688 -43.320312 L 8.167969 -42.945312 L 8.121094 -41.980469 L 8.066406 -41.382812 L 8.152344 -40.867188 L 7.886719 -39.890625 L 7.828125 -39.371094 L 7.632812 -38.398438 L 7.570312 -37.953125 L 7.300781 -37.054688 L 7.390625 -36.535156 L 7.328125 -36.089844 L 7.210938 -35.046875 L 7.003906 -34.519531 L 7.035156 -33.480469 L 6.859375 -31.914062 L 6.519531 -30.867188 L 6.324219 -29.894531 L 6.203125 -29 L 6.230469 -28.035156 L 5.949219 -27.433594 L 5.832031 -26.390625 L 5.847656 -25.871094 L 5.582031 -24.820312 L 5.613281 -23.78125 L 5.496094 -22.738281 L 5.433594 -22.292969 L 5.375 -21.769531 L 5.242188 -21.246094 L 5.253906 -20.800781 L 5.140625 -19.683594 L 4.667969 -18.035156 L 4.757812 -17.519531 L 4.625 -16.996094 L 4.5625 -16.546875 L 4.429688 -16.023438 L 4.445312 -15.503906 L 4.324219 -14.609375 L 4.195312 -13.9375 L 3.992188 -13.261719 L 3.863281 -12.589844 L 3.664062 -11.769531 L 3.480469 -10.425781 L 3.566406 -9.984375 L 3.300781 -9.007812 L 3.242188 -8.488281 L 3.109375 -7.890625 L 3.050781 -7.367188 L 2.859375 -6.25 L 2.804688 -5.652344 L 2.6875 -4.609375 L 2.554688 -4.085938 L 2.511719 -2.96875 L 2.171875 -1.921875 L 2.277344 -0.808594 L 2.886719 -0.308594 L 3.484375 -0.175781 L 4.078125 -0.269531 L 4.597656 -0.210938 L 5.417969 -0.160156 L 5.933594 -0.25 L 6.527344 -0.265625 L 7.570312 -0.148438 L 9.722656 -0.210938 Z M 10.246094 -0.152344 "/></g></g></g><g fill="rgb(100%, 100%, 100%)" fill-opacity="1"><g transform="translate(303.984488, 96.134845)"><g><path d="M 10.910156 -0.246094 L 11.5 -0.339844 L 12.6875 -0.449219 L 14.246094 -0.492188 L 14.6875 -0.582031 L 15.65625 -0.535156 L 16.839844 -0.644531 L 23.890625 -0.851562 L 24.089844 -1.675781 L 24.21875 -2.347656 L 24.253906 -3.609375 L 24.445312 -4.730469 L 24.503906 -5.253906 L 24.636719 -5.703125 L 24.769531 -6.226562 L 24.742188 -7.191406 L 24.992188 -8.832031 L 25.046875 -9.425781 L 25.171875 -10.25 L 25.238281 -10.546875 L 25.292969 -11.144531 L 24.769531 -11.351562 L 22.691406 -11.214844 L 21.058594 -11.242188 L 20.015625 -11.285156 L 15.640625 -11.15625 L 14.597656 -11.273438 L 14.289062 -11.5625 L 14.273438 -12.15625 L 14.511719 -14.09375 L 14.695312 -15.433594 L 14.828125 -15.960938 L 14.882812 -16.703125 L 15.011719 -17.375 L 15.210938 -18.125 L 15.445312 -20.210938 L 15.640625 -21.183594 L 15.914062 -22.007812 L 16.582031 -22.027344 L 17.542969 -22.128906 L 18.359375 -22.152344 L 19.625 -22.117188 L 21.476562 -22.246094 L 22.144531 -22.265625 L 23.253906 -22.371094 L 23.996094 -22.394531 L 24.140625 -22.546875 L 24.257812 -23.589844 L 24.449219 -24.785156 L 24.566406 -25.828125 L 24.769531 -26.425781 L 24.753906 -26.945312 L 24.945312 -28.066406 L 25.078125 -28.589844 L 25.269531 -29.636719 L 25.394531 -30.457031 L 25.375 -31.050781 L 25.5 -31.945312 L 25.035156 -32.523438 L 24.4375 -32.65625 L 22.507812 -32.597656 L 21.101562 -32.410156 L 18.503906 -32.40625 L 17.167969 -32.367188 L 17.277344 -33.707031 L 17.476562 -34.457031 L 17.386719 -35.046875 L 17.519531 -35.570312 L 17.710938 -36.617188 L 17.828125 -37.660156 L 18.011719 -39.078125 L 17.992188 -39.671875 L 18.203125 -40.121094 L 18.171875 -41.160156 L 18.230469 -41.683594 L 18.425781 -42.578125 L 20.207031 -42.707031 L 25.027344 -42.847656 L 25.917969 -42.949219 L 29.035156 -43.039062 L 29.773438 -43.136719 L 29.96875 -44.109375 L 30.027344 -44.554688 L 30.296875 -45.601562 L 30.277344 -46.195312 L 30.46875 -47.316406 L 30.527344 -47.761719 L 30.585938 -48.285156 L 30.796875 -48.8125 L 30.78125 -49.257812 L 30.875 -51.117188 L 30.863281 -51.5625 L 31.0625 -52.382812 L 30.675781 -52.890625 L 30.003906 -52.945312 L 29.261719 -53 L 28.59375 -52.90625 L 26.960938 -52.855469 L 24.8125 -52.71875 L 24.21875 -52.777344 L 22.507812 -52.800781 L 16.945312 -52.5625 L 15.3125 -52.441406 L 14.574219 -52.417969 L 13.976562 -52.476562 L 13.457031 -52.460938 L 12.570312 -52.359375 L 12.046875 -52.417969 L 11.605469 -52.332031 L 10.34375 -52.292969 L 9.761719 -51.832031 L 9.699219 -51.382812 L 9.492188 -50.929688 L 9.296875 -50.035156 L 9.457031 -49.519531 L 9.398438 -49.070312 L 9.351562 -48.105469 L 9.289062 -47.65625 L 9.15625 -47.207031 L 9.109375 -46.242188 L 8.976562 -45.71875 L 9.0625 -45.273438 L 8.855469 -44.75 L 8.871094 -44.230469 L 8.664062 -43.777344 L 8.542969 -42.734375 L 8.277344 -41.761719 L 8.21875 -41.238281 L 8.304688 -40.796875 L 8.246094 -40.273438 L 8.113281 -39.675781 L 7.832031 -39.222656 L 7.804688 -37.660156 L 7.59375 -37.136719 L 7.582031 -35.054688 L 7.320312 -33.933594 L 7.125 -32.886719 L 7.214844 -32.445312 L 7.082031 -31.921875 L 6.875 -31.320312 L 6.496094 -29.082031 L 6.210938 -28.628906 L 6.226562 -28.109375 L 6.167969 -27.585938 L 6.113281 -26.992188 L 5.90625 -26.464844 L 5.789062 -25.347656 L 5.523438 -24.300781 L 5.554688 -23.1875 L 5.304688 -21.621094 L 5.171875 -21.097656 L 4.980469 -19.976562 L 4.921875 -19.457031 L 4.714844 -18.929688 L 4.519531 -17.957031 L 4.609375 -17.515625 L 4.339844 -16.617188 L 4.347656 -16.246094 L 4.230469 -15.277344 L 4.097656 -14.675781 L 4.113281 -14.15625 L 4 -12.964844 L 3.71875 -12.363281 L 3.601562 -11.394531 L 3.558594 -10.355469 L 3.5 -9.832031 L 3.367188 -9.234375 L 3.382812 -8.714844 L 3.25 -8.191406 L 3.269531 -7.523438 L 3.0625 -6.921875 L 3.023438 -5.734375 L 2.761719 -4.613281 L 2.648438 -3.421875 L 2.53125 -2.300781 L 2.402344 -1.628906 L 2.199219 -0.957031 L 2.441406 -0.292969 L 3.113281 -0.167969 L 7.046875 -0.28125 L 7.570312 -0.222656 L 9.5 -0.28125 Z M 10.910156 -0.246094 "/></g></g></g><g fill="rgb(100%, 100%, 100%)" fill-opacity="1"><g transform="translate(331.95918, 95.310726)"><g><path d="M 3.789062 0.0351562 L 11.65625 -0.195312 L 12.460938 -0.515625 L 12.664062 -1.265625 L 12.933594 -2.164062 L 13.117188 -3.503906 L 13.253906 -3.957031 L 13.222656 -4.921875 L 13.28125 -5.441406 L 13.476562 -6.414062 L 13.710938 -8.574219 L 13.84375 -9.097656 L 13.90625 -9.542969 L 14.023438 -10.589844 L 14.273438 -12.082031 L 14.539062 -13.203125 L 14.65625 -14.246094 L 14.71875 -14.695312 L 14.628906 -15.210938 L 14.761719 -15.734375 L 14.957031 -16.632812 L 14.792969 -17.148438 L 14.988281 -18.117188 L 15.125 -18.566406 L 15.335938 -21.46875 L 15.75 -25.046875 L 15.769531 -26.90625 L 15.878906 -28.171875 L 15.929688 -28.988281 L 15.960938 -30.476562 L 15.972656 -32.554688 L 16.195312 -32.5625 L 16.726562 -29.753906 L 17.25 -27.097656 L 17.53125 -25.027344 L 17.972656 -22.660156 L 18.332031 -20.59375 L 18.523438 -19.1875 L 18.863281 -17.710938 L 18.894531 -16.597656 L 18.984375 -16.15625 L 19.234375 -15.125 L 19.324219 -14.679688 L 19.578125 -13.648438 L 19.589844 -13.203125 L 19.84375 -12.097656 L 20.089844 -11.285156 L 20.199219 -10.175781 L 20.378906 -9.140625 L 20.464844 -8.699219 L 20.808594 -7.148438 L 20.894531 -6.707031 L 21.089844 -5.152344 L 21.175781 -4.707031 L 21.277344 -3.820312 L 21.363281 -3.453125 L 21.765625 -2.421875 L 22.390625 -1.253906 L 23 -0.75 L 24.261719 -0.789062 L 25.230469 -0.742188 L 26.714844 -0.785156 L 27.15625 -0.875 L 27.902344 -0.820312 L 28.417969 -0.910156 L 29.832031 -0.878906 L 30.128906 -0.886719 L 30.9375 -1.058594 L 31.976562 -1.164062 L 32.703125 -1.707031 L 33.34375 -2.617188 L 33.644531 -5 L 33.839844 -5.972656 L 33.972656 -6.496094 L 33.960938 -6.941406 L 34.300781 -7.917969 L 34.265625 -9.105469 L 34.535156 -10.152344 L 34.738281 -10.753906 L 34.859375 -11.722656 L 34.90625 -12.6875 L 34.953125 -13.507812 L 35.226562 -14.40625 L 35.503906 -15.082031 L 35.628906 -15.828125 L 35.746094 -16.871094 L 36.011719 -17.921875 L 36 -18.367188 L 36.0625 -18.8125 L 36.121094 -19.335938 L 36.179688 -19.78125 L 36.234375 -20.453125 L 36.363281 -21.125 L 36.554688 -22.167969 L 36.765625 -22.621094 L 36.738281 -23.585938 L 36.796875 -24.035156 L 36.855469 -24.554688 L 36.992188 -25.003906 L 37.050781 -25.527344 L 37.1875 -25.976562 L 37.09375 -26.640625 L 37.222656 -27.238281 L 37.339844 -28.28125 L 37.535156 -29.253906 L 37.667969 -29.777344 L 37.863281 -30.75 L 37.992188 -31.347656 L 38.054688 -31.867188 L 38.101562 -32.6875 L 38.304688 -33.363281 L 38.539062 -35.597656 L 38.671875 -36.121094 L 38.640625 -37.085938 L 38.773438 -37.609375 L 38.90625 -38.207031 L 39.109375 -38.882812 L 39.222656 -40.074219 L 39.484375 -41.269531 L 39.660156 -42.832031 L 39.792969 -43.433594 L 39.976562 -44.773438 L 40.171875 -45.597656 L 40.566406 -47.390625 L 40.683594 -48.433594 L 40.859375 -50.074219 L 40.765625 -50.664062 L 40.957031 -51.710938 L 40.941406 -52.304688 L 40.851562 -52.894531 L 40.398438 -53.105469 L 39.351562 -53.296875 L 38.316406 -53.191406 L 37.574219 -53.171875 L 35.863281 -53.195312 L 35.121094 -53.171875 L 34.605469 -53.082031 L 33.042969 -53.183594 L 31.640625 -52.847656 L 31.351562 -52.617188 L 30.789062 -51.558594 L 30.539062 -49.992188 L 30.351562 -48.796875 L 30.289062 -48.351562 L 30.308594 -47.683594 L 30.101562 -47.082031 L 29.96875 -46.558594 L 29.777344 -45.511719 L 29.722656 -44.917969 L 29.605469 -43.875 L 29.46875 -43.425781 L 29.410156 -42.902344 L 29.214844 -41.933594 L 29.226562 -41.488281 L 29.046875 -40.144531 L 29.132812 -39.628906 L 28.714844 -38.722656 L 28.730469 -38.203125 L 28.683594 -37.3125 L 28.710938 -36.421875 L 28.441406 -35.449219 L 28.453125 -35.003906 L 28.335938 -33.960938 L 28.199219 -33.507812 L 28.15625 -32.46875 L 28.101562 -31.871094 L 28.042969 -31.351562 L 27.980469 -30.902344 L 27.789062 -29.859375 L 27.863281 -27.335938 L 27.6875 -25.769531 L 27.570312 -22.203125 L 27.597656 -21.164062 L 27.503906 -19.378906 L 27.472656 -17.890625 L 27.25 -17.886719 L 26.980469 -19.511719 L 26.699219 -21.507812 L 26.523438 -22.394531 L 26.359375 -22.910156 L 26.34375 -23.429688 L 26.148438 -25.054688 L 25.800781 -26.753906 L 25.519531 -28.75 L 25.351562 -29.339844 L 25.175781 -30.375 L 25.066406 -31.558594 L 24.804688 -32.816406 L 24.621094 -34.074219 L 24.363281 -35.179688 L 24.265625 -35.992188 L 24.25 -36.511719 L 24.003906 -37.320312 L 23.992188 -37.765625 L 23.738281 -38.726562 L 23.558594 -39.835938 L 23.46875 -40.351562 L 23.304688 -40.941406 L 22.960938 -42.417969 L 22.710938 -43.449219 L 22.449219 -44.703125 L 22.191406 -45.882812 L 21.84375 -47.65625 L 21.515625 -48.6875 L 21.417969 -49.5 L 21.242188 -50.386719 L 20.921875 -51.121094 L 20.835938 -51.636719 L 20.367188 -52.292969 L 19.546875 -52.492188 L 18.507812 -52.460938 L 17.390625 -52.5 L 16.503906 -52.402344 L 15.089844 -52.433594 L 14.128906 -52.332031 L 13.460938 -52.3125 L 12.199219 -52.347656 L 11.160156 -52.242188 L 10.421875 -52.074219 L 10.003906 -51.242188 L 9.789062 -50.867188 L 9.65625 -50.417969 L 9.460938 -49.445312 L 9.476562 -48.851562 L 9.285156 -47.878906 L 9.164062 -46.984375 L 9.042969 -46.015625 L 8.984375 -45.496094 L 8.847656 -45.046875 L 8.789062 -44.523438 L 8.726562 -44.078125 L 8.667969 -43.554688 L 8.625 -42.585938 L 8.496094 -41.914062 L 8.21875 -41.238281 L 8.234375 -40.71875 L 7.921875 -38.628906 L 7.789062 -38.179688 L 7.730469 -37.660156 L 7.753906 -36.769531 L 7.550781 -36.09375 L 7.351562 -35.273438 L 7.234375 -34.304688 L 7.101562 -33.777344 L 7.117188 -33.257812 L 6.910156 -32.734375 L 6.925781 -32.140625 L 6.71875 -31.539062 L 6.664062 -30.945312 L 6.695312 -29.90625 L 6.566406 -29.160156 L 6.4375 -28.5625 L 6.09375 -27.660156 L 6.039062 -26.914062 L 5.996094 -25.875 L 5.9375 -25.351562 L 5.875 -24.90625 L 5.53125 -24.003906 L 5.542969 -23.558594 L 5.484375 -23.109375 L 5.4375 -22.144531 L 5.300781 -21.695312 L 5.242188 -21.171875 L 5.121094 -20.277344 L 4.921875 -19.457031 L 4.792969 -18.78125 L 4.671875 -17.886719 L 4.410156 -16.691406 L 4.289062 -15.722656 L 4.378906 -15.207031 L 4.320312 -14.757812 L 4.121094 -13.863281 L 4.0625 -13.339844 L 4.015625 -12.445312 L 3.734375 -11.917969 L 3.761719 -10.953125 L 3.632812 -10.355469 L 3.648438 -9.835938 L 3.457031 -8.644531 L 3.332031 -7.96875 L 3.136719 -6.925781 L 3 -6.550781 L 2.808594 -5.503906 L 2.75 -4.984375 L 2.484375 -3.933594 L 2.371094 -2.742188 L 2.40625 -1.554688 L 2.273438 -0.957031 L 2.671875 -0.078125 Z M 3.789062 0.0351562 "/></g></g></g><g fill="rgb(100%, 100%, 100%)" fill-opacity="1"><g transform="translate(371.954836, 94.132477)"><g><path d="M 9.207031 -0.046875 L 10.09375 -0.296875 L 16.546875 -0.488281 L 17.425781 -0.882812 L 17.5625 -1.335938 L 17.753906 -2.378906 L 17.871094 -3.421875 L 18.257812 -5.515625 L 18.578125 -7.15625 L 18.488281 -7.75 L 18.679688 -8.792969 L 18.8125 -9.390625 L 19.136719 -10.960938 L 19.328125 -11.933594 L 19.390625 -12.453125 L 19.65625 -13.429688 L 19.84375 -14.621094 L 20.035156 -15.667969 L 19.949219 -16.183594 L 20.007812 -16.632812 L 20.066406 -17.152344 L 20.339844 -18.050781 L 20.398438 -18.574219 L 20.53125 -19.023438 L 20.59375 -19.472656 L 20.570312 -20.214844 L 20.699219 -20.886719 L 20.890625 -22.003906 L 21.082031 -23.050781 L 21.070312 -23.496094 L 21.203125 -23.945312 L 21.246094 -24.988281 L 21.527344 -25.515625 L 21.726562 -26.410156 L 21.769531 -27.378906 L 21.757812 -27.898438 L 21.964844 -28.351562 L 22.15625 -29.394531 L 22.289062 -29.917969 L 22.40625 -31.035156 L 22.75 -31.9375 L 22.734375 -32.457031 L 22.796875 -32.90625 L 22.84375 -33.796875 L 22.832031 -34.242188 L 23.101562 -35.214844 L 23.441406 -36.265625 L 23.28125 -36.632812 L 23.5625 -37.234375 L 23.816406 -38.578125 L 23.878906 -39.101562 L 23.996094 -40.070312 L 24.132812 -40.519531 L 24.121094 -40.964844 L 24.328125 -41.492188 L 24.238281 -41.933594 L 24.371094 -42.457031 L 25.039062 -42.550781 L 28.15625 -42.570312 L 28.898438 -42.589844 L 29.566406 -42.683594 L 30.453125 -42.710938 L 31.125 -42.65625 L 31.863281 -42.753906 L 32.140625 -43.429688 L 32.1875 -44.46875 L 32.320312 -44.992188 L 32.585938 -45.96875 L 32.636719 -46.859375 L 32.695312 -47.308594 L 32.828125 -47.832031 L 32.953125 -48.726562 L 32.9375 -49.171875 L 33.070312 -49.695312 L 33.132812 -50.144531 L 33.117188 -50.660156 L 33.25 -51.261719 L 33.308594 -51.78125 L 33.292969 -52.226562 L 33.128906 -52.816406 L 32.457031 -52.945312 L 31.414062 -52.988281 L 26.8125 -52.851562 L 26.144531 -52.90625 L 24.585938 -52.789062 L 23.472656 -52.828125 L 18.726562 -52.613281 L 17.09375 -52.566406 L 16.570312 -52.625 L 11.082031 -52.464844 L 10.5625 -52.375 L 10.042969 -52.359375 L 9.671875 -52.421875 L 7.742188 -52.367188 L 7.222656 -52.277344 L 6.570312 -51.738281 L 6.222656 -50.910156 L 6.164062 -50.460938 L 6.195312 -49.421875 L 5.984375 -48.972656 L 5.714844 -48 L 5.671875 -46.957031 L 5.535156 -46.507812 L 5.269531 -45.460938 L 5.359375 -44.941406 L 5.378906 -44.347656 L 5.171875 -43.75 L 5.050781 -42.855469 L 5.292969 -42.191406 L 5.96875 -41.988281 L 6.5625 -42.007812 L 7.304688 -41.953125 L 7.972656 -41.972656 L 8.488281 -42.0625 L 9.53125 -42.019531 L 13.539062 -42.136719 L 13.5 -40.949219 L 13.382812 -39.832031 L 13.25 -39.308594 L 13.054688 -38.335938 L 13.070312 -37.890625 L 13.011719 -37.371094 L 13.023438 -36.925781 L 12.960938 -36.476562 L 12.625 -35.277344 L 12.492188 -34.753906 L 12.433594 -34.234375 L 12.453125 -33.640625 L 12.3125 -33.265625 L 12.335938 -32.523438 L 11.988281 -31.695312 L 12.078125 -31.179688 L 11.890625 -30.058594 L 11.753906 -29.609375 L 11.769531 -29.089844 L 11.484375 -28.636719 L 11.351562 -28.109375 L 11.371094 -27.445312 L 11.171875 -26.695312 L 11.203125 -25.65625 L 11.066406 -25.207031 L 10.722656 -24.304688 L 10.886719 -23.789062 L 10.753906 -23.265625 L 10.488281 -22.144531 L 10.148438 -21.09375 L 10.015625 -20.570312 L 9.957031 -20.050781 L 10.125 -19.3125 L 9.777344 -18.558594 L 9.734375 -17.515625 L 9.597656 -17.066406 L 9.476562 -16.097656 L 9.417969 -15.578125 L 9.285156 -15.054688 L 9.097656 -13.933594 L 8.898438 -13.035156 L 8.917969 -12.441406 L 8.59375 -10.875 L 8.683594 -10.28125 L 8.625 -9.761719 L 8.285156 -8.710938 L 8.300781 -8.191406 L 8.257812 -7.148438 L 8.121094 -6.699219 L 8.078125 -5.585938 L 7.945312 -5.0625 L 7.472656 -3.488281 L 7.445312 -1.925781 L 7.328125 -0.808594 L 8.015625 -0.234375 L 8.535156 -0.25 Z M 9.207031 -0.046875 "/></g></g></g><g fill="rgb(100%, 100%, 100%)" fill-opacity="1"><g transform="translate(400.894156, 93.279941)"><g><path d="M 10.910156 -0.246094 L 11.5 -0.339844 L 12.6875 -0.449219 L 14.246094 -0.492188 L 14.6875 -0.582031 L 15.65625 -0.535156 L 16.839844 -0.644531 L 23.890625 -0.851562 L 24.089844 -1.675781 L 24.21875 -2.347656 L 24.253906 -3.609375 L 24.445312 -4.730469 L 24.503906 -5.253906 L 24.636719 -5.703125 L 24.769531 -6.226562 L 24.742188 -7.191406 L 24.992188 -8.832031 L 25.046875 -9.425781 L 25.171875 -10.25 L 25.238281 -10.546875 L 25.292969 -11.144531 L 24.769531 -11.351562 L 22.691406 -11.214844 L 21.058594 -11.242188 L 20.015625 -11.285156 L 15.640625 -11.15625 L 14.597656 -11.273438 L 14.289062 -11.5625 L 14.273438 -12.15625 L 14.511719 -14.09375 L 14.695312 -15.433594 L 14.828125 -15.960938 L 14.882812 -16.703125 L 15.011719 -17.375 L 15.210938 -18.125 L 15.445312 -20.210938 L 15.640625 -21.183594 L 15.914062 -22.007812 L 16.582031 -22.027344 L 17.542969 -22.128906 L 18.359375 -22.152344 L 19.625 -22.117188 L 21.476562 -22.246094 L 22.144531 -22.265625 L 23.253906 -22.371094 L 23.996094 -22.394531 L 24.140625 -22.546875 L 24.257812 -23.589844 L 24.449219 -24.785156 L 24.566406 -25.828125 L 24.769531 -26.425781 L 24.753906 -26.945312 L 24.945312 -28.066406 L 25.078125 -28.589844 L 25.269531 -29.636719 L 25.394531 -30.457031 L 25.375 -31.050781 L 25.5 -31.945312 L 25.035156 -32.523438 L 24.4375 -32.65625 L 22.507812 -32.597656 L 21.101562 -32.410156 L 18.503906 -32.40625 L 17.167969 -32.367188 L 17.277344 -33.707031 L 17.476562 -34.457031 L 17.386719 -35.046875 L 17.519531 -35.570312 L 17.710938 -36.617188 L 17.828125 -37.660156 L 18.011719 -39.078125 L 17.992188 -39.671875 L 18.203125 -40.121094 L 18.171875 -41.160156 L 18.230469 -41.683594 L 18.425781 -42.578125 L 20.207031 -42.707031 L 25.027344 -42.847656 L 25.917969 -42.949219 L 29.035156 -43.039062 L 29.773438 -43.136719 L 29.96875 -44.109375 L 30.027344 -44.554688 L 30.296875 -45.601562 L 30.277344 -46.195312 L 30.46875 -47.316406 L 30.527344 -47.761719 L 30.585938 -48.285156 L 30.796875 -48.8125 L 30.78125 -49.257812 L 30.875 -51.117188 L 30.863281 -51.5625 L 31.0625 -52.382812 L 30.675781 -52.890625 L 30.003906 -52.945312 L 29.261719 -53 L 28.59375 -52.90625 L 26.960938 -52.855469 L 24.8125 -52.71875 L 24.21875 -52.777344 L 22.507812 -52.800781 L 16.945312 -52.5625 L 15.3125 -52.441406 L 14.574219 -52.417969 L 13.976562 -52.476562 L 13.457031 -52.460938 L 12.570312 -52.359375 L 12.046875 -52.417969 L 11.605469 -52.332031 L 10.34375 -52.292969 L 9.761719 -51.832031 L 9.699219 -51.382812 L 9.492188 -50.929688 L 9.296875 -50.035156 L 9.457031 -49.519531 L 9.398438 -49.070312 L 9.351562 -48.105469 L 9.289062 -47.65625 L 9.15625 -47.207031 L 9.109375 -46.242188 L 8.976562 -45.71875 L 9.0625 -45.273438 L 8.855469 -44.75 L 8.871094 -44.230469 L 8.664062 -43.777344 L 8.542969 -42.734375 L 8.277344 -41.761719 L 8.21875 -41.238281 L 8.304688 -40.796875 L 8.246094 -40.273438 L 8.113281 -39.675781 L 7.832031 -39.222656 L 7.804688 -37.660156 L 7.59375 -37.136719 L 7.582031 -35.054688 L 7.320312 -33.933594 L 7.125 -32.886719 L 7.214844 -32.445312 L 7.082031 -31.921875 L 6.875 -31.320312 L 6.496094 -29.082031 L 6.210938 -28.628906 L 6.226562 -28.109375 L 6.167969 -27.585938 L 6.113281 -26.992188 L 5.90625 -26.464844 L 5.789062 -25.347656 L 5.523438 -24.300781 L 5.554688 -23.1875 L 5.304688 -21.621094 L 5.171875 -21.097656 L 4.980469 -19.976562 L 4.921875 -19.457031 L 4.714844 -18.929688 L 4.519531 -17.957031 L 4.609375 -17.515625 L 4.339844 -16.617188 L 4.347656 -16.246094 L 4.230469 -15.277344 L 4.097656 -14.675781 L 4.113281 -14.15625 L 4 -12.964844 L 3.71875 -12.363281 L 3.601562 -11.394531 L 3.558594 -10.355469 L 3.5 -9.832031 L 3.367188 -9.234375 L 3.382812 -8.714844 L 3.25 -8.191406 L 3.269531 -7.523438 L 3.0625 -6.921875 L 3.023438 -5.734375 L 2.761719 -4.613281 L 2.648438 -3.421875 L 2.53125 -2.300781 L 2.402344 -1.628906 L 2.199219 -0.957031 L 2.441406 -0.292969 L 3.113281 -0.167969 L 7.046875 -0.28125 L 7.570312 -0.222656 L 9.5 -0.28125 Z M 10.910156 -0.246094 "/></g></g></g><g fill="rgb(100%, 100%, 100%)" fill-opacity="1"><g transform="translate(428.868848, 92.455823)"><g><path d="M 14.722656 0.53125 L 15.535156 0.433594 L 16.050781 0.34375 L 16.867188 0.320312 L 17.386719 0.230469 L 18.054688 0.285156 L 18.574219 0.195312 L 19.527344 -0.128906 L 20.121094 -0.222656 L 21.222656 -0.625 L 21.660156 -0.933594 L 22.542969 -1.183594 L 23.195312 -1.722656 L 23.925781 -2.191406 L 24.503906 -2.726562 L 24.863281 -3.035156 L 25.4375 -3.71875 L 25.800781 -4.027344 L 26.152344 -4.78125 L 26.585938 -5.089844 L 27.21875 -6.371094 L 27.558594 -7.421875 L 27.6875 -8.09375 L 27.816406 -8.691406 L 28.085938 -9.664062 L 28.054688 -10.777344 L 28.113281 -11.226562 L 28.304688 -12.269531 L 28.246094 -14.347656 L 28.304688 -14.871094 L 28.214844 -15.386719 L 28.277344 -15.835938 L 28.320312 -16.875 L 28.15625 -17.316406 L 27.75 -18.566406 L 27.660156 -19.085938 L 27.570312 -19.675781 L 27.480469 -20.195312 L 26.988281 -21.738281 L 26.515625 -22.691406 L 25.875 -24.15625 L 25.792969 -24.527344 L 25.101562 -25.324219 L 24.542969 -26.570312 L 23.625 -27.433594 L 23.234375 -28.089844 L 22.546875 -28.8125 L 22.3125 -29.175781 L 21.933594 -29.386719 L 21.699219 -29.828125 L 20.941406 -30.398438 L 20.484375 -30.683594 L 20.179688 -31.046875 L 19.863281 -31.628906 L 19.480469 -31.988281 L 19.171875 -32.425781 L 18.171875 -33.585938 L 17.324219 -34.601562 L 16.777344 -35.550781 L 16.464844 -36.132812 L 15.839844 -37.15625 L 15.277344 -38.550781 L 15.1875 -39.066406 L 15.160156 -40.03125 L 15.203125 -41.074219 L 15.40625 -41.820312 L 15.464844 -42.34375 L 15.738281 -43.09375 L 15.945312 -43.621094 L 16.300781 -44.152344 L 17.105469 -44.546875 L 17.988281 -44.867188 L 18.957031 -44.75 L 19.71875 -44.175781 L 20.40625 -43.527344 L 20.640625 -43.089844 L 20.816406 -42.203125 L 20.863281 -40.496094 L 20.710938 -38.191406 L 20.578125 -37.59375 L 20.683594 -36.628906 L 21.289062 -36.128906 L 22.328125 -36.160156 L 23.371094 -36.113281 L 27.527344 -36.238281 L 28.859375 -36.351562 L 29.738281 -36.824219 L 29.984375 -38.464844 L 30.222656 -40.550781 L 30.257812 -41.8125 L 30.140625 -43.296875 L 30.09375 -44.929688 L 29.59375 -46.695312 L 29.355469 -47.210938 L 29.183594 -48.019531 L 28.875 -48.457031 L 28.332031 -49.257812 L 28.097656 -49.621094 L 27.332031 -50.417969 L 27.101562 -50.707031 L 26.261719 -51.425781 L 25.660156 -51.628906 L 25.128906 -52.0625 L 24.226562 -52.480469 L 23.921875 -52.695312 L 23.402344 -52.753906 L 22.128906 -53.085938 L 21.011719 -53.128906 L 20.339844 -53.257812 L 19.820312 -53.242188 L 17.964844 -53.261719 L 15.664062 -53.191406 L 14.414062 -52.785156 L 13.011719 -52.445312 L 12.207031 -51.976562 L 11.035156 -51.496094 L 9.726562 -50.492188 L 8.859375 -49.722656 L 8.425781 -49.265625 L 8.003906 -48.511719 L 7.789062 -48.207031 L 7.214844 -47.523438 L 7.003906 -47.144531 L 6.796875 -46.617188 L 6.515625 -46.015625 L 6.101562 -45.039062 L 6.046875 -44.292969 L 5.847656 -43.546875 L 5.566406 -43.019531 L 5.523438 -41.976562 L 5.316406 -41.449219 L 5.210938 -39.960938 L 5.273438 -37.808594 L 5.214844 -37.289062 L 5.304688 -36.695312 L 5.410156 -35.734375 L 5.734375 -34.777344 L 5.898438 -34.1875 L 6.136719 -33.675781 L 6.523438 -33.167969 L 6.839844 -32.507812 L 7.320312 -31.410156 L 7.785156 -30.679688 L 8.171875 -30.171875 L 8.929688 -29.601562 L 9.699219 -28.804688 L 10.394531 -27.859375 L 11.3125 -26.921875 L 12.15625 -25.980469 L 12.46875 -25.542969 L 12.847656 -25.183594 L 13.695312 -24.242188 L 14.082031 -23.660156 L 14.617188 -23.15625 L 14.851562 -22.792969 L 15.011719 -22.425781 L 15.320312 -21.988281 L 15.871094 -20.964844 L 16.488281 -20.09375 L 17.113281 -19.070312 L 17.371094 -17.964844 L 17.382812 -17.519531 L 17.71875 -16.191406 L 17.753906 -15.003906 L 17.859375 -13.96875 L 17.875 -13.449219 L 17.820312 -12.707031 L 17.699219 -11.808594 L 17.429688 -10.910156 L 17.148438 -10.382812 L 16.796875 -9.703125 L 16.4375 -9.324219 L 15.625 -9.074219 L 15.035156 -8.910156 L 14.371094 -8.890625 L 13.398438 -9.085938 L 12.632812 -9.804688 L 12.082031 -10.902344 L 11.835938 -11.636719 L 11.640625 -13.265625 L 11.59375 -14.824219 L 11.652344 -15.347656 L 11.574219 -18.089844 L 10.949219 -19.113281 L 9.980469 -19.160156 L 5.828125 -19.035156 L 4.933594 -19.085938 L 3.15625 -18.882812 L 2.132812 -18.332031 L 1.945312 -17.140625 L 1.8125 -16.617188 L 1.757812 -16.019531 L 1.640625 -14.902344 L 1.730469 -14.386719 L 1.691406 -13.121094 L 1.757812 -10.894531 L 1.941406 -9.710938 L 2.027344 -9.269531 L 2.28125 -8.238281 L 2.371094 -7.792969 L 2.929688 -6.472656 L 3.09375 -5.882812 L 3.652344 -4.636719 L 4.347656 -3.617188 L 5.117188 -2.75 L 5.886719 -1.808594 L 6.796875 -1.238281 L 7.554688 -0.742188 L 8.378906 -0.46875 L 9.582031 0.015625 L 10.105469 0.148438 L 10.851562 0.273438 L 11.671875 0.398438 L 12.414062 0.378906 L 12.9375 0.4375 Z M 14.722656 0.53125 "/></g></g></g><g fill="rgb(100%, 100%, 100%)" fill-opacity="1"><g transform="translate(458.401817, 91.585798)"><g/></g></g><g fill="rgb(100%, 87.059021%, 34.899902%)" fill-opacity="1"><g transform="translate(475.019621, 91.096247)"><g><path d="M 14.722656 0.53125 L 15.535156 0.433594 L 16.050781 0.34375 L 16.867188 0.320312 L 17.386719 0.230469 L 18.054688 0.285156 L 18.574219 0.195312 L 19.527344 -0.128906 L 20.121094 -0.222656 L 21.222656 -0.625 L 21.660156 -0.933594 L 22.542969 -1.183594 L 23.195312 -1.722656 L 23.925781 -2.191406 L 24.503906 -2.726562 L 24.863281 -3.035156 L 25.4375 -3.71875 L 25.800781 -4.027344 L 26.152344 -4.78125 L 26.585938 -5.089844 L 27.21875 -6.371094 L 27.558594 -7.421875 L 27.6875 -8.09375 L 27.816406 -8.691406 L 28.085938 -9.664062 L 28.054688 -10.777344 L 28.113281 -11.226562 L 28.304688 -12.269531 L 28.246094 -14.347656 L 28.304688 -14.871094 L 28.214844 -15.386719 L 28.277344 -15.835938 L 28.320312 -16.875 L 28.15625 -17.316406 L 27.75 -18.566406 L 27.660156 -19.085938 L 27.570312 -19.675781 L 27.480469 -20.195312 L 26.988281 -21.738281 L 26.515625 -22.691406 L 25.875 -24.15625 L 25.792969 -24.527344 L 25.101562 -25.324219 L 24.542969 -26.570312 L 23.625 -27.433594 L 23.234375 -28.089844 L 22.546875 -28.8125 L 22.3125 -29.175781 L 21.933594 -29.386719 L 21.699219 -29.828125 L 20.941406 -30.398438 L 20.484375 -30.683594 L 20.179688 -31.046875 L 19.863281 -31.628906 L 19.480469 -31.988281 L 19.171875 -32.425781 L 18.171875 -33.585938 L 17.324219 -34.601562 L 16.777344 -35.550781 L 16.464844 -36.132812 L 15.839844 -37.15625 L 15.277344 -38.550781 L 15.1875 -39.066406 L 15.160156 -40.03125 L 15.203125 -41.074219 L 15.40625 -41.820312 L 15.464844 -42.34375 L 15.738281 -43.09375 L 15.945312 -43.621094 L 16.300781 -44.152344 L 17.105469 -44.546875 L 17.988281 -44.867188 L 18.957031 -44.75 L 19.71875 -44.175781 L 20.40625 -43.527344 L 20.640625 -43.089844 L 20.816406 -42.203125 L 20.863281 -40.496094 L 20.710938 -38.191406 L 20.578125 -37.59375 L 20.683594 -36.628906 L 21.289062 -36.128906 L 22.328125 -36.160156 L 23.371094 -36.113281 L 27.527344 -36.238281 L 28.859375 -36.351562 L 29.738281 -36.824219 L 29.984375 -38.464844 L 30.222656 -40.550781 L 30.257812 -41.8125 L 30.140625 -43.296875 L 30.09375 -44.929688 L 29.59375 -46.695312 L 29.355469 -47.210938 L 29.183594 -48.019531 L 28.875 -48.457031 L 28.332031 -49.257812 L 28.097656 -49.621094 L 27.332031 -50.417969 L 27.101562 -50.707031 L 26.261719 -51.425781 L 25.660156 -51.628906 L 25.128906 -52.0625 L 24.226562 -52.480469 L 23.921875 -52.695312 L 23.402344 -52.753906 L 22.128906 -53.085938 L 21.011719 -53.128906 L 20.339844 -53.257812 L 19.820312 -53.242188 L 17.964844 -53.261719 L 15.664062 -53.191406 L 14.414062 -52.785156 L 13.011719 -52.445312 L 12.207031 -51.976562 L 11.035156 -51.496094 L 9.726562 -50.492188 L 8.859375 -49.722656 L 8.425781 -49.265625 L 8.003906 -48.511719 L 7.789062 -48.207031 L 7.214844 -47.523438 L 7.003906 -47.144531 L 6.796875 -46.617188 L 6.515625 -46.015625 L 6.101562 -45.039062 L 6.046875 -44.292969 L 5.847656 -43.546875 L 5.566406 -43.019531 L 5.523438 -41.976562 L 5.316406 -41.449219 L 5.210938 -39.960938 L 5.273438 -37.808594 L 5.214844 -37.289062 L 5.304688 -36.695312 L 5.410156 -35.734375 L 5.734375 -34.777344 L 5.898438 -34.1875 L 6.136719 -33.675781 L 6.523438 -33.167969 L 6.839844 -32.507812 L 7.320312 -31.410156 L 7.785156 -30.679688 L 8.171875 -30.171875 L 8.929688 -29.601562 L 9.699219 -28.804688 L 10.394531 -27.859375 L 11.3125 -26.921875 L 12.15625 -25.980469 L 12.46875 -25.542969 L 12.847656 -25.183594 L 13.695312 -24.242188 L 14.082031 -23.660156 L 14.617188 -23.15625 L 14.851562 -22.792969 L 15.011719 -22.425781 L 15.320312 -21.988281 L 15.871094 -20.964844 L 16.488281 -20.09375 L 17.113281 -19.070312 L 17.371094 -17.964844 L 17.382812 -17.519531 L 17.71875 -16.191406 L 17.753906 -15.003906 L 17.859375 -13.96875 L 17.875 -13.449219 L 17.820312 -12.707031 L 17.699219 -11.808594 L 17.429688 -10.910156 L 17.148438 -10.382812 L 16.796875 -9.703125 L 16.4375 -9.324219 L 15.625 -9.074219 L 15.035156 -8.910156 L 14.371094 -8.890625 L 13.398438 -9.085938 L 12.632812 -9.804688 L 12.082031 -10.902344 L 11.835938 -11.636719 L 11.640625 -13.265625 L 11.59375 -14.824219 L 11.652344 -15.347656 L 11.574219 -18.089844 L 10.949219 -19.113281 L 9.980469 -19.160156 L 5.828125 -19.035156 L 4.933594 -19.085938 L 3.15625 -18.882812 L 2.132812 -18.332031 L 1.945312 -17.140625 L 1.8125 -16.617188 L 1.757812 -16.019531 L 1.640625 -14.902344 L 1.730469 -14.386719 L 1.691406 -13.121094 L 1.757812 -10.894531 L 1.941406 -9.710938 L 2.027344 -9.269531 L 2.28125 -8.238281 L 2.371094 -7.792969 L 2.929688 -6.472656 L 3.09375 -5.882812 L 3.652344 -4.636719 L 4.347656 -3.617188 L 5.117188 -2.75 L 5.886719 -1.808594 L 6.796875 -1.238281 L 7.554688 -0.742188 L 8.378906 -0.46875 L 9.582031 0.015625 L 10.105469 0.148438 L 10.851562 0.273438 L 11.671875 0.398438 L 12.414062 0.378906 L 12.9375 0.4375 Z M 14.722656 0.53125 "/></g></g></g><g fill="rgb(100%, 87.059021%, 34.899902%)" fill-opacity="1"><g transform="translate(504.552579, 90.226223)"><g><path d="M 10.246094 -0.152344 L 12.175781 -0.210938 L 12.984375 -0.457031 L 13.1875 -1.132812 L 13.242188 -1.726562 L 13.4375 -2.699219 L 13.554688 -3.742188 L 13.75 -4.710938 L 13.992188 -6.503906 L 14.191406 -7.324219 L 14.175781 -7.84375 L 14.296875 -8.8125 L 14.414062 -9.855469 L 14.605469 -10.902344 L 14.589844 -11.496094 L 14.859375 -12.46875 L 14.914062 -13.066406 L 15.105469 -14.183594 L 15.007812 -15 L 15.355469 -15.75 L 15.324219 -16.789062 L 15.386719 -17.164062 L 15.507812 -18.207031 L 15.488281 -18.800781 L 15.753906 -19.847656 L 15.738281 -20.441406 L 16.003906 -21.488281 L 16.125 -22.382812 L 16.246094 -23.355469 L 16.441406 -24.324219 L 16.421875 -24.917969 L 16.628906 -25.445312 L 16.894531 -26.492188 L 17.203125 -28.730469 L 17.402344 -29.476562 L 17.523438 -30.445312 L 17.507812 -30.964844 L 17.5625 -31.5625 L 17.621094 -32.082031 L 17.601562 -32.75 L 17.804688 -33.425781 L 17.996094 -34.472656 L 18.0625 -34.84375 L 18.253906 -35.816406 L 18.453125 -36.714844 L 18.570312 -37.683594 L 18.628906 -38.203125 L 18.679688 -39.097656 L 18.738281 -39.617188 L 18.859375 -40.511719 L 18.996094 -40.960938 L 19.117188 -41.78125 L 19.433594 -43.722656 L 19.496094 -44.171875 L 19.480469 -44.691406 L 19.539062 -45.136719 L 19.523438 -45.730469 L 19.800781 -46.40625 L 19.917969 -47.449219 L 20.128906 -47.828125 L 20.109375 -48.496094 L 20.324219 -48.800781 L 20.234375 -49.242188 L 20.285156 -50.0625 L 20.429688 -50.289062 L 20.398438 -51.253906 L 20.460938 -51.699219 L 20.140625 -52.433594 L 19.320312 -52.632812 L 18.800781 -52.542969 L 14.871094 -52.425781 L 14.351562 -52.335938 L 13.3125 -52.308594 L 12.644531 -52.359375 L 11.53125 -52.253906 L 11.015625 -52.164062 L 10.578125 -51.855469 L 10.066406 -51.617188 L 9.566406 -50.859375 L 9.507812 -50.339844 L 9.375 -49.886719 L 9.257812 -48.769531 L 8.984375 -47.945312 L 8.859375 -47.125 L 8.8125 -46.234375 L 8.675781 -45.78125 L 8.617188 -45.335938 L 8.421875 -44.363281 L 8.304688 -43.320312 L 8.167969 -42.945312 L 8.121094 -41.980469 L 8.066406 -41.382812 L 8.152344 -40.867188 L 7.886719 -39.890625 L 7.828125 -39.371094 L 7.632812 -38.398438 L 7.570312 -37.953125 L 7.300781 -37.054688 L 7.390625 -36.535156 L 7.328125 -36.089844 L 7.210938 -35.046875 L 7.003906 -34.519531 L 7.035156 -33.480469 L 6.859375 -31.914062 L 6.519531 -30.867188 L 6.324219 -29.894531 L 6.203125 -29 L 6.230469 -28.035156 L 5.949219 -27.433594 L 5.832031 -26.390625 L 5.847656 -25.871094 L 5.582031 -24.820312 L 5.613281 -23.78125 L 5.496094 -22.738281 L 5.433594 -22.292969 L 5.375 -21.769531 L 5.242188 -21.246094 L 5.253906 -20.800781 L 5.140625 -19.683594 L 4.667969 -18.035156 L 4.757812 -17.519531 L 4.625 -16.996094 L 4.5625 -16.546875 L 4.429688 -16.023438 L 4.445312 -15.503906 L 4.324219 -14.609375 L 4.195312 -13.9375 L 3.992188 -13.261719 L 3.863281 -12.589844 L 3.664062 -11.769531 L 3.480469 -10.425781 L 3.566406 -9.984375 L 3.300781 -9.007812 L 3.242188 -8.488281 L 3.109375 -7.890625 L 3.050781 -7.367188 L 2.859375 -6.25 L 2.804688 -5.652344 L 2.6875 -4.609375 L 2.554688 -4.085938 L 2.511719 -2.96875 L 2.171875 -1.921875 L 2.277344 -0.808594 L 2.886719 -0.308594 L 3.484375 -0.175781 L 4.078125 -0.269531 L 4.597656 -0.210938 L 5.417969 -0.160156 L 5.933594 -0.25 L 6.527344 -0.265625 L 7.570312 -0.148438 L 9.722656 -0.210938 Z M 10.246094 -0.152344 "/></g></g></g><g fill="rgb(100%, 87.059021%, 34.899902%)" fill-opacity="1"><g transform="translate(524.068082, 89.651307)"><g><path d="M 8.613281 -0.105469 L 9.128906 -0.195312 L 9.5 -0.28125 L 11.722656 -0.34375 L 12.605469 -0.742188 L 13.023438 -1.570312 L 13.078125 -2.316406 L 13.136719 -2.765625 L 13.347656 -3.289062 L 13.390625 -4.257812 L 13.363281 -5.222656 L 13.558594 -6.117188 L 13.621094 -6.566406 L 13.738281 -7.609375 L 13.851562 -8.800781 L 13.90625 -9.46875 L 13.964844 -10.066406 L 14.234375 -10.964844 L 14.222656 -11.410156 L 14.339844 -12.453125 L 14.382812 -13.496094 L 14.367188 -14.015625 L 14.488281 -14.910156 L 14.605469 -15.953125 L 14.738281 -16.476562 L 14.800781 -16.925781 L 14.921875 -17.894531 L 14.980469 -18.414062 L 14.9375 -19.824219 L 15.074219 -20.273438 L 15.132812 -20.796875 L 15.347656 -23.550781 L 15.609375 -24.746094 L 15.585938 -25.636719 L 15.867188 -28.691406 L 16.164062 -28.699219 L 16.558594 -25.292969 L 16.648438 -24.851562 L 16.738281 -24.332031 L 16.917969 -23.226562 L 17.113281 -21.671875 L 17.648438 -18.566406 L 17.824219 -17.605469 L 18.078125 -16.574219 L 18.242188 -16.132812 L 18.433594 -14.578125 L 18.621094 -13.324219 L 18.785156 -12.808594 L 18.875 -12.289062 L 18.964844 -11.699219 L 19.128906 -11.183594 L 19.222656 -10.59375 L 19.628906 -9.34375 L 19.71875 -8.824219 L 20.621094 -8.40625 L 21.292969 -8.351562 L 22.707031 -8.171875 L 24.335938 -8.367188 L 25.007812 -8.238281 L 25.453125 -8.25 L 26.265625 -8.421875 L 26.617188 -9.175781 L 27.109375 -10.082031 L 28.984375 -14.519531 L 30.527344 -17.609375 L 31.425781 -19.863281 L 33.019531 -23.699219 L 35.117188 -28.144531 L 35.339844 -28.148438 L 35.097656 -26.359375 L 34.960938 -25.835938 L 34.902344 -25.386719 L 34.710938 -24.34375 L 34.527344 -23 L 34.019531 -20.089844 L 33.882812 -19.566406 L 33.898438 -19.121094 L 33.839844 -18.597656 L 33.640625 -17.777344 L 33.582031 -17.253906 L 33.519531 -16.808594 L 33.472656 -15.914062 L 33.265625 -15.386719 L 33.144531 -14.417969 L 33.175781 -13.378906 L 32.980469 -12.410156 L 32.710938 -11.511719 L 32.664062 -10.542969 L 32.398438 -9.570312 L 32.203125 -8.523438 L 32.089844 -7.40625 L 31.972656 -6.363281 L 31.839844 -5.765625 L 31.726562 -4.648438 L 31.664062 -4.125 L 31.472656 -3.082031 L 31.414062 -2.632812 L 31.503906 -2.117188 L 31.675781 -1.304688 L 32.207031 -0.949219 L 32.722656 -0.964844 L 33.097656 -0.902344 L 34.132812 -1.003906 L 37.398438 -1.101562 L 39.628906 -1.09375 L 40.445312 -1.117188 L 41.472656 -1.445312 L 41.675781 -2.117188 L 41.796875 -3.089844 L 41.992188 -4.058594 L 42.183594 -5.105469 L 42.238281 -5.699219 L 42.433594 -6.671875 L 42.417969 -7.191406 L 42.476562 -7.710938 L 42.523438 -8.679688 L 42.660156 -9.128906 L 42.71875 -9.652344 L 42.910156 -10.621094 L 42.96875 -11.21875 L 43.085938 -12.261719 L 43.222656 -12.710938 L 43.339844 -13.753906 L 43.394531 -14.351562 L 43.457031 -14.871094 L 43.644531 -15.992188 L 43.703125 -16.511719 L 44.042969 -17.636719 L 44.164062 -18.605469 L 44.148438 -19.050781 L 44.339844 -20.097656 L 44.457031 -21.214844 L 44.214844 -21.800781 L 44.574219 -22.332031 L 44.765625 -23.300781 L 44.828125 -23.75 L 44.886719 -24.273438 L 44.949219 -24.71875 L 44.859375 -25.238281 L 44.84375 -25.753906 L 45.125 -26.285156 L 45.164062 -27.398438 L 45.214844 -28.21875 L 45.414062 -29.113281 L 45.472656 -29.636719 L 45.53125 -30.082031 L 45.730469 -30.980469 L 45.847656 -32.023438 L 46.039062 -32.996094 L 46.175781 -33.445312 L 46.234375 -33.964844 L 46.222656 -34.410156 L 46.277344 -35.082031 L 46.554688 -35.683594 L 46.59375 -36.875 L 46.710938 -37.917969 L 46.773438 -38.363281 L 47.117188 -39.339844 L 47.324219 -39.792969 L 47.289062 -41.054688 L 47.570312 -41.582031 L 47.484375 -42.023438 L 47.53125 -42.917969 L 47.667969 -43.367188 L 47.859375 -44.410156 L 47.839844 -45.003906 L 48.183594 -45.980469 L 48.242188 -46.503906 L 48.378906 -46.953125 L 48.347656 -47.992188 L 48.414062 -48.214844 L 48.472656 -48.738281 L 48.535156 -49.183594 L 48.59375 -49.707031 L 48.660156 -50.007812 L 48.703125 -51.046875 L 48.835938 -51.496094 L 49.03125 -52.46875 L 48.867188 -52.984375 L 48.1875 -53.410156 L 46.707031 -53.289062 L 44.179688 -53.363281 L 42.992188 -53.253906 L 41.210938 -53.277344 L 39.433594 -53.078125 L 39.085938 -52.324219 L 38.585938 -51.566406 L 38.242188 -50.664062 L 37.957031 -50.210938 L 37.898438 -49.761719 L 37.757812 -49.460938 L 37.546875 -49.085938 L 37.261719 -48.628906 L 36.84375 -47.726562 L 36.347656 -46.894531 L 35.785156 -45.839844 L 35.367188 -44.859375 L 34.390625 -42.753906 L 34.105469 -42.296875 L 32.710938 -39.285156 L 32 -38.152344 L 31.9375 -37.703125 L 31.65625 -37.25 L 31.015625 -36.265625 L 30.746094 -35.367188 L 30.3125 -34.910156 L 29.824219 -33.929688 L 29.546875 -33.179688 L 29.121094 -32.496094 L 28.636719 -31.367188 L 28.648438 -30.921875 L 28.148438 -30.238281 L 27.726562 -29.484375 L 27.238281 -28.429688 L 27.027344 -27.90625 L 26.46875 -26.699219 L 26.1875 -26.246094 L 25.976562 -25.867188 L 25.066406 -23.984375 L 24.84375 -23.976562 L 24.503906 -25.378906 L 24.328125 -26.339844 L 24.164062 -26.78125 L 24.148438 -27.300781 L 24.0625 -27.816406 L 24.046875 -28.261719 L 23.71875 -29.292969 L 23.347656 -31.808594 L 23.097656 -32.839844 L 23.082031 -33.359375 L 22.828125 -34.390625 L 22.726562 -35.351562 L 22.710938 -35.796875 L 22.609375 -36.761719 L 22.375 -37.199219 L 22.285156 -37.71875 L 22.269531 -38.238281 L 22.089844 -39.269531 L 22.003906 -39.714844 L 21.660156 -41.261719 L 21.640625 -41.855469 L 21.476562 -42.371094 L 21.375 -43.410156 L 21.195312 -44.371094 L 20.9375 -45.550781 L 20.828125 -46.808594 L 20.574219 -47.839844 L 20.488281 -48.285156 L 20.308594 -49.320312 L 20.144531 -49.835938 L 19.859375 -51.90625 L 19.394531 -52.558594 L 18.429688 -52.53125 L 16.945312 -52.5625 L 15.609375 -52.449219 L 14.351562 -52.410156 L 13.085938 -52.449219 L 11.679688 -52.332031 L 10.640625 -52.300781 L 9.898438 -52.207031 L 9.480469 -51.300781 L 9.496094 -50.78125 L 9.21875 -50.105469 L 9.167969 -49.289062 L 9.035156 -48.765625 L 9.128906 -48.171875 L 8.933594 -47.203125 L 8.875 -46.679688 L 8.675781 -45.855469 L 8.554688 -44.960938 L 8.507812 -43.996094 L 8.519531 -43.550781 L 8.140625 -41.3125 L 8.078125 -40.863281 L 8.09375 -40.34375 L 7.960938 -39.894531 L 7.828125 -39.371094 L 7.632812 -38.398438 L 7.574219 -37.804688 L 7.457031 -36.761719 L 7.398438 -36.3125 L 7.277344 -35.269531 L 7.144531 -34.820312 L 7.023438 -33.851562 L 6.976562 -32.882812 L 6.78125 -31.988281 L 6.574219 -31.460938 L 6.511719 -31.015625 L 6.394531 -30.042969 L 6.335938 -29.523438 L 6.199219 -29.074219 L 6.214844 -28.554688 L 6.167969 -27.660156 L 6.042969 -26.765625 L 5.914062 -26.167969 L 5.710938 -25.496094 L 5.796875 -25.050781 L 5.601562 -24.152344 L 5.539062 -23.707031 L 5.558594 -23.039062 L 5.234375 -21.542969 L 5.113281 -20.5 L 5.132812 -19.90625 L 4.867188 -18.785156 L 4.828125 -17.59375 L 4.714844 -16.476562 L 4.578125 -16.027344 L 4.535156 -14.988281 L 4.472656 -14.539062 L 4.417969 -13.945312 L 4.285156 -13.347656 L 4.09375 -12.300781 L 4.050781 -11.261719 L 3.992188 -10.664062 L 3.785156 -10.136719 L 3.800781 -9.617188 L 3.746094 -9.023438 L 3.554688 -7.976562 L 3.417969 -7.453125 L 3.296875 -6.558594 L 3.097656 -5.734375 L 3.054688 -4.769531 L 2.996094 -4.246094 L 2.792969 -3.574219 L 2.960938 -2.910156 L 2.898438 -2.460938 L 2.855469 -1.347656 L 2.871094 -0.828125 L 3.257812 -0.394531 L 3.558594 -0.179688 L 4.601562 -0.136719 L 6.605469 -0.195312 Z M 8.613281 -0.105469 "/></g></g></g><g fill="rgb(100%, 87.059021%, 34.899902%)" fill-opacity="1"><g transform="translate(572.003487, 88.239158)"><g><path d="M 5.789062 -0.0976562 L 11.726562 -0.269531 L 12.242188 -0.359375 L 12.441406 -1.257812 L 12.496094 -1.855469 L 12.550781 -2.523438 L 12.757812 -3.125 L 12.816406 -3.644531 L 12.949219 -4.09375 L 13.007812 -4.617188 L 12.992188 -5.210938 L 13.277344 -5.664062 L 13.246094 -6.703125 L 13.433594 -7.824219 L 13.414062 -8.566406 L 13.621094 -9.089844 L 13.679688 -9.613281 L 13.875 -10.507812 L 14.007812 -11.035156 L 14.132812 -11.929688 L 14.335938 -12.601562 L 14.527344 -13.648438 L 14.511719 -14.09375 L 14.570312 -14.613281 L 14.707031 -15.0625 L 14.765625 -15.585938 L 14.828125 -16.035156 L 14.871094 -17 L 15.011719 -17.375 L 15.054688 -18.34375 L 15.261719 -18.941406 L 15.320312 -19.464844 L 15.316406 -19.613281 L 16.429688 -19.570312 L 18.0625 -19.621094 L 19.476562 -19.585938 L 21.550781 -19.796875 L 22.582031 -19.976562 L 23.546875 -20.078125 L 24.433594 -20.253906 L 25.609375 -20.660156 L 26.558594 -21.132812 L 27.296875 -21.375 L 28.320312 -21.925781 L 28.675781 -22.382812 L 29.621094 -23.152344 L 29.976562 -23.683594 L 30.472656 -24.441406 L 31.125 -25.054688 L 31.617188 -25.960938 L 32.050781 -26.417969 L 32.683594 -27.550781 L 33.175781 -28.457031 L 33.523438 -29.285156 L 34.078125 -30.710938 L 34.417969 -31.761719 L 34.621094 -32.363281 L 34.8125 -33.40625 L 34.949219 -33.855469 L 35.011719 -34.304688 L 35.21875 -34.832031 L 35.273438 -35.425781 L 35.480469 -35.953125 L 35.597656 -36.996094 L 35.699219 -38.632812 L 35.757812 -39.152344 L 35.882812 -39.972656 L 35.933594 -40.792969 L 35.835938 -41.605469 L 35.820312 -42.125 L 35.710938 -43.238281 L 35.765625 -43.980469 L 35.519531 -44.792969 L 35.429688 -45.308594 L 35.332031 -46.121094 L 35.007812 -46.929688 L 34.847656 -47.445312 L 34.371094 -48.398438 L 34.132812 -48.984375 L 33.671875 -49.488281 L 33.207031 -50.070312 L 32.902344 -50.433594 L 32.214844 -51.007812 L 31.234375 -51.496094 L 30.710938 -51.707031 L 30.179688 -52.0625 L 29.65625 -52.195312 L 28.460938 -52.382812 L 26.898438 -52.558594 L 25.929688 -52.679688 L 25.335938 -52.660156 L 24.21875 -52.777344 L 23.179688 -52.746094 L 22.066406 -52.640625 L 21.546875 -52.699219 L 16.574219 -52.550781 L 16.128906 -52.464844 L 15.164062 -52.511719 L 14.203125 -52.40625 L 10.34375 -52.292969 L 9.757812 -51.980469 L 9.488281 -51.003906 L 9.433594 -50.410156 L 9.242188 -49.363281 L 9.183594 -48.769531 L 9.125 -48.246094 L 8.863281 -47.050781 L 8.730469 -46.527344 L 8.742188 -46.082031 L 8.683594 -45.558594 L 8.550781 -45.035156 L 8.570312 -44.441406 L 8.433594 -43.917969 L 8.386719 -43.027344 L 8.183594 -42.351562 L 7.992188 -41.304688 L 7.863281 -40.707031 L 7.828125 -39.371094 L 7.765625 -38.921875 L 7.570312 -37.953125 L 7.65625 -37.65625 L 7.605469 -36.839844 L 7.34375 -35.644531 L 7.28125 -35.195312 L 7.234375 -34.230469 L 7.027344 -33.703125 L 6.894531 -33.179688 L 6.847656 -32.210938 L 6.875 -31.320312 L 6.679688 -30.351562 L 6.492188 -29.15625 L 6.378906 -28.039062 L 6.320312 -27.441406 L 6.128906 -26.398438 L 6.066406 -25.949219 L 5.933594 -25.425781 L 5.875 -24.980469 L 5.742188 -24.457031 L 5.699219 -23.414062 L 5.640625 -22.820312 L 5.433594 -22.292969 L 5.257812 -20.726562 L 5.214844 -19.613281 L 5.003906 -19.160156 L 5.019531 -18.640625 L 4.886719 -18.191406 L 4.910156 -17.375 L 4.5625 -16.621094 L 4.570312 -16.25 L 4.523438 -15.359375 L 4.460938 -14.910156 L 4.195312 -13.9375 L 4.058594 -13.488281 L 4 -12.964844 L 3.953125 -12 L 3.746094 -11.546875 L 3.5 -9.832031 L 3.4375 -9.386719 L 3.378906 -8.863281 L 3.183594 -7.964844 L 3.121094 -7.445312 L 2.929688 -6.472656 L 2.738281 -5.355469 L 2.546875 -4.308594 L 2.558594 -3.863281 L 2.367188 -2.816406 L 2.457031 -2.300781 L 2.246094 -1.847656 L 2.289062 -0.4375 L 2.746094 -0.0820312 L 4.078125 -0.195312 L 4.601562 -0.136719 Z M 16.597656 -29.007812 L 16.652344 -29.679688 L 16.84375 -30.722656 L 16.824219 -31.390625 L 17.140625 -33.257812 L 17.269531 -33.929688 L 17.253906 -34.523438 L 17.300781 -35.417969 L 17.488281 -36.609375 L 17.617188 -37.355469 L 17.792969 -38.847656 L 17.992188 -39.746094 L 18.125 -40.269531 L 18.234375 -41.535156 L 18.289062 -42.277344 L 18.425781 -42.652344 L 18.769531 -43.554688 L 19.285156 -43.71875 L 20.988281 -43.84375 L 22.996094 -43.828125 L 23.667969 -43.699219 L 24.5 -43.128906 L 24.964844 -42.476562 L 25.289062 -41.59375 L 25.324219 -40.332031 L 25.234375 -38.398438 L 25 -36.3125 L 24.738281 -35.042969 L 24.460938 -34.363281 L 24.332031 -33.691406 L 23.992188 -32.644531 L 23.710938 -32.1875 L 23.214844 -31.355469 L 22.417969 -30.589844 L 21.257812 -29.664062 L 20.746094 -29.429688 L 19.339844 -29.238281 L 18.527344 -29.066406 Z M 16.597656 -29.007812 "/></g></g></g><g fill="rgb(100%, 87.059021%, 34.899902%)" fill-opacity="1"><g transform="translate(605.98865, 87.237974)"><g><path d="M 3.265625 -0.0234375 L 4.230469 -0.125 L 4.75 -0.0664062 L 6.828125 -0.125 L 7.570312 -0.222656 L 13.652344 -0.402344 L 15.136719 -0.519531 L 16.179688 -0.402344 L 17.289062 -0.507812 L 18.628906 -0.472656 L 20.253906 -0.746094 L 21.214844 -0.921875 L 22.625 -0.964844 L 23.203125 -1.5 L 23.464844 -2.695312 L 23.578125 -3.8125 L 23.640625 -4.261719 L 23.625 -4.78125 L 23.832031 -5.308594 L 24.128906 -7.914062 L 24.332031 -8.515625 L 24.242188 -9.03125 L 24.375 -9.554688 L 24.417969 -10.671875 L 23.964844 -10.882812 L 22.035156 -10.824219 L 20.40625 -10.703125 L 16.546875 -10.589844 L 15.878906 -10.644531 L 15.136719 -10.621094 L 14.753906 -10.980469 L 14.730469 -11.722656 L 14.859375 -12.46875 L 14.90625 -13.289062 L 15.042969 -13.8125 L 15.101562 -14.257812 L 15.160156 -14.78125 L 15.140625 -15.523438 L 15.269531 -16.195312 L 15.3125 -17.160156 L 15.582031 -18.136719 L 15.625 -19.175781 L 15.757812 -19.773438 L 15.742188 -20.292969 L 16.003906 -21.488281 L 16.0625 -22.011719 L 16.117188 -22.605469 L 16.3125 -23.652344 L 16.351562 -24.769531 L 16.613281 -25.964844 L 16.671875 -26.484375 L 16.863281 -27.605469 L 16.996094 -28.128906 L 16.964844 -29.167969 L 17.097656 -29.691406 L 17.273438 -31.257812 L 17.257812 -31.851562 L 17.390625 -32.375 L 17.300781 -32.964844 L 17.582031 -33.492188 L 17.773438 -34.464844 L 17.96875 -35.511719 L 18.101562 -36.035156 L 18.160156 -36.554688 L 18.289062 -37.152344 L 18.125 -37.742188 L 18.40625 -38.269531 L 18.523438 -39.316406 L 18.789062 -40.363281 L 18.773438 -40.957031 L 18.964844 -42 L 19.480469 -44.617188 L 19.609375 -45.363281 L 19.730469 -46.183594 L 19.910156 -47.746094 L 20.042969 -48.199219 L 20.027344 -48.71875 L 20.421875 -50.511719 L 20.40625 -51.03125 L 20.464844 -51.550781 L 20.214844 -52.4375 L 18.730469 -52.464844 L 15.835938 -52.382812 L 13.089844 -52.375 L 11.308594 -52.320312 L 10.125 -52.136719 L 9.914062 -51.6875 L 9.585938 -50.191406 L 9.453125 -49.742188 L 9.46875 -49.222656 L 9.417969 -48.328125 L 9.148438 -47.429688 L 8.960938 -46.238281 L 8.921875 -45.046875 L 8.640625 -44.519531 L 8.652344 -44.074219 L 8.59375 -43.550781 L 8.609375 -43.03125 L 8.328125 -42.578125 L 8.203125 -41.757812 L 8.15625 -40.792969 L 8.023438 -40.195312 L 8.1875 -39.679688 L 8.058594 -39.082031 L 7.792969 -38.03125 L 7.585938 -37.433594 L 7.679688 -36.839844 L 7.5 -35.277344 L 7.378906 -34.382812 L 7.394531 -33.863281 L 7.050781 -32.886719 L 7.082031 -31.847656 L 7.027344 -31.25 L 6.683594 -30.277344 L 6.5625 -29.382812 L 6.441406 -28.414062 L 6.058594 -26.320312 L 6.066406 -25.949219 L 5.800781 -24.902344 L 5.570312 -22.667969 L 5.230469 -21.617188 L 5.246094 -21.097656 L 4.980469 -20.050781 L 4.992188 -19.605469 L 4.933594 -19.085938 L 4.871094 -18.636719 L 4.902344 -17.597656 L 4.769531 -17.148438 L 4.648438 -16.105469 L 4.589844 -15.65625 L 4.601562 -15.210938 L 4.394531 -14.6875 L 4.199219 -13.714844 L 4.289062 -13.273438 L 4.082031 -12.746094 L 3.945312 -12.296875 L 3.605469 -11.246094 L 3.632812 -10.355469 L 3.503906 -9.683594 L 3.382812 -8.714844 L 3.320312 -8.265625 L 3.335938 -7.75 L 3.066406 -6.773438 L 3.101562 -5.660156 L 2.832031 -4.6875 L 2.773438 -4.242188 L 2.710938 -3.71875 L 2.511719 -2.96875 L 2.238281 -2.21875 L 2.175781 -1.773438 L 2.261719 -1.328125 L 2.351562 -0.8125 L 2.664062 -0.375 Z M 3.265625 -0.0234375 "/></g></g></g><g fill="rgb(100%, 87.059021%, 34.899902%)" fill-opacity="1"><g transform="translate(632.108251, 86.468506)"><g><path d="M 10.910156 -0.246094 L 11.5 -0.339844 L 12.6875 -0.449219 L 14.246094 -0.492188 L 14.6875 -0.582031 L 15.65625 -0.535156 L 16.839844 -0.644531 L 23.890625 -0.851562 L 24.089844 -1.675781 L 24.21875 -2.347656 L 24.253906 -3.609375 L 24.445312 -4.730469 L 24.503906 -5.253906 L 24.636719 -5.703125 L 24.769531 -6.226562 L 24.742188 -7.191406 L 24.992188 -8.832031 L 25.046875 -9.425781 L 25.171875 -10.25 L 25.238281 -10.546875 L 25.292969 -11.144531 L 24.769531 -11.351562 L 22.691406 -11.214844 L 21.058594 -11.242188 L 20.015625 -11.285156 L 15.640625 -11.15625 L 14.597656 -11.273438 L 14.289062 -11.5625 L 14.273438 -12.15625 L 14.511719 -14.09375 L 14.695312 -15.433594 L 14.828125 -15.960938 L 14.882812 -16.703125 L 15.011719 -17.375 L 15.210938 -18.125 L 15.445312 -20.210938 L 15.640625 -21.183594 L 15.914062 -22.007812 L 16.582031 -22.027344 L 17.542969 -22.128906 L 18.359375 -22.152344 L 19.625 -22.117188 L 21.476562 -22.246094 L 22.144531 -22.265625 L 23.253906 -22.371094 L 23.996094 -22.394531 L 24.140625 -22.546875 L 24.257812 -23.589844 L 24.449219 -24.785156 L 24.566406 -25.828125 L 24.769531 -26.425781 L 24.753906 -26.945312 L 24.945312 -28.066406 L 25.078125 -28.589844 L 25.269531 -29.636719 L 25.394531 -30.457031 L 25.375 -31.050781 L 25.5 -31.945312 L 25.035156 -32.523438 L 24.4375 -32.65625 L 22.507812 -32.597656 L 21.101562 -32.410156 L 18.503906 -32.40625 L 17.167969 -32.367188 L 17.277344 -33.707031 L 17.476562 -34.457031 L 17.386719 -35.046875 L 17.519531 -35.570312 L 17.710938 -36.617188 L 17.828125 -37.660156 L 18.011719 -39.078125 L 17.992188 -39.671875 L 18.203125 -40.121094 L 18.171875 -41.160156 L 18.230469 -41.683594 L 18.425781 -42.578125 L 20.207031 -42.707031 L 25.027344 -42.847656 L 25.917969 -42.949219 L 29.035156 -43.039062 L 29.773438 -43.136719 L 29.96875 -44.109375 L 30.027344 -44.554688 L 30.296875 -45.601562 L 30.277344 -46.195312 L 30.46875 -47.316406 L 30.527344 -47.761719 L 30.585938 -48.285156 L 30.796875 -48.8125 L 30.78125 -49.257812 L 30.875 -51.117188 L 30.863281 -51.5625 L 31.0625 -52.382812 L 30.675781 -52.890625 L 30.003906 -52.945312 L 29.261719 -53 L 28.59375 -52.90625 L 26.960938 -52.855469 L 24.8125 -52.71875 L 24.21875 -52.777344 L 22.507812 -52.800781 L 16.945312 -52.5625 L 15.3125 -52.441406 L 14.574219 -52.417969 L 13.976562 -52.476562 L 13.457031 -52.460938 L 12.570312 -52.359375 L 12.046875 -52.417969 L 11.605469 -52.332031 L 10.34375 -52.292969 L 9.761719 -51.832031 L 9.699219 -51.382812 L 9.492188 -50.929688 L 9.296875 -50.035156 L 9.457031 -49.519531 L 9.398438 -49.070312 L 9.351562 -48.105469 L 9.289062 -47.65625 L 9.15625 -47.207031 L 9.109375 -46.242188 L 8.976562 -45.71875 L 9.0625 -45.273438 L 8.855469 -44.75 L 8.871094 -44.230469 L 8.664062 -43.777344 L 8.542969 -42.734375 L 8.277344 -41.761719 L 8.21875 -41.238281 L 8.304688 -40.796875 L 8.246094 -40.273438 L 8.113281 -39.675781 L 7.832031 -39.222656 L 7.804688 -37.660156 L 7.59375 -37.136719 L 7.582031 -35.054688 L 7.320312 -33.933594 L 7.125 -32.886719 L 7.214844 -32.445312 L 7.082031 -31.921875 L 6.875 -31.320312 L 6.496094 -29.082031 L 6.210938 -28.628906 L 6.226562 -28.109375 L 6.167969 -27.585938 L 6.113281 -26.992188 L 5.90625 -26.464844 L 5.789062 -25.347656 L 5.523438 -24.300781 L 5.554688 -23.1875 L 5.304688 -21.621094 L 5.171875 -21.097656 L 4.980469 -19.976562 L 4.921875 -19.457031 L 4.714844 -18.929688 L 4.519531 -17.957031 L 4.609375 -17.515625 L 4.339844 -16.617188 L 4.347656 -16.246094 L 4.230469 -15.277344 L 4.097656 -14.675781 L 4.113281 -14.15625 L 4 -12.964844 L 3.71875 -12.363281 L 3.601562 -11.394531 L 3.558594 -10.355469 L 3.5 -9.832031 L 3.367188 -9.234375 L 3.382812 -8.714844 L 3.25 -8.191406 L 3.269531 -7.523438 L 3.0625 -6.921875 L 3.023438 -5.734375 L 2.761719 -4.613281 L 2.648438 -3.421875 L 2.53125 -2.300781 L 2.402344 -1.628906 L 2.199219 -0.957031 L 2.441406 -0.292969 L 3.113281 -0.167969 L 7.046875 -0.28125 L 7.570312 -0.222656 L 9.5 -0.28125 Z M 10.910156 -0.246094 "/></g></g></g><g fill="rgb(100%, 87.059021%, 34.899902%)" fill-opacity="1"><g transform="translate(660.082943, 85.644387)"><g><path d="M 14.722656 0.53125 L 15.535156 0.433594 L 16.050781 0.34375 L 16.867188 0.320312 L 17.386719 0.230469 L 18.054688 0.285156 L 18.574219 0.195312 L 19.527344 -0.128906 L 20.121094 -0.222656 L 21.222656 -0.625 L 21.660156 -0.933594 L 22.542969 -1.183594 L 23.195312 -1.722656 L 23.925781 -2.191406 L 24.503906 -2.726562 L 24.863281 -3.035156 L 25.4375 -3.71875 L 25.800781 -4.027344 L 26.152344 -4.78125 L 26.585938 -5.089844 L 27.21875 -6.371094 L 27.558594 -7.421875 L 27.6875 -8.09375 L 27.816406 -8.691406 L 28.085938 -9.664062 L 28.054688 -10.777344 L 28.113281 -11.226562 L 28.304688 -12.269531 L 28.246094 -14.347656 L 28.304688 -14.871094 L 28.214844 -15.386719 L 28.277344 -15.835938 L 28.320312 -16.875 L 28.15625 -17.316406 L 27.75 -18.566406 L 27.660156 -19.085938 L 27.570312 -19.675781 L 27.480469 -20.195312 L 26.988281 -21.738281 L 26.515625 -22.691406 L 25.875 -24.15625 L 25.792969 -24.527344 L 25.101562 -25.324219 L 24.542969 -26.570312 L 23.625 -27.433594 L 23.234375 -28.089844 L 22.546875 -28.8125 L 22.3125 -29.175781 L 21.933594 -29.386719 L 21.699219 -29.828125 L 20.941406 -30.398438 L 20.484375 -30.683594 L 20.179688 -31.046875 L 19.863281 -31.628906 L 19.480469 -31.988281 L 19.171875 -32.425781 L 18.171875 -33.585938 L 17.324219 -34.601562 L 16.777344 -35.550781 L 16.464844 -36.132812 L 15.839844 -37.15625 L 15.277344 -38.550781 L 15.1875 -39.066406 L 15.160156 -40.03125 L 15.203125 -41.074219 L 15.40625 -41.820312 L 15.464844 -42.34375 L 15.738281 -43.09375 L 15.945312 -43.621094 L 16.300781 -44.152344 L 17.105469 -44.546875 L 17.988281 -44.867188 L 18.957031 -44.75 L 19.71875 -44.175781 L 20.40625 -43.527344 L 20.640625 -43.089844 L 20.816406 -42.203125 L 20.863281 -40.496094 L 20.710938 -38.191406 L 20.578125 -37.59375 L 20.683594 -36.628906 L 21.289062 -36.128906 L 22.328125 -36.160156 L 23.371094 -36.113281 L 27.527344 -36.238281 L 28.859375 -36.351562 L 29.738281 -36.824219 L 29.984375 -38.464844 L 30.222656 -40.550781 L 30.257812 -41.8125 L 30.140625 -43.296875 L 30.09375 -44.929688 L 29.59375 -46.695312 L 29.355469 -47.210938 L 29.183594 -48.019531 L 28.875 -48.457031 L 28.332031 -49.257812 L 28.097656 -49.621094 L 27.332031 -50.417969 L 27.101562 -50.707031 L 26.261719 -51.425781 L 25.660156 -51.628906 L 25.128906 -52.0625 L 24.226562 -52.480469 L 23.921875 -52.695312 L 23.402344 -52.753906 L 22.128906 -53.085938 L 21.011719 -53.128906 L 20.339844 -53.257812 L 19.820312 -53.242188 L 17.964844 -53.261719 L 15.664062 -53.191406 L 14.414062 -52.785156 L 13.011719 -52.445312 L 12.207031 -51.976562 L 11.035156 -51.496094 L 9.726562 -50.492188 L 8.859375 -49.722656 L 8.425781 -49.265625 L 8.003906 -48.511719 L 7.789062 -48.207031 L 7.214844 -47.523438 L 7.003906 -47.144531 L 6.796875 -46.617188 L 6.515625 -46.015625 L 6.101562 -45.039062 L 6.046875 -44.292969 L 5.847656 -43.546875 L 5.566406 -43.019531 L 5.523438 -41.976562 L 5.316406 -41.449219 L 5.210938 -39.960938 L 5.273438 -37.808594 L 5.214844 -37.289062 L 5.304688 -36.695312 L 5.410156 -35.734375 L 5.734375 -34.777344 L 5.898438 -34.1875 L 6.136719 -33.675781 L 6.523438 -33.167969 L 6.839844 -32.507812 L 7.320312 -31.410156 L 7.785156 -30.679688 L 8.171875 -30.171875 L 8.929688 -29.601562 L 9.699219 -28.804688 L 10.394531 -27.859375 L 11.3125 -26.921875 L 12.15625 -25.980469 L 12.46875 -25.542969 L 12.847656 -25.183594 L 13.695312 -24.242188 L 14.082031 -23.660156 L 14.617188 -23.15625 L 14.851562 -22.792969 L 15.011719 -22.425781 L 15.320312 -21.988281 L 15.871094 -20.964844 L 16.488281 -20.09375 L 17.113281 -19.070312 L 17.371094 -17.964844 L 17.382812 -17.519531 L 17.71875 -16.191406 L 17.753906 -15.003906 L 17.859375 -13.96875 L 17.875 -13.449219 L 17.820312 -12.707031 L 17.699219 -11.808594 L 17.429688 -10.910156 L 17.148438 -10.382812 L 16.796875 -9.703125 L 16.4375 -9.324219 L 15.625 -9.074219 L 15.035156 -8.910156 L 14.371094 -8.890625 L 13.398438 -9.085938 L 12.632812 -9.804688 L 12.082031 -10.902344 L 11.835938 -11.636719 L 11.640625 -13.265625 L 11.59375 -14.824219 L 11.652344 -15.347656 L 11.574219 -18.089844 L 10.949219 -19.113281 L 9.980469 -19.160156 L 5.828125 -19.035156 L 4.933594 -19.085938 L 3.15625 -18.882812 L 2.132812 -18.332031 L 1.945312 -17.140625 L 1.8125 -16.617188 L 1.757812 -16.019531 L 1.640625 -14.902344 L 1.730469 -14.386719 L 1.691406 -13.121094 L 1.757812 -10.894531 L 1.941406 -9.710938 L 2.027344 -9.269531 L 2.28125 -8.238281 L 2.371094 -7.792969 L 2.929688 -6.472656 L 3.09375 -5.882812 L 3.652344 -4.636719 L 4.347656 -3.617188 L 5.117188 -2.75 L 5.886719 -1.808594 L 6.796875 -1.238281 L 7.554688 -0.742188 L 8.378906 -0.46875 L 9.582031 0.015625 L 10.105469 0.148438 L 10.851562 0.273438 L 11.671875 0.398438 L 12.414062 0.378906 L 12.9375 0.4375 Z M 14.722656 0.53125 "/></g></g></g><g clip-path="url(#id3)"><g clip-path="url(#id4)"><path fill="rgb(100%, 100%, 100%)" d="M 71.195312 110.648438 L 708.417969 91.875 L 708.640625 99.375 L 71.417969 118.144531 Z M 71.195312 110.648438 " fill-opacity="1" fill-rule="nonzero"/></g></g></svg>